<svg width="563" height="451" viewBox="0 0 563 451" fill="none" xmlns="http://www.w3.org/2000/svg">
<path d="M47.1636 34.1253C24.9024 40.8274 4.59893 52.1093 5.82945 78.2475C6.33284 88.3007 10.0244 97.4602 12.3176 107.178C14.7787 117.734 16.5126 128.457 17.5193 139.181C19.6448 160.795 19.0855 182.689 16.7922 204.247C13.2685 237.925 5.54979 270.933 2.36163 304.555C-2.1689 352.475 2.41756 413.967 50.3517 439.435C70.9349 450.326 96.2164 451.555 118.925 449.488C191.302 442.954 258.644 405.925 331.189 402.127C358.316 400.675 385.667 403.97 412.739 401.01C464.868 395.313 513.809 365.209 542.334 321.311C555.143 301.651 564.092 278.361 561.575 255.016C558.051 222.287 533.888 196.763 511.627 174.646C488.024 151.189 462.183 130.133 435.167 110.697C390.589 78.4709 342.991 50.7689 295.448 23.2344C280.458 14.5775 265.133 5.75304 248.129 2.45784C230.063 -1.00492 212.053 2.51369 194.042 4.63602C179.332 6.3674 164.622 8.88069 150.023 11.4498C120.659 16.5881 91.2384 22.3966 62.3772 29.8806C57.2874 31.221 52.1975 32.6173 47.1636 34.1253Z" stroke="url(#paint0_linear)" stroke-miterlimit="10"/>
<path d="M54.3229 437.425C74.6823 448.204 99.6282 449.377 122.057 447.255C193.147 440.609 259.372 404.361 330.63 400.563C357.365 399.111 384.213 402.239 410.837 399.279C462.127 393.582 510.285 363.925 538.419 320.697C551.172 301.205 560.177 278.25 557.827 255.184C554.583 222.846 531.204 197.434 509.222 175.373C486.01 152.195 460.505 131.362 433.881 112.205C389.694 80.3144 342.431 53.0034 295.392 25.6364C280.57 16.9237 265.412 8.09924 248.577 4.80404C230.51 1.17373 212.444 4.58063 194.434 6.70297C179.835 8.43435 165.237 11.0035 150.807 13.6285C121.778 18.8226 92.8045 24.296 64.5586 32.3385C59.5246 33.7906 54.6026 35.522 49.6805 37.1976C27.9787 44.4582 8.01078 55.5725 9.35316 81.599C9.85655 91.5963 13.5481 100.7 15.8413 110.362C18.3583 120.806 20.1481 131.418 21.2109 142.086C23.3922 163.365 22.9448 184.923 20.7634 206.202C17.4634 239.266 10.0803 271.827 7.05993 304.947C2.75312 352.029 7.22773 412.46 54.3229 437.425Z" stroke="url(#paint1_linear)" stroke-miterlimit="10"/>
<path d="M58.2382 435.47C78.318 446.137 102.984 447.254 125.134 445.132C194.993 438.374 259.987 402.908 330.07 399.111C356.359 397.603 382.759 400.619 408.935 397.658C459.386 391.906 506.705 362.64 534.56 320.137C547.2 300.869 556.261 278.193 554.192 255.406C551.283 223.46 528.631 198.103 506.873 176.154C484.108 153.143 458.883 132.646 432.595 113.713C388.855 82.101 341.928 55.125 295.392 27.9257C280.682 19.3246 265.636 10.556 249.024 7.14912C230.958 3.40711 212.892 6.59061 194.825 8.7688C180.283 10.5002 165.852 13.1252 151.534 15.806C122.896 21.1677 94.3147 26.1943 66.74 34.7953C61.762 36.3591 57.0077 38.4256 52.1975 40.2128C31.055 47.9761 11.4227 58.9787 12.877 84.9494C13.4363 94.835 17.0719 103.939 19.3651 113.489C21.8821 123.877 23.7838 134.322 24.9584 144.877C27.2516 165.877 26.8042 187.045 24.7906 207.989C21.7143 240.606 14.7227 272.664 11.8702 305.281C7.67524 351.581 11.9821 410.895 58.2382 435.47Z" stroke="url(#paint2_linear)" stroke-miterlimit="10"/>
<path d="M62.2094 433.514C82.0654 444.07 106.452 445.187 128.322 443.009C196.895 436.139 260.77 401.624 329.567 397.658C355.408 396.15 381.36 399.054 407.089 396.094C456.701 390.342 503.181 361.467 530.7 319.746C543.285 300.645 552.402 278.305 550.556 255.797C547.983 224.185 526.058 198.997 504.524 177.103C482.151 154.372 457.261 134.154 431.364 115.444C387.96 83.9437 341.425 57.3587 295.336 30.271C280.738 21.67 265.916 13.0131 249.416 9.49451C231.405 5.6408 213.283 8.6009 195.217 10.8349C180.786 12.5663 166.468 15.2472 152.317 17.9838C124.071 23.4572 95.8248 28.1487 68.9213 37.3082C63.9992 38.9838 59.4128 41.4412 54.7144 43.3401C34.1313 51.6619 14.8905 62.497 16.3447 88.356C16.9041 98.1857 20.4837 107.234 22.8329 116.728C25.4058 127.005 27.3634 137.337 28.594 147.781C30.9991 168.446 30.5516 189.278 28.6499 209.887C25.7414 242.002 19.1973 273.613 16.4566 305.672C12.5973 351.134 16.7363 409.387 62.2094 433.514Z" stroke="url(#paint3_linear)" stroke-miterlimit="10"/>
<path d="M66.1247 431.504C85.757 441.948 109.808 443.01 131.398 440.776C198.741 433.85 261.441 400.06 328.952 396.095C354.345 394.587 379.906 397.324 405.188 394.363C453.961 388.611 499.658 360.127 526.785 319.132C539.314 300.255 548.487 278.194 546.809 255.965C544.516 224.744 523.373 199.611 502.119 177.83C480.193 155.322 455.527 135.383 430.022 116.952C387.066 85.8431 340.865 59.5932 295.28 32.6731C280.85 24.1279 266.139 15.471 249.807 11.8407C231.853 7.87527 213.675 10.6678 195.553 12.9018C181.234 14.6332 167.027 17.3141 153.044 20.1066C125.189 25.6917 97.2791 30.0481 71.0468 39.7103C66.1806 41.4975 61.8179 44.29 57.1755 46.3565C37.2076 55.181 18.2465 65.9602 19.8126 91.6516C20.3719 101.426 23.9516 110.417 26.3567 119.856C28.9296 130.077 30.9991 140.242 32.2855 150.574C34.7466 170.904 34.355 191.401 32.6211 211.731C29.8804 243.343 23.7838 274.507 21.2109 306.119C17.5194 350.688 21.4906 407.823 66.1247 431.504Z" stroke="url(#paint4_linear)" stroke-miterlimit="10"/>
<path d="M70.04 429.55C89.4486 439.883 113.22 440.888 134.53 438.654C200.587 431.617 262.168 398.665 328.392 394.643C353.338 393.135 378.452 395.705 403.286 392.744C451.22 386.992 496.078 358.899 522.87 318.63C535.287 299.92 544.572 278.194 543.117 256.245C541.16 225.415 520.744 200.394 499.714 178.668C478.18 156.384 453.849 136.724 428.679 118.517C386.171 87.6869 340.306 61.7721 295.224 35.0195C280.906 26.4185 266.363 17.8175 250.199 14.1313C232.244 10.0542 214.066 12.6233 195.888 14.9132C181.681 16.6446 167.586 19.3813 153.771 22.2297C126.308 27.9265 98.7334 32.0036 73.2282 42.1126C68.418 44.0115 64.223 47.1392 59.6366 49.3174C40.228 58.5886 21.6024 69.312 23.2804 94.9475C23.8957 104.666 27.4194 113.602 29.8245 122.929C32.3974 133.038 34.6347 143.147 35.9212 153.312C38.4941 173.306 38.1025 193.524 36.4805 213.463C33.9635 244.628 28.2584 275.29 25.8533 306.343C22.4414 350.242 26.1889 406.316 70.04 429.55Z" stroke="url(#paint5_linear)" stroke-miterlimit="10"/>
<path d="M73.9553 427.595C93.1401 437.76 116.576 438.821 137.606 436.475C202.376 429.382 262.783 397.212 327.777 393.135C352.275 391.627 376.942 394.029 401.328 391.069C448.423 385.316 492.498 357.614 518.898 318.016C531.26 299.473 540.544 278.082 539.37 256.356C537.692 225.917 518.004 201.008 497.253 179.338C476.11 157.277 452.115 137.896 427.337 119.968C385.22 89.4179 339.747 63.8382 295.112 37.2532C280.906 28.7638 266.531 20.2187 250.534 16.4208C232.636 12.1761 214.402 14.6336 196.224 16.9235C182.129 18.7107 168.146 21.4474 154.442 24.3516C127.371 30.1601 100.132 33.958 75.2976 44.5696C70.4875 46.6361 66.5722 50.043 62.0416 52.3888C43.2483 62.1627 24.9584 72.7743 26.6364 98.2982C27.2516 107.96 30.7754 116.841 33.1805 126.112C35.8093 136.165 38.1025 146.107 39.4449 156.216C42.0737 175.875 41.7381 195.758 40.2839 215.362C37.9907 246.024 32.6771 276.239 30.4398 306.79C27.3075 349.795 30.9432 404.752 73.9553 427.595Z" stroke="url(#paint6_linear)" stroke-miterlimit="10"/>
<path d="M77.8706 425.584C96.8317 435.637 119.988 436.643 140.739 434.297C204.278 427.092 263.511 395.76 327.218 391.627C351.269 390.063 375.487 392.409 399.427 389.393C445.683 383.584 488.919 356.385 515.039 317.457C527.344 299.138 536.685 278.026 535.734 256.579C534.392 226.476 515.431 201.678 494.959 180.12C474.264 158.282 450.549 139.237 426.106 121.532C384.437 91.2608 339.299 66.0721 295.168 39.6546C281.129 31.2211 266.867 22.6759 251.038 18.8222C233.195 14.4659 214.849 16.7557 196.671 19.0456C182.688 20.8329 168.817 23.5695 155.281 26.5855C128.601 32.5057 101.642 36.0243 77.535 47.0828C72.7807 49.261 69.0332 53.003 64.6146 55.4604C46.4365 65.6811 28.4262 76.2369 30.2161 101.649C30.8313 111.2 34.2991 120.08 36.7602 129.239C39.389 139.181 41.7941 149.011 43.1924 159.008C45.9331 178.332 45.5975 197.88 44.2551 217.205C42.1856 247.364 37.2636 277.133 35.1381 307.18C32.2296 349.348 35.6974 403.244 77.8706 425.584Z" stroke="url(#paint7_linear)" stroke-miterlimit="10"/>
<path d="M81.8418 423.63C100.579 433.571 123.4 434.521 143.871 432.119C206.124 424.803 264.238 394.308 326.658 390.119C350.262 388.555 374.033 390.734 397.581 387.718C442.998 381.909 485.451 355.101 511.18 316.899C523.373 298.747 532.826 277.971 532.043 256.803C531.036 227.09 512.802 202.404 492.554 180.902C472.251 159.343 448.871 140.522 424.82 123.096C383.542 93.0483 338.74 68.1388 295.112 41.8889C281.185 33.4554 267.09 24.9661 251.429 21.0007C233.587 16.5326 215.241 18.5991 197.063 20.9448C183.192 22.7321 169.376 25.5246 156.064 28.5964C129.776 34.74 103.096 38.0911 79.7163 49.5405C74.9621 51.8304 71.4943 55.9075 67.1315 58.5325C49.5687 69.1442 31.8381 79.7558 33.7398 105C34.411 114.495 37.8229 123.32 40.2839 132.423C42.9687 142.309 45.4297 151.971 46.8839 161.857C49.6806 180.846 49.4568 200.059 48.2263 219.048C46.3806 248.761 41.9059 278.026 39.8924 307.627C37.1517 348.901 40.4517 401.68 81.8418 423.63Z" stroke="url(#paint8_linear)" stroke-miterlimit="10"/>
<path d="M85.757 421.674C104.271 431.504 126.756 432.397 146.947 429.996C207.97 422.624 264.909 392.911 326.099 388.722C349.255 387.158 372.579 389.169 395.679 386.209C440.257 380.4 481.927 353.983 507.264 316.507C519.402 298.579 528.854 278.082 528.351 257.193C527.624 227.872 510.173 203.297 490.205 181.85C470.293 160.515 447.249 141.973 423.534 124.771C382.703 94.9465 338.236 70.4279 295.057 44.3456C281.241 35.968 267.314 27.4786 251.821 23.4574C234.034 18.8217 215.632 20.7765 197.398 23.1781C183.639 24.9653 169.935 27.8137 156.791 30.9414C130.951 37.085 104.606 40.2126 81.8977 51.9972C77.1994 54.4546 73.8993 58.811 69.6485 61.6035C52.7009 72.662 35.3618 83.2178 37.2076 108.407C37.9347 117.845 41.2907 126.614 43.8076 135.606C46.4924 145.38 49.0653 154.93 50.6314 164.704C53.5399 183.358 53.3162 202.292 52.2534 220.946C50.5755 250.156 46.4924 278.919 44.7026 308.018C42.0737 348.454 45.2059 400.172 85.757 421.674Z" stroke="url(#paint9_linear)" stroke-miterlimit="10"/>
<path d="M89.6723 419.665C107.962 429.383 130.167 430.276 150.079 427.763C209.815 420.335 265.58 391.348 325.54 387.159C348.248 385.54 371.125 387.439 393.777 384.479C437.517 378.67 478.347 352.644 503.349 315.894C515.431 298.133 524.939 277.971 524.66 257.362C524.268 228.431 507.544 203.969 487.8 182.578C468.335 161.466 445.571 143.259 422.247 126.28C381.808 96.7907 337.677 72.6073 295.001 46.6925C281.353 38.3148 267.538 29.8813 252.212 25.8042C234.482 21.0569 216.024 22.7883 197.734 25.2457C184.086 27.033 170.495 29.9372 157.463 33.1207C132.013 39.3201 106.005 42.3361 84.0231 54.5116C79.3248 57.0807 76.3044 61.7722 72.1095 64.6765C55.7772 76.07 38.7178 86.6817 40.6754 111.759C41.4026 121.142 44.7585 129.854 47.2755 138.791C50.0162 148.453 52.7009 157.947 54.267 167.554C57.2315 185.873 57.0637 204.471 56.1128 222.79C54.6586 251.498 50.967 279.814 49.289 308.41C46.9958 348.008 49.9602 398.609 89.6723 419.665Z" stroke="url(#paint10_linear)" stroke-miterlimit="10"/>
<path d="M93.5876 417.71C111.654 427.316 133.523 428.154 153.156 425.64C211.605 418.101 266.251 389.952 324.924 385.707C347.186 384.087 369.615 385.875 391.82 382.859C434.72 377.05 474.768 351.415 499.434 315.391C511.459 297.854 521.024 277.971 520.912 257.641C520.8 229.045 504.859 204.694 485.339 183.415C466.266 162.583 443.837 144.599 420.849 127.899C380.913 98.6335 337.174 74.7852 294.945 49.0379C281.409 40.7161 267.761 32.3385 252.604 28.1497C234.873 23.2907 216.415 24.8545 198.125 27.3119C184.59 29.0992 171.11 32.0034 158.246 35.2428C133.188 41.5539 105.316 47.0471 86.2045 56.9129C82.1214 60.4315 78.7655 64.5645 74.6265 67.6921C58.9094 79.4767 42.1856 90.0883 44.1992 115.054C44.9263 124.381 48.2263 133.038 50.7992 141.918C53.5399 151.524 56.3365 160.851 57.9586 170.402C61.0349 188.386 60.8671 206.649 60.084 224.633C58.8535 252.894 55.5535 280.707 54.0433 308.8C51.8619 347.561 54.7145 397.101 93.5876 417.71Z" stroke="url(#paint11_linear)" stroke-miterlimit="10"/>
<path d="M97.5029 415.754C115.345 425.193 136.879 426.031 156.288 423.461C213.507 415.866 266.978 388.499 324.365 384.198C346.179 382.579 368.16 384.198 389.974 381.182C432.035 375.318 471.3 350.129 495.575 314.831C507.488 297.462 517.165 277.914 517.276 257.863C517.5 229.659 502.231 205.42 483.046 184.196C464.364 163.587 442.271 145.882 419.618 129.462C380.018 100.42 336.614 77.0742 294.945 51.3828C281.521 43.1168 268.041 34.7392 253.051 30.4387C235.377 25.4121 216.863 26.8084 198.517 29.3217C185.093 31.1089 171.725 34.069 159.029 37.3642C134.362 43.787 111.047 48.957 88.3859 59.3136C84.4147 63.0556 81.2265 67.412 77.1434 70.7072C62.0417 82.8268 45.5975 93.5502 47.667 118.404C48.4501 127.619 51.6941 136.276 54.267 145.045C57.0637 154.539 59.9162 163.755 61.5942 173.194C64.7264 190.842 64.6146 208.771 63.9434 226.475C62.8806 254.233 60.0281 281.6 58.6857 309.19C56.784 347.113 59.4688 395.536 97.5029 415.754Z" stroke="url(#paint12_linear)" stroke-miterlimit="10"/>
<path d="M101.474 413.743C119.037 423.071 140.347 423.908 159.42 421.283C215.353 413.632 267.705 387.047 323.806 382.69C345.172 381.015 366.706 382.523 388.072 379.507C429.295 373.643 467.776 348.845 491.659 314.273C503.517 297.127 513.193 277.858 513.585 258.031C514.144 230.217 499.602 206.09 480.641 184.922C462.351 164.537 440.537 147.167 418.332 130.915C379.067 102.375 336.055 79.2526 294.889 53.7287C281.577 45.5186 268.265 37.141 253.443 32.7846C235.824 27.6463 217.198 28.8751 198.853 31.3883C185.541 33.2314 172.285 36.1915 159.756 39.5426C135.481 46.0771 112.717 53.2819 90.5672 61.7712C86.652 65.7366 83.6875 70.3164 79.6604 73.7233C65.1739 86.1781 49.0653 96.9573 51.1907 121.699C51.9738 130.859 55.2179 139.46 57.7908 148.173C60.5874 157.611 63.5518 166.659 65.2857 175.986C68.5298 193.3 68.418 210.949 67.9146 228.263C67.0756 255.518 64.6145 282.382 63.384 309.47C61.7061 346.667 64.223 394.028 101.474 413.743Z" stroke="url(#paint13_linear)" stroke-miterlimit="10"/>
<path d="M105.389 411.789C122.728 421.004 143.703 421.786 162.552 419.106C217.198 411.398 268.377 385.595 323.247 381.183C344.165 379.507 365.252 380.848 386.171 377.832C426.554 371.967 464.196 347.616 487.744 313.715C499.546 296.736 509.278 277.803 509.837 258.255C510.676 230.832 496.917 206.816 478.236 185.705C460.393 165.598 438.859 148.508 416.989 132.479C378.172 104.051 335.496 81.3194 294.833 55.9631C281.689 47.753 268.489 39.4313 253.834 35.019C236.216 29.7132 217.59 30.7744 199.244 33.3435C186.044 35.1866 172.9 38.1467 160.483 41.6094C136.6 48.2557 114.339 55.5722 92.6927 64.1732C88.8893 68.3062 86.0367 73.1093 82.1214 76.7397C68.2502 89.4737 52.4213 100.365 54.6586 124.995C55.4975 134.099 58.6857 142.588 61.3145 151.245C64.1671 160.572 67.1874 169.508 68.9773 178.723C72.2773 195.702 72.2214 213.016 71.8298 229.994C71.2146 256.803 69.1451 283.164 68.0824 309.75C66.6281 346.164 68.9773 392.465 105.389 411.789Z" stroke="url(#paint14_linear)" stroke-miterlimit="10"/>
<path d="M109.305 409.835C126.42 418.938 147.059 419.665 165.629 416.984C219.044 409.22 269.048 384.199 322.687 379.731C343.158 378.056 363.798 379.229 384.325 376.268C423.869 370.404 460.729 346.444 483.941 313.269C495.686 296.513 505.475 277.859 506.258 258.591C507.432 231.503 494.4 207.599 475.942 186.655C458.491 166.772 437.293 149.961 415.815 134.211C377.445 106.062 335.104 83.6657 294.889 58.4211C281.856 50.2668 268.824 41.9451 254.338 37.477C236.775 32.0595 218.093 32.9531 199.692 35.5222C186.603 37.3653 173.571 40.3812 161.322 43.8998C137.83 50.6578 116.072 58.0301 94.9859 66.7429C91.2384 71.0992 87.8824 75.4556 84.7502 79.9237C69.3688 90.3119 55.945 103.94 58.2382 128.514C59.0772 137.562 62.2094 145.995 64.8942 154.596C67.7467 163.868 70.8789 172.636 72.7247 181.74C76.1366 198.383 76.1366 215.362 75.8569 232.061C75.4654 258.367 73.7874 284.282 72.8925 310.364C71.4942 345.718 73.7315 390.957 109.305 409.835Z" stroke="url(#paint15_linear)" stroke-miterlimit="10"/>
<path d="M113.22 407.823C130.112 416.815 150.471 417.541 168.705 414.805C220.834 406.986 269.719 382.69 322.072 378.222C342.096 376.491 362.287 377.608 382.367 374.592C421.072 368.728 457.149 345.159 479.969 312.709C491.659 296.122 501.448 277.802 502.51 258.813C504.02 232.116 491.715 208.324 473.481 187.436C456.422 167.832 435.559 151.244 414.417 135.774C376.438 107.904 334.489 85.8429 294.721 60.7659C281.801 52.6117 268.936 44.3457 254.617 39.8218C237.11 34.2367 218.373 34.9628 199.971 37.5878C186.995 39.4309 174.074 42.5027 161.993 46.0771C138.893 52.9468 117.695 60.4308 97.0554 69.1994C93.4198 73.7233 90.1757 78.3031 87.0994 82.9387C72.1654 93.6062 59.245 107.346 61.5942 131.808C62.4332 140.8 65.5654 149.178 68.2502 157.667C71.1586 166.827 74.3468 175.539 76.3044 184.531C79.7723 200.84 79.8282 217.483 79.7163 233.848C79.4926 259.651 78.2621 285.063 77.479 310.699C76.4163 345.27 78.4858 389.393 113.22 407.823Z" stroke="url(#paint16_linear)" stroke-miterlimit="10"/>
<path d="M117.135 405.868C133.803 414.749 153.827 415.419 171.837 412.626C222.68 404.751 270.446 381.238 321.513 376.77C341.089 375.039 360.833 375.988 380.465 372.972C418.332 367.052 453.625 343.93 476.054 312.207C487.632 295.842 497.532 277.802 498.763 259.092C500.553 232.787 489.031 209.106 471.076 188.273C454.408 168.893 433.881 152.641 413.074 137.337C375.543 109.747 333.874 88.0211 294.665 63.1116C281.912 55.0132 269.16 46.7473 255.009 42.1117C237.502 36.4149 218.765 36.9734 200.307 39.5984C187.442 41.4415 174.634 44.5133 162.72 48.1994C140.012 55.1249 119.317 62.7765 99.1808 71.6009C95.6571 76.3483 92.4689 81.1514 89.5604 85.9546C75.0739 96.8455 62.6009 110.808 65.006 135.103C65.901 144.04 68.9773 152.361 71.662 160.795C74.5705 169.898 77.9265 178.444 79.8841 187.324C83.4078 203.297 83.5197 219.662 83.5197 235.691C83.5197 261.047 82.6807 285.957 82.0655 311.09C81.2824 344.823 83.2401 387.884 117.135 405.868Z" stroke="url(#paint17_linear)" stroke-miterlimit="10"/>
<path d="M121.106 403.914C137.551 412.626 157.239 413.296 174.969 410.504C224.582 402.573 271.117 379.842 320.953 375.318C340.138 373.586 359.379 374.368 378.564 371.352C415.591 365.432 450.101 342.701 472.195 311.704C483.717 295.507 493.673 277.802 495.127 259.371C497.253 233.457 486.402 209.888 468.727 189.111C452.451 170.01 432.203 153.981 411.844 138.957C374.704 111.59 333.426 90.255 294.665 65.513C282.024 57.4705 269.439 49.2046 255.456 44.5131C238.005 38.6488 219.212 39.0397 200.698 41.7206C187.89 43.5636 175.249 46.6913 163.447 50.3774C141.13 57.4147 120.939 65.1779 101.362 74.1141C97.8944 79.0848 94.874 84.0555 92.0774 89.0821C78.0383 100.252 66.0688 114.327 68.5298 138.566C69.4247 147.39 72.501 155.712 75.1858 164.034C78.0943 173.026 81.5621 181.459 83.5757 190.228C87.1553 205.866 87.3231 221.896 87.4909 237.59C87.7147 262.443 87.2672 286.85 86.8197 311.536C86.2045 344.376 87.9943 386.32 121.106 403.914Z" stroke="url(#paint18_linear)" stroke-miterlimit="10"/>
<path d="M125.022 401.904C141.242 410.505 160.595 411.175 178.102 408.271C226.427 400.284 271.845 378.335 320.394 373.755C339.131 371.968 357.925 372.638 376.718 369.622C412.906 363.758 446.578 341.417 468.28 311.146C479.746 295.173 489.758 277.747 491.436 259.596C493.841 234.016 483.773 210.615 466.322 189.894C450.437 171.016 430.525 155.266 410.501 140.522C373.754 113.434 332.867 92.4341 294.609 67.8597C282.08 59.7613 269.663 51.5513 255.848 46.8039C238.453 40.8279 219.604 41.0513 201.09 43.7321C188.393 45.5752 175.864 48.7029 164.23 52.5007C142.305 59.6496 122.617 67.5246 103.544 76.5166C100.188 81.6549 97.2791 86.849 94.5944 92.0432C81.0028 103.437 69.4807 117.679 72.0536 141.806C73.0044 150.575 75.9688 158.841 78.7655 167.107C81.7299 176.043 85.2536 184.309 87.3231 192.966C91.0147 208.269 91.1825 223.963 91.4621 239.322C91.9096 263.729 91.8537 287.633 91.5181 311.816C91.1265 343.931 92.7486 384.813 125.022 401.904Z" stroke="url(#paint19_linear)" stroke-miterlimit="10"/>
<path d="M128.937 399.948C144.934 408.438 164.007 409.052 181.178 406.148C228.217 398.105 272.516 376.882 319.779 372.302C338.069 370.515 356.47 371.073 374.76 368.001C410.166 362.081 442.998 340.188 464.364 310.587C475.774 294.781 485.786 277.691 487.688 259.762C490.429 234.574 481.088 211.284 463.917 190.619C448.423 172.021 428.847 156.55 409.215 141.973C372.915 115.165 332.308 94.4997 294.553 70.0929C282.192 62.1062 269.887 53.8961 256.239 49.093C238.844 42.9494 219.939 43.0052 201.425 45.7419C188.841 47.585 176.424 50.7685 164.957 54.6222C143.423 61.8828 124.239 69.8695 105.669 78.9173C102.425 84.279 99.5723 89.6407 97.0554 95.0582C83.9112 106.731 72.8925 121.085 75.4654 145.101C76.4163 153.813 79.3807 162.023 82.1773 170.234C85.1418 179.058 88.7774 187.212 90.9028 195.757C94.6503 210.725 94.9299 226.14 95.3215 241.164C95.9367 265.068 96.3283 288.526 96.1605 312.206C95.9927 343.483 97.5028 383.249 128.937 399.948Z" stroke="url(#paint20_linear)" stroke-miterlimit="10"/>
<path d="M132.852 397.994C148.625 406.372 167.363 406.986 184.254 403.97C230.007 395.928 273.187 375.431 319.163 370.795C337.006 369.008 354.96 369.399 372.803 366.383C407.425 360.407 439.53 338.96 460.505 310.085C471.859 294.503 481.927 277.692 484.052 260.043C487.129 235.245 478.515 212.067 461.568 191.458C446.522 173.083 427.225 157.891 407.928 143.594C372.02 117.009 331.804 96.7347 294.553 72.4954C282.304 64.5087 270.167 56.3545 256.687 51.4396C239.348 45.1843 220.387 45.0726 201.873 47.8093C189.4 49.6524 177.095 52.8917 165.741 56.8013C144.598 64.1178 125.917 72.272 107.906 81.3757C104.718 86.9049 102.033 92.49 99.6283 98.1309C86.9876 110.027 76.3604 124.604 79.0451 148.453C79.996 157.109 82.9604 165.264 85.757 173.362C88.7774 182.131 92.4689 190.117 94.6503 198.607C98.4537 213.24 98.7893 228.319 99.2927 243.008C100.132 266.41 100.915 289.364 100.915 312.542C100.915 342.981 102.257 381.742 132.852 397.994Z" stroke="url(#paint21_linear)" stroke-miterlimit="10"/>
<path d="M136.767 396.039C152.317 404.305 170.719 404.864 187.386 401.848C231.909 393.75 273.914 374.034 318.66 369.343C336.055 367.5 353.562 367.779 370.957 364.763C404.684 358.787 435.951 337.731 456.59 309.582C467.832 294.167 478.012 277.691 480.361 260.322C483.717 235.915 475.83 212.849 459.218 192.295C444.564 174.2 425.603 159.232 406.642 145.213C371.181 118.907 331.301 98.9686 294.497 74.841C282.36 66.9102 270.39 58.756 257.078 53.7852C239.795 47.3624 220.778 47.0831 202.209 49.8757C189.847 51.7188 177.654 54.9581 166.468 58.9794C145.717 66.4075 127.539 74.6176 110.032 83.8889C106.955 89.6415 104.383 95.3942 102.089 101.203C89.896 113.322 79.7163 128.067 82.5129 151.859C83.5197 160.46 86.4282 168.559 89.2248 176.601C92.2452 185.258 96.0486 193.133 98.2859 201.511C102.145 215.809 102.537 230.553 103.208 244.907C104.271 267.862 105.445 290.314 105.557 312.989C105.781 342.534 107.011 380.178 136.767 396.039Z" stroke="url(#paint22_linear)" stroke-miterlimit="10"/>
<path d="M140.739 394.028C156.064 402.182 174.13 402.685 190.519 399.613C233.755 391.515 274.585 372.525 318.101 367.778C335.048 365.935 352.108 366.047 369.111 363.031C402 357.055 432.483 336.446 452.73 308.967C463.917 293.776 474.097 277.579 476.669 260.489C480.361 236.417 473.202 213.518 456.813 193.021C442.551 175.204 423.925 160.515 405.355 146.72C370.23 120.694 330.742 101.09 294.385 77.186C282.416 69.311 270.558 61.1567 257.414 56.1302C240.131 49.5398 221.114 49.1488 202.488 51.9414C190.239 53.7844 178.158 57.0796 167.139 61.1567C146.779 68.6966 129.161 77.0184 112.157 86.3455C109.193 92.3215 106.676 98.2976 104.55 104.274C92.8046 116.673 83.1282 131.529 85.9249 155.21C86.9316 163.699 89.7842 171.797 92.6368 179.728C95.7131 188.329 99.5724 196.037 101.922 204.303C105.837 218.265 106.284 232.675 107.123 246.749C108.41 269.201 109.976 291.151 110.256 313.379C110.647 342.087 111.766 378.669 140.739 394.028Z" stroke="url(#paint23_linear)" stroke-miterlimit="10"/>
<path d="M144.654 392.074C159.7 400.06 177.542 400.619 193.651 397.491C235.6 389.337 275.312 371.074 317.541 366.326C334.042 364.483 350.654 364.483 367.21 361.411C399.259 355.435 428.959 335.217 448.815 308.465C459.946 293.441 470.181 277.579 472.978 260.768C477.005 237.087 470.573 214.3 454.408 193.859C440.537 176.266 422.247 161.856 404.013 148.284C369.391 122.537 330.182 103.213 294.385 79.4761C282.528 71.6011 270.894 63.4469 257.861 58.4203C240.634 51.7182 221.561 51.1038 202.936 53.9522C190.798 55.7953 178.829 59.0905 167.978 63.2235C148.01 70.8192 130.895 79.3085 114.394 88.6915C111.486 94.8351 109.137 101.035 107.123 107.178C95.8249 119.8 86.596 134.824 89.5045 158.393C90.5672 166.827 93.3638 174.869 96.2723 182.744C99.3486 191.234 103.32 198.829 105.725 206.984C109.696 220.611 110.2 234.742 111.15 248.425C112.661 270.43 114.618 291.821 115.066 313.603C115.569 341.64 116.52 377.105 144.654 392.074Z" stroke="url(#paint24_linear)" stroke-miterlimit="10"/>
<path d="M148.569 390.118C163.391 397.993 180.898 398.496 196.727 395.312C237.39 387.158 275.984 369.621 316.926 364.874C332.979 362.975 349.143 362.863 365.252 359.791C396.462 353.815 425.379 333.988 444.844 307.962C455.918 293.161 466.21 277.579 469.23 261.047C473.537 237.757 467.888 215.082 452.003 194.696C438.523 177.382 420.569 163.196 402.727 149.904C368.496 124.38 329.679 105.446 294.329 81.8773C282.584 74.0582 271.117 65.904 258.253 60.7657C241.082 53.8961 221.953 53.17 203.271 56.0184C191.246 57.8615 179.388 61.2125 168.649 65.4013C149.073 73.1088 132.461 81.7098 116.464 91.1486C113.667 97.5156 111.43 103.883 109.528 110.25C98.6775 123.151 89.952 138.343 92.9164 161.8C93.9791 170.178 96.7758 178.164 99.6843 185.928C102.816 194.361 106.844 201.789 109.305 209.832C113.332 223.124 113.947 236.919 115.01 250.268C116.744 271.77 119.093 292.714 119.708 313.994C120.435 341.137 121.274 375.597 148.569 390.118Z" stroke="url(#paint25_linear)" stroke-miterlimit="10"/>
<path d="M152.485 388.109C167.083 395.872 184.254 396.375 199.859 393.135C239.292 384.981 276.711 368.17 316.367 363.367C331.972 361.468 347.689 361.189 363.35 358.117C393.722 352.141 421.912 332.761 440.984 307.404C452.003 292.771 462.351 277.524 465.539 261.216C470.181 238.317 465.203 215.753 449.598 195.423C436.51 178.389 418.835 164.426 401.384 151.413C367.545 126.168 329.119 107.57 294.273 84.1682C282.695 76.3491 271.341 68.2507 258.644 63.0566C241.473 56.0194 222.288 55.1258 203.607 58.03C191.693 59.8731 179.947 63.2241 169.376 67.5247C150.191 75.2879 134.083 84.0565 118.645 93.607C115.905 100.142 113.779 106.732 112.045 113.322C101.642 126.447 93.3639 141.806 96.3842 165.152C97.447 173.474 100.244 181.405 103.152 189.112C106.284 197.434 110.423 204.75 112.94 212.737C117.023 225.694 117.695 239.154 118.869 252.224C120.771 273.279 123.567 293.665 124.295 314.497C125.301 340.691 125.973 374.09 152.485 388.109Z" stroke="url(#paint26_linear)" stroke-miterlimit="10"/>
<path d="M156.4 386.153C170.774 393.805 187.61 394.252 202.936 391.012C241.082 382.858 277.382 366.717 315.752 361.914C330.909 360.015 346.179 359.568 361.448 356.552C390.981 350.52 418.388 331.587 437.069 306.957C448.032 292.547 458.38 277.579 461.847 261.55C466.769 238.986 462.574 216.59 447.193 196.316C434.496 179.505 417.157 165.877 400.042 153.087C366.65 128.122 328.56 109.859 294.162 86.6249C282.695 78.8617 271.509 70.7633 258.98 65.5133C241.865 58.3644 222.624 57.2474 203.942 60.2075C192.141 62.0505 180.507 65.4574 170.103 69.8138C151.31 77.6888 135.705 86.5691 120.771 96.1754C118.142 102.933 116.128 109.691 114.506 116.449C104.606 129.798 96.7198 145.324 99.852 168.558C100.971 176.824 103.655 184.699 106.62 192.351C109.808 200.617 114.003 207.765 116.576 215.64C120.715 228.263 121.442 241.444 122.784 254.122C124.91 274.675 128.098 294.558 128.993 314.943C130.167 340.188 130.727 372.526 156.4 386.153Z" stroke="url(#paint27_linear)" stroke-miterlimit="10"/>
<path d="M160.371 384.199C174.522 391.738 191.022 392.185 206.068 388.834C242.927 380.68 278.109 365.265 315.248 360.406C330.014 358.451 344.781 357.949 359.603 354.877C388.296 348.845 414.92 330.358 433.21 306.398C444.117 292.156 454.52 277.523 458.212 261.773C463.469 239.601 460.001 217.316 444.9 197.098C432.539 180.566 415.591 167.162 398.867 154.596C365.867 129.854 328.113 111.981 294.218 88.9149C282.863 81.2075 271.845 73.1091 259.539 67.8033C242.48 60.4868 223.183 59.2581 204.446 62.2741C192.756 64.1171 181.234 67.524 170.998 71.9921C152.596 79.9788 137.495 88.9708 123.064 98.633C120.547 105.614 118.645 112.54 117.135 119.521C107.683 133.149 100.299 148.787 103.488 171.965C104.606 180.119 107.291 187.994 110.255 195.534C113.444 203.688 117.75 210.782 120.379 218.489C124.574 230.776 125.357 243.622 126.811 256.021C129.161 276.127 132.684 295.452 133.803 315.39C135.034 339.741 135.481 371.018 160.371 384.199Z" stroke="url(#paint28_linear)" stroke-miterlimit="10"/>
<path d="M164.286 382.189C178.214 389.617 194.378 390.008 209.2 386.657C244.773 378.558 278.78 363.758 314.689 358.899C329.008 356.944 343.326 356.274 357.701 353.202C385.555 347.17 411.396 329.074 429.295 305.84C440.145 291.822 450.549 277.468 454.464 261.997C460.002 240.216 457.261 218.043 442.439 197.881C430.469 181.628 413.857 168.447 397.469 156.16C364.916 131.697 327.497 114.16 294.106 91.2054C282.919 83.498 272.012 75.3996 259.875 70.0938C242.816 62.6098 223.519 61.2135 204.781 64.2853C193.203 66.1842 181.793 69.5911 171.669 74.1151C153.659 82.1576 139.061 91.2613 125.189 101.035C122.728 108.184 120.939 115.333 119.54 122.538C110.535 136.389 103.6 152.25 106.844 175.261C108.018 183.359 110.647 191.179 113.667 198.663C116.911 206.761 121.274 213.686 123.959 221.282C128.21 233.234 129.105 245.745 130.671 257.809C133.244 277.412 137.159 296.234 138.39 315.67C139.9 339.295 140.235 369.455 164.286 382.189Z" stroke="url(#paint29_linear)" stroke-miterlimit="10"/>
<path d="M168.202 380.233C181.905 387.494 197.734 387.941 212.276 384.478C246.619 376.38 279.451 362.305 314.074 357.39C327.945 355.436 341.816 354.598 355.799 351.526C382.815 345.494 407.872 327.845 425.435 305.281C436.174 291.43 446.69 277.412 450.829 262.22C456.646 240.774 454.688 218.768 440.145 198.662C428.567 182.689 412.291 169.787 396.294 157.723C364.133 133.54 327.106 116.338 294.162 93.5507C283.087 85.8992 272.348 77.8008 260.378 72.3833C243.375 64.7317 224.022 63.2237 205.229 66.2955C193.763 68.1944 182.408 71.6014 172.508 76.237C154.89 84.3912 140.851 93.6066 127.427 103.492C125.078 110.865 123.4 118.237 122.113 125.553C113.555 139.684 107.067 155.657 110.423 178.556C111.598 186.598 114.227 194.306 117.247 201.734C120.491 209.721 124.966 216.534 127.762 224.018C132.069 235.635 133.02 247.867 134.698 259.54C137.495 278.696 141.801 297.016 143.2 315.949C144.766 338.792 144.99 367.946 168.202 380.233Z" stroke="url(#paint30_linear)" stroke-miterlimit="10"/>
<path d="M172.117 378.278C185.597 385.427 201.09 385.818 215.409 382.355C248.465 374.313 280.178 360.909 313.514 355.938C326.938 353.927 340.362 353.034 353.898 349.906C380.074 343.874 404.405 326.616 421.52 304.778C432.203 291.151 442.774 277.412 447.137 262.499C453.29 241.444 452.059 219.606 437.74 199.555C426.554 183.861 410.613 171.183 394.952 159.399C363.238 135.494 326.547 118.627 294.106 96.0078C283.143 88.3563 272.572 80.3137 260.77 74.8403C243.822 67.0212 224.414 65.3457 205.564 68.4733C194.21 70.3723 182.968 73.835 173.235 78.4707C156.064 86.6807 142.473 96.0637 129.552 106.005C127.315 113.545 125.749 121.141 124.574 128.681C116.464 143.034 110.479 159.175 113.891 182.018C115.066 190.005 117.639 197.656 120.715 205.029C124.015 212.904 128.545 219.606 131.398 227.034C135.705 238.316 136.767 250.212 138.613 261.606C141.634 280.26 146.332 298.076 147.898 316.563C149.632 338.345 149.744 366.382 172.117 378.278Z" stroke="url(#paint31_linear)" stroke-miterlimit="10"/>
<path d="M176.032 376.268C189.288 383.305 204.446 383.696 218.485 380.122C250.255 372.135 280.85 359.345 312.899 354.374C325.875 352.364 338.852 351.302 351.94 348.175C377.277 342.143 400.825 325.332 417.549 304.164C428.176 290.704 438.747 277.3 443.334 262.667C449.822 242.002 449.262 220.276 435.223 200.282C424.428 184.867 408.823 172.412 393.498 160.851C362.176 137.17 325.819 120.694 293.882 98.2421C283.087 90.6464 272.628 82.548 260.994 77.0746C244.102 69.0879 224.582 67.3007 205.788 70.4284C194.49 72.3273 183.415 75.79 173.851 80.5374C157.071 88.8033 143.983 98.3538 131.622 108.351C129.44 116.114 127.986 123.878 126.979 131.641C119.317 146.274 113.779 162.526 117.247 185.258C118.478 193.189 120.994 200.784 124.071 208.045C127.371 215.864 132.013 222.399 134.922 229.715C139.284 240.662 140.459 252.223 142.417 263.281C145.661 281.489 150.751 298.691 152.429 316.787C154.498 337.842 154.498 364.874 176.032 376.268Z" stroke="url(#paint32_linear)" stroke-miterlimit="10"/>
<path d="M180.003 374.313C193.036 381.239 207.858 381.574 221.617 377.999C252.156 370.013 281.577 357.949 312.34 352.922C324.869 350.911 337.453 349.683 350.038 346.611C374.537 340.579 397.301 324.159 413.634 303.718C424.205 290.481 434.832 277.356 439.642 262.946C446.41 242.673 446.634 221.058 432.874 201.119C422.415 185.984 407.201 173.753 392.267 162.471C361.393 139.069 325.372 122.928 293.938 100.644C283.255 93.048 273.019 85.0055 261.497 79.4762C244.605 71.322 225.085 69.3672 206.236 72.5507C195.049 74.4497 184.086 77.9683 174.634 82.7714C158.246 91.1491 145.661 100.811 133.803 110.864C131.734 118.851 131.734 127.061 129.496 134.713C124.91 150.574 117.191 166.045 120.771 188.609C122.001 196.428 124.518 204.024 127.595 211.228C130.895 218.936 135.649 225.359 138.613 232.563C143.032 243.175 144.262 254.457 146.332 265.125C149.8 282.829 155.281 299.529 157.127 317.178C159.308 337.396 159.252 363.31 180.003 374.313Z" stroke="url(#paint33_linear)" stroke-miterlimit="10"/>
<path d="M183.919 372.358C196.727 379.172 211.214 379.507 224.749 375.821C254.002 367.946 282.304 356.441 311.78 351.47C323.862 349.404 335.999 348.119 348.192 344.991C371.852 338.96 393.889 322.986 409.83 303.215C420.345 290.146 431.029 277.356 436.062 263.226C443.166 243.287 444.061 221.84 430.581 201.957C420.513 187.101 405.635 175.149 391.037 164.09C360.554 140.968 324.925 125.162 293.938 103.045C283.367 95.5056 273.299 87.4631 261.944 81.8222C245.109 73.5004 225.532 71.378 206.683 74.6174C195.609 76.5163 184.758 80.0349 175.473 84.9498C159.476 93.3833 147.395 103.213 136.096 113.378C134.139 121.532 134.195 129.91 132.125 137.841C127.93 153.814 120.771 169.564 124.406 192.016C125.637 199.779 128.154 207.319 131.23 214.412C134.586 222.064 139.34 228.319 142.417 235.412C146.835 245.689 148.178 256.635 150.415 267.024C154.107 284.282 159.924 300.422 161.993 317.625C164.174 336.893 164.007 361.803 183.919 372.358Z" stroke="url(#paint34_linear)" stroke-miterlimit="10"/>
<path d="M187.834 370.348C200.419 377.05 214.57 377.329 227.826 373.643C255.792 365.824 282.975 354.933 311.221 349.962C322.911 347.896 334.545 346.444 346.291 343.316C369.111 337.284 390.365 321.702 405.915 302.657C416.374 289.811 427.057 277.3 432.315 263.449C439.754 243.901 441.376 222.622 428.176 202.739C418.5 188.162 403.957 176.434 389.75 165.598C359.714 142.7 324.421 127.285 293.882 105.335C283.478 97.8513 273.522 89.753 262.336 84.112C245.556 75.6785 225.924 73.3886 207.019 76.628C196.056 78.5269 185.317 82.1014 176.2 87.0721C160.595 95.5615 149.017 105.559 138.222 115.779C136.32 124.157 136.488 132.702 134.586 140.857C130.783 156.997 124.127 172.971 127.818 195.367C129.105 203.074 131.51 210.558 134.698 217.596C138.054 225.135 142.92 231.279 146.052 238.26C150.527 248.202 151.981 258.814 154.274 268.867C158.19 285.622 164.398 301.26 166.579 318.015C168.985 336.39 168.761 360.239 187.834 370.348Z" stroke="url(#paint35_linear)" stroke-miterlimit="10"/>
<path d="M191.749 368.392C204.054 374.983 217.926 375.262 230.958 371.464C257.638 363.701 283.702 353.48 310.662 348.454C321.904 346.387 333.091 344.767 344.389 341.64C366.37 335.552 386.898 320.472 402 302.097C412.403 289.419 423.142 277.244 428.623 263.672C436.342 244.515 438.691 223.348 425.771 203.521C416.43 189.223 402.223 177.717 388.408 167.162C358.764 144.542 323.862 129.406 293.826 107.625C283.534 100.141 273.746 92.098 262.727 86.4013C246.004 77.7444 226.315 75.3428 207.354 78.638C196.503 80.5369 185.876 84.1114 176.927 89.1938C161.657 97.7948 150.639 107.848 140.347 118.18C138.557 126.726 138.781 135.494 137.047 143.816C133.635 160.069 127.539 176.321 131.286 198.606C132.573 206.257 134.978 213.685 138.166 220.667C141.578 228.151 146.5 234.127 149.688 241.052C154.162 250.659 155.729 260.991 158.19 270.709C162.329 287.018 168.929 302.041 171.278 318.406C173.795 335.943 173.515 358.73 191.749 368.392Z" stroke="url(#paint36_linear)" stroke-miterlimit="10"/>
<path d="M195.72 366.438C207.802 372.861 221.338 373.196 234.09 369.342C259.539 361.691 284.429 352.029 310.102 347.002C320.897 344.88 331.636 343.148 342.487 340.021C363.63 333.933 383.374 319.244 398.084 301.595C408.432 289.141 419.227 277.244 424.932 263.952C432.986 245.186 436.007 224.186 423.366 204.359C414.417 190.34 400.545 179.114 387.066 168.782C357.869 146.442 323.247 131.641 293.714 110.027C283.534 102.599 273.914 94.5002 263.063 88.8034C246.395 79.979 226.651 77.4657 207.69 80.7609C196.951 82.6598 186.436 86.2343 177.598 91.3726C162.72 100.029 152.261 110.25 142.473 120.638C140.739 129.407 141.074 138.287 139.508 146.888C136.432 163.309 130.895 179.84 134.754 201.957C136.04 209.553 138.445 216.925 141.634 223.795C145.046 231.167 150.079 237.032 153.379 243.845C157.854 253.117 159.532 263.114 162.105 272.497C166.468 288.303 170.607 303.55 175.976 318.686C175.529 335.664 178.269 357.167 195.72 366.438Z" stroke="url(#paint37_linear)" stroke-miterlimit="10"/>
<path d="M199.636 364.483C211.493 370.794 224.693 371.073 237.222 367.164C261.385 359.624 285.156 350.52 309.543 345.494C319.89 343.371 330.182 341.472 340.641 338.4C360.945 332.313 379.962 318.071 394.281 301.092C404.572 288.861 415.423 277.244 421.296 264.231C429.63 245.8 433.434 224.967 421.072 205.196C412.459 191.457 398.979 180.454 385.891 170.401C357.086 148.284 322.855 133.875 293.826 112.428C283.814 105 274.361 96.9571 263.622 91.1486C246.955 82.1567 227.154 79.4758 208.193 82.8269C197.566 84.7258 187.163 88.3561 178.493 93.5502C164.007 102.263 154.051 112.651 144.766 123.151C143.144 132.087 143.535 141.191 142.137 150.015C139.396 166.603 134.418 183.358 138.334 205.42C139.676 212.904 142.025 220.276 145.213 227.09C148.681 234.406 153.715 240.103 157.127 246.805C161.657 255.741 163.447 265.403 166.132 274.451C170.718 289.81 175.193 304.555 180.73 319.188C180.339 335.217 183.024 355.658 199.636 364.483Z" stroke="url(#paint38_linear)" stroke-miterlimit="10"/>
<path d="M203.551 362.473C215.185 368.672 228.049 368.951 240.299 364.986C263.231 357.558 285.828 349.012 308.928 343.986C318.884 341.808 328.672 339.853 338.684 336.725C358.148 330.638 376.438 316.842 390.31 300.534C400.601 288.47 411.396 277.188 417.549 264.454C426.218 246.414 430.693 225.694 418.611 205.978C410.389 192.518 397.245 181.739 384.493 171.909C356.135 150.072 322.24 135.997 293.658 114.718C283.758 107.346 274.473 99.2473 263.902 93.4388C247.29 84.2793 227.434 81.4309 208.417 84.8378C197.902 86.7367 187.61 90.367 179.108 95.6729C165.013 104.441 155.561 114.997 146.779 125.553C145.269 134.713 145.717 143.984 144.486 152.976C142.137 169.731 137.662 186.71 141.69 208.659C143.032 216.087 145.325 223.404 148.569 230.106C152.037 237.311 157.183 242.896 160.651 249.486C165.181 258.087 167.083 267.47 169.935 276.183C174.746 291.095 179.5 305.281 185.317 319.467C185.149 334.77 187.778 354.095 203.551 362.473Z" stroke="url(#paint39_linear)" stroke-miterlimit="10"/>
<path d="M207.466 360.518C218.876 366.606 231.405 366.885 243.375 362.864C265.021 355.603 286.499 347.616 308.313 342.534C317.821 340.356 327.162 338.233 336.726 335.106C355.352 329.018 372.859 315.67 386.338 300.031C396.574 288.191 407.425 277.188 413.801 264.678C422.806 247.029 427.952 226.476 416.15 206.76C408.264 193.58 395.511 183.024 383.15 173.473C355.184 151.915 321.68 138.175 293.602 117.064C283.814 109.692 274.697 101.649 264.294 95.7846C247.738 86.4575 227.826 83.4975 208.809 86.9044C198.405 88.8033 188.225 92.4336 179.891 97.8511C166.188 106.731 157.239 117.399 149.017 128.011C147.562 137.394 148.122 146.777 147.059 156.048C145.045 172.971 141.186 190.173 145.269 212.01C146.668 219.383 148.905 226.643 152.205 233.29C155.729 240.438 160.93 245.856 164.454 252.335C168.985 260.601 171.054 269.648 173.963 278.026C178.997 292.436 184.086 306.175 190.127 319.858C189.959 334.268 192.532 352.587 207.466 360.518Z" stroke="url(#paint40_linear)" stroke-miterlimit="10"/>
<path d="M211.382 358.563C222.568 364.539 234.705 364.819 246.507 360.686C266.867 353.537 287.226 346.109 307.753 341.026C316.814 338.792 325.708 336.558 334.825 333.431C352.667 327.287 369.391 314.441 382.423 299.473C392.603 287.8 403.51 277.133 410.054 264.901C419.339 247.644 425.212 227.258 413.745 207.543C406.25 194.641 393.833 184.365 381.808 175.037C354.289 153.702 321.121 140.354 293.49 119.41C283.87 112.093 274.865 103.995 264.629 98.1307C248.129 88.6361 228.161 85.5084 209.088 88.9712C198.797 90.8701 188.729 94.5563 180.507 100.03C167.195 108.966 158.749 119.801 151.03 130.468C149.688 140.019 150.303 149.625 149.352 159.064C147.674 176.154 144.374 193.636 148.513 215.362C149.912 222.678 152.149 229.883 155.449 236.418C158.973 243.455 164.23 248.816 167.866 255.183C172.397 263.114 174.578 271.883 177.654 279.87C182.968 293.832 188.281 307.069 194.546 320.25C194.77 333.821 197.287 351.024 211.382 358.563Z" stroke="url(#paint41_linear)" stroke-miterlimit="10"/>
<path d="M215.353 356.553C226.315 362.417 238.117 362.696 249.639 358.507C268.768 351.526 287.953 344.545 307.25 339.574C315.863 337.34 324.309 334.938 333.035 331.811C350.038 325.667 366.035 313.212 378.676 298.97C388.799 287.521 399.762 277.133 406.53 265.181C416.15 248.258 422.695 228.04 411.508 208.38C404.349 195.814 392.323 185.705 380.633 176.657C353.506 155.601 320.674 142.588 293.546 121.756C284.038 114.495 275.256 106.397 265.133 100.476C248.688 90.8141 228.665 87.5189 209.592 91.0375C199.412 92.9365 189.4 96.6226 181.402 102.208C168.481 111.2 160.539 122.202 153.379 132.982C152.149 142.755 152.82 152.529 152.037 162.192C150.695 179.505 147.954 197.154 152.205 218.768C153.603 226.029 155.84 233.178 159.14 239.657C162.72 246.638 168.034 251.832 171.725 258.088C176.312 265.739 178.605 274.117 181.737 281.824C187.275 295.284 192.924 308.074 199.412 320.752C199.58 333.375 202.041 349.515 215.353 356.553Z" stroke="url(#paint42_linear)" stroke-miterlimit="10"/>
<path d="M219.268 354.598C230.007 360.294 241.473 360.63 252.771 356.329C270.67 349.515 288.68 343.036 306.69 338.066C314.912 335.776 322.855 333.318 331.133 330.135C347.297 323.991 362.567 311.983 374.76 298.412C384.828 287.186 395.847 277.077 402.838 265.404C412.794 248.872 420.01 228.821 409.159 209.162C402.335 196.875 390.701 186.989 379.403 178.165C352.723 157.332 320.226 144.654 293.602 124.045C284.206 116.785 275.592 108.686 265.636 102.71C249.248 92.8246 229.168 89.4735 210.039 92.9921C199.971 94.891 190.071 98.5772 182.241 104.274C169.712 113.322 162.273 124.436 155.617 135.327C154.442 145.269 155.169 155.266 154.61 165.151C153.603 182.633 151.478 200.505 155.729 222.008C157.183 229.212 159.308 236.305 162.664 242.672C166.244 249.542 171.613 254.625 175.417 260.768C180.003 268.085 182.408 276.127 185.708 283.499C191.469 296.513 197.398 308.8 204.166 320.975C204.39 332.927 206.795 347.951 219.268 354.598Z" stroke="url(#paint43_linear)" stroke-miterlimit="10"/>
<path d="M223.183 352.643C233.698 358.228 244.829 358.563 255.848 354.207C272.46 347.617 289.351 341.585 306.075 336.614C313.85 334.324 321.345 331.699 329.175 328.571C344.501 322.428 359.043 310.867 370.789 297.965C380.857 286.963 391.82 277.133 399.035 265.739C409.327 249.598 417.213 229.715 406.642 210.056C400.21 198.048 388.911 188.386 377.948 179.841C351.66 159.287 319.555 146.944 293.378 126.503C284.15 119.298 275.648 111.2 265.86 105.168C249.527 95.1147 229.336 91.5961 210.207 95.1706C200.251 97.0695 190.463 100.756 182.8 106.508C170.607 115.612 163.783 126.894 157.574 137.841C156.512 148.006 157.295 158.17 156.903 168.224C156.288 185.928 154.666 203.968 159.029 225.415C160.483 232.508 162.608 239.601 165.964 245.912C169.6 252.726 174.969 257.641 178.941 263.673C183.527 270.654 186.1 278.417 189.456 285.455C195.497 297.965 201.705 309.75 208.697 321.478C209.2 332.481 211.549 346.444 223.183 352.643Z" stroke="url(#paint44_linear)" stroke-miterlimit="10"/>
<path d="M227.099 350.632C237.39 356.105 249.136 358.283 258.924 351.972C275.2 348.398 290.023 339.964 305.46 335.049C312.787 332.704 319.835 329.967 327.274 326.839C341.76 320.696 355.575 309.581 366.874 297.35C376.886 286.571 387.904 277.02 395.344 265.906C405.971 250.156 414.472 230.385 404.237 210.781C398.14 199.108 387.233 189.67 376.662 181.348C350.821 161.018 319.052 149.066 293.379 128.792C284.262 121.587 275.928 113.489 266.307 107.457C250.031 97.2364 229.783 93.5502 210.654 97.1805C200.754 99.0795 191.134 102.821 183.583 108.63C171.781 117.79 165.461 129.239 159.812 140.242C158.861 150.63 159.644 160.962 159.476 171.239C159.196 189.111 158.134 207.43 162.608 228.709C164.063 235.747 166.188 242.784 169.6 249.039C173.235 255.741 178.717 260.6 182.744 266.465C187.275 273.111 190.071 280.539 193.539 287.241C199.803 299.305 206.292 310.587 213.507 321.757C213.954 332.033 216.304 344.879 227.099 350.632Z" stroke="url(#paint45_linear)" stroke-miterlimit="10"/>
<path d="M231.014 348.677C241.082 354.039 252.492 356.217 262.056 349.85C277.102 346.387 290.75 338.457 304.901 333.598C311.836 331.196 318.38 328.348 325.372 325.22C339.02 319.02 352.108 308.409 363.015 296.848C372.971 286.236 384.045 277.021 391.708 266.186C402.615 250.827 411.844 231.223 401.944 211.619C396.183 200.226 385.667 191.01 375.432 182.968C349.982 162.917 318.604 151.3 293.379 131.194C284.373 124.045 276.263 115.947 266.755 109.859C250.534 99.4148 230.231 95.6728 211.046 99.3031C201.258 101.202 191.749 104.944 184.366 110.864C172.956 120.08 165.125 130.971 161.993 142.811C159.308 153.087 161.993 163.923 161.993 174.423C161.993 192.518 161.546 211.005 166.076 232.172C167.586 239.154 169.656 246.079 173.068 252.279C176.703 258.925 182.241 263.616 186.38 269.425C190.91 275.792 193.819 282.829 197.454 289.196C203.998 300.757 210.766 311.592 218.205 322.26C218.765 331.587 221.002 343.371 231.014 348.677Z" stroke="url(#paint46_linear)" stroke-miterlimit="10"/>
<path d="M234.985 346.723C244.773 351.973 255.96 354.207 265.189 347.672C278.948 344.265 291.477 336.893 304.341 332.09C310.83 329.688 316.982 326.728 323.47 323.545C336.279 317.345 348.64 307.18 359.099 296.29C369.055 285.901 380.13 276.965 387.96 266.353C399.203 251.33 409.047 231.949 399.483 212.346C394.057 201.231 383.933 192.239 374.033 184.42C349.031 164.649 317.989 153.367 293.211 133.428C284.373 126.279 276.375 118.181 267.034 112.037C250.87 101.426 230.51 97.5162 211.326 101.202C201.649 103.101 192.197 106.843 185.037 112.875C174.019 122.146 166.859 133.317 164.063 145.101C161.546 155.601 164.174 166.604 164.398 177.271C164.734 195.59 164.902 214.245 169.488 235.3C170.998 242.226 173.012 249.096 176.48 255.239C180.171 261.774 185.708 266.353 189.959 272.05C194.49 278.082 197.566 284.784 201.258 290.872C208.026 301.93 215.073 312.319 222.792 322.484C223.575 331.14 225.756 341.808 234.985 346.723Z" stroke="url(#paint47_linear)" stroke-miterlimit="10"/>
<path d="M238.9 344.712C248.465 349.85 259.372 352.084 268.321 345.493C280.85 342.142 292.204 335.329 303.838 330.581C309.935 328.124 315.584 325.052 321.624 321.868C333.594 315.669 345.228 306.007 355.24 295.73C365.14 285.565 376.215 276.909 384.325 266.576C395.847 251.943 406.418 232.73 397.133 213.183C392.043 202.403 382.311 193.579 372.803 186.039C348.248 166.491 317.485 155.545 293.267 135.829C284.541 128.736 276.711 120.638 267.538 114.438C251.429 103.659 231.014 99.582 211.773 103.38C202.209 105.223 192.868 109.021 185.82 115.164C175.137 124.491 168.761 135.941 166.3 147.67C164.063 158.449 166.579 169.563 166.971 180.454C167.642 198.997 168.369 217.818 173.068 238.818C174.578 245.688 176.591 252.502 180.059 258.534C183.751 265.012 189.344 269.48 193.707 275.01C198.237 280.762 201.481 287.129 205.285 292.826C212.332 303.438 219.659 313.323 227.546 322.986C228.385 330.637 230.51 340.299 238.9 344.712Z" stroke="url(#paint48_linear)" stroke-miterlimit="10"/>
<path d="M242.816 342.757C252.156 347.728 262.728 350.017 271.397 343.315C282.695 340.02 292.875 333.709 303.223 329.073C308.872 326.56 314.074 323.377 319.723 320.193C330.853 313.994 341.76 304.778 351.325 295.172C361.225 285.23 372.299 276.853 380.633 266.8C392.491 252.558 403.678 233.513 394.784 213.965C390.03 203.465 380.689 194.864 371.516 187.603C347.354 168.335 316.982 157.723 293.211 138.119C284.597 131.026 276.99 122.928 267.929 116.728C251.933 105.726 231.349 101.537 212.109 105.391C202.656 107.234 193.427 111.032 186.547 117.287C176.256 126.67 170.551 138.398 168.425 150.071C166.412 161.074 168.817 172.356 169.432 183.47C170.439 202.236 171.725 221.281 176.48 242.114C178.046 248.872 180.003 255.685 183.471 261.661C187.219 268.028 192.812 272.441 197.287 277.802C201.817 283.22 205.173 289.252 209.088 294.613C216.415 304.722 224.022 314.105 232.132 323.321C233.195 330.19 235.265 338.736 242.816 342.757Z" stroke="url(#paint49_linear)" stroke-miterlimit="10"/>
<path d="M246.731 340.802C255.848 345.661 266.139 347.951 274.529 341.193C284.541 337.954 293.602 332.145 302.663 327.677C307.865 325.052 312.619 321.813 317.821 318.685C328.113 312.43 338.292 303.717 347.465 294.781C357.309 285.119 368.44 276.965 376.942 267.191C389.135 253.34 400.881 234.462 392.379 214.914C387.96 204.694 379.011 196.372 370.23 189.279C346.514 170.234 316.479 160.013 293.211 140.577C284.765 133.54 277.27 125.385 268.377 119.186C252.436 108.016 231.797 103.715 212.556 107.569C203.215 109.412 194.042 113.21 187.386 119.521C177.43 128.96 172.508 140.968 170.719 152.641C168.985 163.867 171.222 175.316 172.061 186.598C173.403 205.587 175.249 224.8 180.115 245.521C181.681 252.223 183.639 258.981 187.163 264.845C190.91 271.156 196.559 275.401 201.202 280.651C205.676 285.789 209.256 291.43 213.283 296.512C220.89 306.119 228.721 315.055 237.11 323.768C238.005 329.744 240.019 337.228 246.731 340.802Z" stroke="url(#paint50_linear)" stroke-miterlimit="10"/>
<path d="M250.646 338.792C259.539 343.539 269.495 345.885 277.606 339.015C286.387 335.888 294.273 330.47 302.048 326.17C306.858 323.489 311.109 320.138 315.863 317.01C325.316 310.755 334.825 302.545 343.494 294.223C353.338 284.784 364.413 276.909 373.194 267.415C385.667 253.899 398.084 235.244 389.974 215.697C385.835 205.811 377.333 197.657 368.887 190.843C345.62 172.021 315.919 162.192 293.099 142.923C284.765 135.886 277.494 127.787 268.712 121.476C252.827 110.083 232.132 105.67 212.836 109.58C203.607 111.423 194.546 115.221 188.058 121.644C178.493 131.083 174.298 143.37 172.788 155.043C171.334 166.548 173.459 178.109 174.466 189.614C176.144 208.883 178.605 228.207 183.527 248.872C185.093 255.518 186.995 262.22 190.575 268.029C194.378 274.228 200.027 278.417 204.781 283.5C209.256 288.359 213.003 293.609 217.087 298.356C224.973 307.46 233.083 315.949 241.641 324.159C242.816 329.297 244.773 335.664 250.646 338.792Z" stroke="url(#paint51_linear)" stroke-miterlimit="10"/>
<path d="M254.617 336.836C263.287 341.472 271.9 342.365 280.738 336.836C287.673 332.536 294.945 328.794 301.489 324.661C305.852 321.868 309.655 318.517 313.962 315.334C322.575 309.078 331.357 301.315 339.579 293.663C349.423 284.448 360.498 276.852 369.503 267.637C382.311 254.512 395.344 236.025 387.569 216.478C383.765 206.871 375.655 198.94 367.601 192.406C344.725 173.863 315.472 164.313 293.099 145.268C284.933 138.286 277.773 130.132 269.16 123.821C253.387 112.26 232.58 107.68 213.227 111.645C204.11 113.489 195.105 117.342 188.785 123.821C179.556 133.316 176.088 145.826 174.913 157.499C173.739 169.228 175.697 181.012 176.927 192.685C178.941 212.177 181.905 231.725 186.939 252.222C188.505 258.812 190.407 265.459 193.986 271.211C197.79 277.299 203.495 281.432 208.361 286.403C212.836 290.983 216.751 295.842 220.946 300.254C229.056 308.855 237.446 316.897 246.283 324.549C247.626 328.849 249.527 334.155 254.617 336.836Z" stroke="url(#paint52_linear)" stroke-miterlimit="10"/>
<path d="M258.533 334.883C266.978 339.407 275.312 340.524 283.87 334.715C289.631 330.75 295.616 327.175 300.929 323.21C304.845 320.306 308.201 316.899 312.116 313.715C319.891 307.404 327.945 300.199 335.719 293.162C345.564 284.226 356.638 276.854 365.811 267.917C378.899 255.183 392.547 236.92 385.164 217.317C381.696 207.989 373.977 200.282 366.259 194.027C343.83 175.708 314.857 166.548 292.987 147.67C284.933 140.689 277.997 132.535 269.495 126.224C253.778 114.439 232.86 109.748 213.563 113.769C204.558 115.612 195.664 119.466 189.512 126.056C180.619 135.607 177.934 148.341 177.095 160.014C176.2 171.966 177.99 183.918 179.388 195.758C181.737 215.473 185.317 235.189 190.407 255.574C192.029 262.109 193.875 268.699 197.454 274.34C201.314 280.372 207.019 284.393 211.997 289.197C216.471 293.497 220.554 297.965 224.861 302.098C233.251 310.197 241.921 317.736 250.982 324.941C252.38 328.404 254.282 332.593 258.533 334.883Z" stroke="url(#paint53_linear)" stroke-miterlimit="10"/>
<path d="M262.448 332.872C270.67 337.284 278.892 338.681 286.946 332.481C291.589 328.907 296.175 325.332 300.314 321.646C303.726 318.574 306.69 315.167 310.158 311.984C317.094 305.673 324.477 298.915 331.804 292.548C341.704 283.891 352.723 276.742 362.12 268.029C375.543 255.686 389.694 237.59 382.815 217.987C379.626 208.995 372.355 201.455 364.972 195.423C342.991 177.327 314.353 168.503 292.931 149.849C285.045 142.923 278.221 134.769 269.943 128.402C254.282 116.394 233.307 111.591 213.954 115.668C205.061 117.511 196.224 121.365 190.295 128.067C181.793 137.673 179.836 150.575 179.276 162.359C178.661 174.535 180.339 186.654 181.905 198.718C184.59 218.713 188.729 238.54 193.931 258.87C195.553 265.348 197.398 271.883 200.978 277.468C204.837 283.388 210.598 287.354 215.688 291.989C220.107 296.011 224.414 300.088 228.776 303.885C237.446 311.425 246.339 318.574 255.624 325.276C257.19 327.957 259.036 331.085 262.448 332.872Z" stroke="url(#paint54_linear)" stroke-miterlimit="10"/>
<path d="M266.363 330.917C274.361 335.162 282.528 337.005 290.078 330.359C293.658 327.175 296.79 323.656 299.811 320.194C302.663 316.954 305.292 313.547 308.313 310.364C314.409 303.997 321.065 297.798 327.945 292.045C337.845 283.667 348.808 276.742 358.484 268.308C372.243 256.3 386.954 238.428 380.465 218.824C377.613 210.112 370.733 202.795 363.742 197.043C342.208 179.17 313.906 170.737 292.987 152.25C285.212 145.325 278.612 137.17 270.446 130.803C254.897 118.628 233.81 113.713 214.458 117.79C205.676 119.633 196.951 123.487 191.19 130.301C183.024 139.963 181.849 153.088 181.569 164.872C181.29 177.271 182.744 189.614 184.534 201.846C187.554 222.12 192.253 242.114 197.51 262.276C199.188 268.643 200.922 275.178 204.614 280.651C208.529 286.516 214.234 290.425 219.492 294.837C223.91 298.579 228.329 302.266 232.86 305.784C241.809 312.821 251.933 318.295 260.49 325.723C262.224 327.231 263.79 329.577 266.363 330.917Z" stroke="url(#paint55_linear)" stroke-miterlimit="10"/>
<path d="M270.278 328.962C278.053 333.095 286.499 335.553 293.155 328.18C295.728 325.388 297.182 321.925 299.195 318.686C301.377 315.223 303.782 311.872 306.355 308.744C311.613 302.377 317.597 296.68 323.974 291.542C333.93 283.5 344.836 276.742 354.681 268.587C368.72 256.971 383.989 239.266 377.948 219.662C375.376 211.229 368.943 204.191 362.287 198.662C341.145 181.069 313.235 172.971 292.763 154.596C285.1 147.726 278.668 139.516 270.67 133.093C255.177 120.694 234.034 115.668 214.626 119.801C205.956 121.644 197.286 125.498 191.693 132.423C183.863 142.141 183.471 155.378 183.527 167.274C183.583 179.84 184.813 192.407 186.827 204.806C190.127 225.303 195.497 245.465 200.81 265.516C202.488 271.827 204.222 278.306 207.914 283.723C211.829 289.476 217.59 293.329 222.959 297.574C227.378 301.037 231.965 304.276 236.551 307.516C245.78 313.994 255.177 320.305 264.965 326.002C266.811 327.008 268.544 328.013 270.278 328.962Z" stroke="url(#paint56_linear)" stroke-miterlimit="10"/>
<defs>
<linearGradient id="paint0_linear" x1="281.5" y1="1" x2="281.5" y2="450.321" gradientUnits="userSpaceOnUse">
<stop stop-color="#5C4CC0"/>
<stop offset="0.515625" stop-color="#FCE588"/>
<stop offset="1" stop-color="#F3F5FF"/>
</linearGradient>
<linearGradient id="paint1_linear" x1="281.993" y1="3.20801" x2="281.993" y2="448.131" gradientUnits="userSpaceOnUse">
<stop stop-color="#5C4CC0"/>
<stop offset="0.515625" stop-color="#FCE588"/>
<stop offset="1" stop-color="#F3F5FF"/>
</linearGradient>
<linearGradient id="paint2_linear" x1="282.557" y1="5.42187" x2="282.557" y2="446.019" gradientUnits="userSpaceOnUse">
<stop stop-color="#5C4CC0"/>
<stop offset="0.515625" stop-color="#FCE588"/>
<stop offset="1" stop-color="#F3F5FF"/>
</linearGradient>
<linearGradient id="paint3_linear" x1="283.069" y1="7.62891" x2="283.069" y2="443.932" gradientUnits="userSpaceOnUse">
<stop stop-color="#5C4CC0"/>
<stop offset="0.515625" stop-color="#FCE588"/>
<stop offset="1" stop-color="#F3F5FF"/>
</linearGradient>
<linearGradient id="paint4_linear" x1="283.364" y1="9.84375" x2="283.364" y2="441.745" gradientUnits="userSpaceOnUse">
<stop stop-color="#5C4CC0"/>
<stop offset="0.515625" stop-color="#FCE588"/>
<stop offset="1" stop-color="#F3F5FF"/>
</linearGradient>
<linearGradient id="paint5_linear" x1="283.221" y1="11.9824" x2="283.221" y2="439.635" gradientUnits="userSpaceOnUse">
<stop stop-color="#5C4CC0"/>
<stop offset="0.515625" stop-color="#FCE588"/>
<stop offset="1" stop-color="#F3F5FF"/>
</linearGradient>
<linearGradient id="paint6_linear" x1="283" y1="14.1045" x2="283" y2="437.519" gradientUnits="userSpaceOnUse">
<stop stop-color="#5C4CC0"/>
<stop offset="0.515625" stop-color="#FCE588"/>
<stop offset="1" stop-color="#F3F5FF"/>
</linearGradient>
<linearGradient id="paint7_linear" x1="282.947" y1="16.3574" x2="282.947" y2="435.354" gradientUnits="userSpaceOnUse">
<stop stop-color="#5C4CC0"/>
<stop offset="0.515625" stop-color="#FCE588"/>
<stop offset="1" stop-color="#F3F5FF"/>
</linearGradient>
<linearGradient id="paint8_linear" x1="282.844" y1="18.3643" x2="282.844" y2="433.225" gradientUnits="userSpaceOnUse">
<stop stop-color="#5C4CC0"/>
<stop offset="0.515625" stop-color="#FCE588"/>
<stop offset="1" stop-color="#F3F5FF"/>
</linearGradient>
<linearGradient id="paint9_linear" x1="282.721" y1="20.6426" x2="282.721" y2="431.116" gradientUnits="userSpaceOnUse">
<stop stop-color="#5C4CC0"/>
<stop offset="0.515625" stop-color="#FCE588"/>
<stop offset="1" stop-color="#F3F5FF"/>
</linearGradient>
<linearGradient id="paint10_linear" x1="282.594" y1="22.8057" x2="282.594" y2="428.959" gradientUnits="userSpaceOnUse">
<stop stop-color="#5C4CC0"/>
<stop offset="0.515625" stop-color="#FCE588"/>
<stop offset="1" stop-color="#F3F5FF"/>
</linearGradient>
<linearGradient id="paint11_linear" x1="282.473" y1="24.9805" x2="282.473" y2="426.851" gradientUnits="userSpaceOnUse">
<stop stop-color="#5C4CC0"/>
<stop offset="0.515625" stop-color="#FCE588"/>
<stop offset="1" stop-color="#F3F5FF"/>
</linearGradient>
<linearGradient id="paint12_linear" x1="282.384" y1="27.0518" x2="282.384" y2="424.714" gradientUnits="userSpaceOnUse">
<stop stop-color="#5C4CC0"/>
<stop offset="0.515625" stop-color="#FCE588"/>
<stop offset="1" stop-color="#F3F5FF"/>
</linearGradient>
<linearGradient id="paint13_linear" x1="282.301" y1="29.2168" x2="282.301" y2="422.577" gradientUnits="userSpaceOnUse">
<stop stop-color="#5C4CC0"/>
<stop offset="0.515625" stop-color="#FCE588"/>
<stop offset="1" stop-color="#F3F5FF"/>
</linearGradient>
<linearGradient id="paint14_linear" x1="282.16" y1="31.2236" x2="282.16" y2="420.453" gradientUnits="userSpaceOnUse">
<stop stop-color="#5C4CC0"/>
<stop offset="0.515625" stop-color="#FCE588"/>
<stop offset="1" stop-color="#F3F5FF"/>
</linearGradient>
<linearGradient id="paint15_linear" x1="282.156" y1="33.4912" x2="282.156" y2="418.348" gradientUnits="userSpaceOnUse">
<stop stop-color="#5C4CC0"/>
<stop offset="0.515625" stop-color="#FCE588"/>
<stop offset="1" stop-color="#F3F5FF"/>
</linearGradient>
<linearGradient id="paint16_linear" x1="281.976" y1="35.5996" x2="281.976" y2="416.211" gradientUnits="userSpaceOnUse">
<stop stop-color="#5C4CC0"/>
<stop offset="0.515625" stop-color="#FCE588"/>
<stop offset="1" stop-color="#F3F5FF"/>
</linearGradient>
<linearGradient id="paint17_linear" x1="281.826" y1="37.6904" x2="281.826" y2="414.089" gradientUnits="userSpaceOnUse">
<stop stop-color="#5C4CC0"/>
<stop offset="0.515625" stop-color="#FCE588"/>
<stop offset="1" stop-color="#F3F5FF"/>
</linearGradient>
<linearGradient id="paint18_linear" x1="281.799" y1="39.8477" x2="281.799" y2="411.973" gradientUnits="userSpaceOnUse">
<stop stop-color="#5C4CC0"/>
<stop offset="0.515625" stop-color="#FCE588"/>
<stop offset="1" stop-color="#F3F5FF"/>
</linearGradient>
<linearGradient id="paint19_linear" x1="281.74" y1="41.9316" x2="281.74" y2="409.822" gradientUnits="userSpaceOnUse">
<stop stop-color="#5C4CC0"/>
<stop offset="0.515625" stop-color="#FCE588"/>
<stop offset="1" stop-color="#F3F5FF"/>
</linearGradient>
<linearGradient id="paint20_linear" x1="281.625" y1="43.9697" x2="281.625" y2="407.719" gradientUnits="userSpaceOnUse">
<stop stop-color="#5C4CC0"/>
<stop offset="0.515625" stop-color="#FCE588"/>
<stop offset="1" stop-color="#F3F5FF"/>
</linearGradient>
<linearGradient id="paint21_linear" x1="281.647" y1="46.1025" x2="281.647" y2="405.626" gradientUnits="userSpaceOnUse">
<stop stop-color="#5C4CC0"/>
<stop offset="0.515625" stop-color="#FCE588"/>
<stop offset="1" stop-color="#F3F5FF"/>
</linearGradient>
<linearGradient id="paint22_linear" x1="281.584" y1="48.1914" x2="281.584" y2="403.524" gradientUnits="userSpaceOnUse">
<stop stop-color="#5C4CC0"/>
<stop offset="0.515625" stop-color="#FCE588"/>
<stop offset="1" stop-color="#F3F5FF"/>
</linearGradient>
<linearGradient id="paint23_linear" x1="281.529" y1="50.3018" x2="281.529" y2="401.351" gradientUnits="userSpaceOnUse">
<stop stop-color="#5C4CC0"/>
<stop offset="0.515625" stop-color="#FCE588"/>
<stop offset="1" stop-color="#F3F5FF"/>
</linearGradient>
<linearGradient id="paint24_linear" x1="281.555" y1="52.3447" x2="281.555" y2="399.261" gradientUnits="userSpaceOnUse">
<stop stop-color="#5C4CC0"/>
<stop offset="0.515625" stop-color="#FCE588"/>
<stop offset="1" stop-color="#F3F5FF"/>
</linearGradient>
<linearGradient id="paint25_linear" x1="281.478" y1="54.4512" x2="281.478" y2="397.146" gradientUnits="userSpaceOnUse">
<stop stop-color="#5C4CC0"/>
<stop offset="0.515625" stop-color="#FCE588"/>
<stop offset="1" stop-color="#F3F5FF"/>
</linearGradient>
<linearGradient id="paint26_linear" x1="281.48" y1="56.4766" x2="281.48" y2="395.016" gradientUnits="userSpaceOnUse">
<stop stop-color="#5C4CC0"/>
<stop offset="0.515625" stop-color="#FCE588"/>
<stop offset="1" stop-color="#F3F5FF"/>
</linearGradient>
<linearGradient id="paint27_linear" x1="281.479" y1="58.6787" x2="281.479" y2="392.916" gradientUnits="userSpaceOnUse">
<stop stop-color="#5C4CC0"/>
<stop offset="0.515625" stop-color="#FCE588"/>
<stop offset="1" stop-color="#F3F5FF"/>
</linearGradient>
<linearGradient id="paint28_linear" x1="281.624" y1="60.7412" x2="281.624" y2="390.828" gradientUnits="userSpaceOnUse">
<stop stop-color="#5C4CC0"/>
<stop offset="0.515625" stop-color="#FCE588"/>
<stop offset="1" stop-color="#F3F5FF"/>
</linearGradient>
<linearGradient id="paint29_linear" x1="281.573" y1="62.7617" x2="281.573" y2="388.675" gradientUnits="userSpaceOnUse">
<stop stop-color="#5C4CC0"/>
<stop offset="0.515625" stop-color="#FCE588"/>
<stop offset="1" stop-color="#F3F5FF"/>
</linearGradient>
<linearGradient id="paint30_linear" x1="281.699" y1="64.8047" x2="281.699" y2="386.573" gradientUnits="userSpaceOnUse">
<stop stop-color="#5C4CC0"/>
<stop offset="0.515625" stop-color="#FCE588"/>
<stop offset="1" stop-color="#F3F5FF"/>
</linearGradient>
<linearGradient id="paint31_linear" x1="281.779" y1="66.9893" x2="281.779" y2="384.476" gradientUnits="userSpaceOnUse">
<stop stop-color="#5C4CC0"/>
<stop offset="0.515625" stop-color="#FCE588"/>
<stop offset="1" stop-color="#F3F5FF"/>
</linearGradient>
<linearGradient id="paint32_linear" x1="281.759" y1="68.9746" x2="281.759" y2="382.336" gradientUnits="userSpaceOnUse">
<stop stop-color="#5C4CC0"/>
<stop offset="0.515625" stop-color="#FCE588"/>
<stop offset="1" stop-color="#F3F5FF"/>
</linearGradient>
<linearGradient id="paint33_linear" x1="282.004" y1="71.1016" x2="282.004" y2="380.24" gradientUnits="userSpaceOnUse">
<stop stop-color="#5C4CC0"/>
<stop offset="0.515625" stop-color="#FCE588"/>
<stop offset="1" stop-color="#F3F5FF"/>
</linearGradient>
<linearGradient id="paint34_linear" x1="282.273" y1="73.1719" x2="282.273" y2="378.158" gradientUnits="userSpaceOnUse">
<stop stop-color="#5C4CC0"/>
<stop offset="0.515625" stop-color="#FCE588"/>
<stop offset="1" stop-color="#F3F5FF"/>
</linearGradient>
<linearGradient id="paint35_linear" x1="282.376" y1="75.2197" x2="282.376" y2="376.008" gradientUnits="userSpaceOnUse">
<stop stop-color="#5C4CC0"/>
<stop offset="0.515625" stop-color="#FCE588"/>
<stop offset="1" stop-color="#F3F5FF"/>
</linearGradient>
<linearGradient id="paint36_linear" x1="282.523" y1="77.2217" x2="282.523" y2="373.926" gradientUnits="userSpaceOnUse">
<stop stop-color="#5C4CC0"/>
<stop offset="0.515625" stop-color="#FCE588"/>
<stop offset="1" stop-color="#F3F5FF"/>
</linearGradient>
<linearGradient id="paint37_linear" x1="282.677" y1="79.3701" x2="282.677" y2="371.841" gradientUnits="userSpaceOnUse">
<stop stop-color="#5C4CC0"/>
<stop offset="0.515625" stop-color="#FCE588"/>
<stop offset="1" stop-color="#F3F5FF"/>
</linearGradient>
<linearGradient id="paint38_linear" x1="282.945" y1="81.4365" x2="282.945" y2="369.737" gradientUnits="userSpaceOnUse">
<stop stop-color="#5C4CC0"/>
<stop offset="0.515625" stop-color="#FCE588"/>
<stop offset="1" stop-color="#F3F5FF"/>
</linearGradient>
<linearGradient id="paint39_linear" x1="283.034" y1="83.4473" x2="283.034" y2="367.613" gradientUnits="userSpaceOnUse">
<stop stop-color="#5C4CC0"/>
<stop offset="0.515625" stop-color="#FCE588"/>
<stop offset="1" stop-color="#F3F5FF"/>
</linearGradient>
<linearGradient id="paint40_linear" x1="283.246" y1="85.5371" x2="283.246" y2="365.546" gradientUnits="userSpaceOnUse">
<stop stop-color="#5C4CC0"/>
<stop offset="0.515625" stop-color="#FCE588"/>
<stop offset="1" stop-color="#F3F5FF"/>
</linearGradient>
<linearGradient id="paint41_linear" x1="283.294" y1="87.6025" x2="283.294" y2="363.469" gradientUnits="userSpaceOnUse">
<stop stop-color="#5C4CC0"/>
<stop offset="0.515625" stop-color="#FCE588"/>
<stop offset="1" stop-color="#F3F5FF"/>
</linearGradient>
<linearGradient id="paint42_linear" x1="283.654" y1="89.667" x2="283.654" y2="361.347" gradientUnits="userSpaceOnUse">
<stop stop-color="#5C4CC0"/>
<stop offset="0.515625" stop-color="#FCE588"/>
<stop offset="1" stop-color="#F3F5FF"/>
</linearGradient>
<linearGradient id="paint43_linear" x1="283.875" y1="91.6348" x2="283.875" y2="359.252" gradientUnits="userSpaceOnUse">
<stop stop-color="#5C4CC0"/>
<stop offset="0.515625" stop-color="#FCE588"/>
<stop offset="1" stop-color="#F3F5FF"/>
</linearGradient>
<linearGradient id="paint44_linear" x1="283.875" y1="93.8105" x2="283.875" y2="357.187" gradientUnits="userSpaceOnUse">
<stop stop-color="#5C4CC0"/>
<stop offset="0.515625" stop-color="#FCE588"/>
<stop offset="1" stop-color="#F3F5FF"/>
</linearGradient>
<linearGradient id="paint45_linear" x1="284.008" y1="95.8174" x2="284.008" y2="355.818" gradientUnits="userSpaceOnUse">
<stop stop-color="#5C4CC0"/>
<stop offset="0.515625" stop-color="#FCE588"/>
<stop offset="1" stop-color="#F3F5FF"/>
</linearGradient>
<linearGradient id="paint46_linear" x1="283.48" y1="97.9521" x2="283.48" y2="353.75" gradientUnits="userSpaceOnUse">
<stop stop-color="#5C4CC0"/>
<stop offset="0.515625" stop-color="#FCE588"/>
<stop offset="1" stop-color="#F3F5FF"/>
</linearGradient>
<linearGradient id="paint47_linear" x1="283.164" y1="99.8477" x2="283.164" y2="351.696" gradientUnits="userSpaceOnUse">
<stop stop-color="#5C4CC0"/>
<stop offset="0.515625" stop-color="#FCE588"/>
<stop offset="1" stop-color="#F3F5FF"/>
</linearGradient>
<linearGradient id="paint48_linear" x1="283.034" y1="101.989" x2="283.034" y2="349.572" gradientUnits="userSpaceOnUse">
<stop stop-color="#5C4CC0"/>
<stop offset="0.515625" stop-color="#FCE588"/>
<stop offset="1" stop-color="#F3F5FF"/>
</linearGradient>
<linearGradient id="paint49_linear" x1="282.815" y1="103.988" x2="282.815" y2="347.477" gradientUnits="userSpaceOnUse">
<stop stop-color="#5C4CC0"/>
<stop offset="0.515625" stop-color="#FCE588"/>
<stop offset="1" stop-color="#F3F5FF"/>
</linearGradient>
<linearGradient id="paint50_linear" x1="282.676" y1="106.186" x2="282.676" y2="345.411" gradientUnits="userSpaceOnUse">
<stop stop-color="#5C4CC0"/>
<stop offset="0.515625" stop-color="#FCE588"/>
<stop offset="1" stop-color="#F3F5FF"/>
</linearGradient>
<linearGradient id="paint51_linear" x1="282.429" y1="108.185" x2="282.429" y2="343.312" gradientUnits="userSpaceOnUse">
<stop stop-color="#5C4CC0"/>
<stop offset="0.515625" stop-color="#FCE588"/>
<stop offset="1" stop-color="#F3F5FF"/>
</linearGradient>
<linearGradient id="paint52_linear" x1="282.23" y1="110.245" x2="282.23" y2="340.655" gradientUnits="userSpaceOnUse">
<stop stop-color="#5C4CC0"/>
<stop offset="0.515625" stop-color="#FCE588"/>
<stop offset="1" stop-color="#F3F5FF"/>
</linearGradient>
<linearGradient id="paint53_linear" x1="282.049" y1="112.356" x2="282.049" y2="338.682" gradientUnits="userSpaceOnUse">
<stop stop-color="#5C4CC0"/>
<stop offset="0.515625" stop-color="#FCE588"/>
<stop offset="1" stop-color="#F3F5FF"/>
</linearGradient>
<linearGradient id="paint54_linear" x1="281.879" y1="114.243" x2="281.879" y2="336.665" gradientUnits="userSpaceOnUse">
<stop stop-color="#5C4CC0"/>
<stop offset="0.515625" stop-color="#FCE588"/>
<stop offset="1" stop-color="#F3F5FF"/>
</linearGradient>
<linearGradient id="paint55_linear" x1="281.79" y1="116.383" x2="281.79" y2="334.736" gradientUnits="userSpaceOnUse">
<stop stop-color="#5C4CC0"/>
<stop offset="0.515625" stop-color="#FCE588"/>
<stop offset="1" stop-color="#F3F5FF"/>
</linearGradient>
<linearGradient id="paint56_linear" x1="281.414" y1="118.381" x2="281.414" y2="332.908" gradientUnits="userSpaceOnUse">
<stop stop-color="#5C4CC0"/>
<stop offset="0.515625" stop-color="#FCE588"/>
<stop offset="1" stop-color="#F3F5FF"/>
</linearGradient>
</defs>
</svg>
