<svg width="420" height="502" viewBox="0 0 420 502" fill="none" xmlns="http://www.w3.org/2000/svg">
<path d="M112.5 457L131.986 468.25V490.75L112.5 502L93.0144 490.75V468.25L112.5 457Z" fill="#FADB5F"/>
<path d="M194.707 144.612C50.9645 164.124 53.9026 284.588 64.299 345.008C74.6955 405.427 202.391 404.599 227.553 389.305C252.64 373.937 369.111 120.956 194.707 144.612Z" stroke="url(#paint0_linear)" stroke-miterlimit="10"/>
<path d="M195.535 142.955C369.111 120.504 255.805 369.793 231.094 386.367C206.384 402.941 79.2909 404.297 67.8398 344.555C56.6146 284.889 50.9644 161.261 195.535 142.955Z" stroke="url(#paint1_linear)" stroke-miterlimit="10"/>
<path d="M196.364 141.222C369.186 120.429 258.893 365.575 234.635 383.354C210.377 401.133 83.6605 403.167 71.3806 344.028C59.2514 285.266 51.0397 158.776 196.364 141.222Z" stroke="url(#paint2_linear)" stroke-miterlimit="10"/>
<path d="M197.193 139.564C369.111 120.203 262.058 361.43 238.176 380.49C214.294 399.551 88.1808 402.112 74.9216 343.575C61.8883 285.566 51.0399 156.063 197.193 139.564Z" stroke="url(#paint3_linear)" stroke-miterlimit="10"/>
<path d="M198.097 137.83C369.186 119.825 265.222 357.211 241.792 377.551C218.362 397.892 92.701 401.057 78.5378 343.123C64.6005 285.867 51.0399 153.35 198.097 137.83Z" stroke="url(#paint4_linear)" stroke-miterlimit="10"/>
<path d="M198.926 136.175C369.186 119.601 268.386 353.069 245.333 374.616C222.28 396.162 97.1458 399.929 82.0785 342.673C67.2372 286.246 51.0398 150.565 198.926 136.175Z" stroke="url(#paint5_linear)" stroke-miterlimit="10"/>
<path d="M199.754 134.441C369.186 119.223 271.475 348.849 248.874 371.676C226.273 394.503 101.666 398.797 85.6194 342.144C69.9494 286.546 51.0399 147.851 199.754 134.441Z" stroke="url(#paint6_linear)" stroke-miterlimit="10"/>
<path d="M200.658 132.784C369.262 118.923 274.714 344.706 252.49 368.814C230.266 392.922 106.186 397.819 89.2355 341.768C72.6614 286.848 51.0398 145.14 200.658 132.784Z" stroke="url(#paint7_linear)" stroke-miterlimit="10"/>
<path d="M201.487 131.127C369.186 118.546 277.803 340.563 256.031 365.876C234.183 391.189 110.706 396.689 92.7762 341.317C75.2981 287.225 51.0397 142.353 201.487 131.127Z" stroke="url(#paint8_linear)" stroke-miterlimit="10"/>
<path d="M202.316 129.394C369.186 118.169 280.967 336.344 259.571 362.938C238.176 389.531 115.227 395.634 96.3171 340.789C78.0103 287.526 51.0398 139.565 202.316 129.394Z" stroke="url(#paint9_linear)" stroke-miterlimit="10"/>
<path d="M203.22 127.738C369.186 117.794 284.131 332.202 263.112 360.001C242.093 387.8 119.747 394.58 99.9332 340.338C80.7224 287.904 51.0398 136.778 203.22 127.738Z" stroke="url(#paint10_linear)" stroke-miterlimit="10"/>
<path d="M204.048 126.003C369.186 117.34 287.295 328.056 266.728 357.061C246.162 386.065 124.267 393.448 103.474 339.884C83.4346 288.203 51.0398 133.989 204.048 126.003Z" stroke="url(#paint11_linear)" stroke-miterlimit="10"/>
<path d="M204.877 124.346C369.186 116.963 290.459 323.913 270.269 354.198C250.079 384.483 128.787 392.394 107.015 339.432C86.1465 288.504 51.0397 131.202 204.877 124.346Z" stroke="url(#paint12_linear)" stroke-miterlimit="10"/>
<path d="M205.706 122.613C369.111 116.511 293.548 319.694 273.735 351.26C253.921 382.826 133.307 391.339 110.556 338.98C88.8587 288.881 51.0397 128.414 205.706 122.613Z" stroke="url(#paint13_linear)" stroke-miterlimit="10"/>
<path d="M206.61 120.956C369.111 116.059 296.712 315.475 277.351 348.322C257.989 381.169 137.827 390.209 114.096 338.453C91.5708 289.183 50.9644 125.552 206.61 120.956Z" stroke="url(#paint14_linear)" stroke-miterlimit="10"/>
<path d="M207.439 119.223C369.111 115.607 299.877 311.331 280.892 345.384C261.907 379.436 142.348 389.154 117.637 338.001C94.283 289.484 50.9645 122.764 207.439 119.223Z" stroke="url(#paint15_linear)" stroke-miterlimit="10"/>
<path d="M208.267 117.566C369.111 115.155 303.041 307.188 284.433 342.521C265.9 377.854 146.868 388.1 121.178 337.624C96.9952 289.861 50.9646 119.902 208.267 117.566Z" stroke="url(#paint16_linear)" stroke-miterlimit="10"/>
<path d="M209.171 115.834C368.207 113.649 306.054 303.723 288.049 339.584C269.742 376.122 151.463 386.97 124.794 337.098C99.7825 290.163 50.9644 118.019 209.171 115.834Z" stroke="url(#paint17_linear)" stroke-miterlimit="10"/>
<path d="M210 114.176C367.679 112.518 308.992 299.428 291.589 336.645C273.885 374.539 155.984 385.915 128.335 336.645C102.495 290.463 50.9644 115.833 210 114.176Z" stroke="url(#paint18_linear)" stroke-miterlimit="10"/>
<path d="M210.829 112.443C367.755 112.443 312.156 295.361 295.13 333.707C277.803 372.807 160.579 384.785 131.876 336.193C105.207 290.84 50.8891 112.443 210.829 112.443Z" stroke="url(#paint19_linear)" stroke-miterlimit="10"/>
<path d="M211.733 110.786C368.282 111.69 315.17 290.69 298.747 330.844C282.173 371.376 165.25 383.731 135.492 335.741C107.994 291.368 51.1152 109.807 211.733 110.786Z" stroke="url(#paint20_linear)" stroke-miterlimit="10"/>
<path d="M212.561 109.054C368.357 111.766 318.334 286.622 302.287 327.907C286.09 369.643 169.77 382.677 139.033 335.29C110.782 291.595 51.5671 106.267 212.561 109.054Z" stroke="url(#paint21_linear)" stroke-miterlimit="10"/>
<path d="M213.39 107.396C368.734 111.916 321.8 282.478 305.828 324.968C289.782 367.835 174.291 381.546 142.574 334.837C113.494 291.82 51.3412 102.65 213.39 107.396Z" stroke="url(#paint22_linear)" stroke-miterlimit="10"/>
<path d="M214.219 105.662C369.035 111.689 325.114 278.107 309.369 322.029C293.548 366.1 178.811 380.414 146.114 334.308C116.206 292.045 50.8137 99.3336 214.219 105.662Z" stroke="url(#paint23_linear)" stroke-miterlimit="10"/>
<path d="M215.123 104.005C368.96 110.861 328.278 273.739 312.985 319.091C297.692 364.444 183.482 379.285 149.731 333.857C118.993 292.347 50.8139 96.6224 215.123 104.005Z" stroke="url(#paint24_linear)" stroke-miterlimit="10"/>
<path d="M215.952 102.273C368.96 110.258 331.443 269.52 316.526 316.153C301.609 362.787 188.002 378.231 153.272 333.405C121.781 292.648 50.8138 93.6844 215.952 102.273Z" stroke="url(#paint25_linear)" stroke-miterlimit="10"/>
<path d="M216.78 100.617C368.96 109.733 334.531 265.378 320.067 313.292C305.602 361.206 192.597 377.178 156.812 332.955C124.493 292.951 50.8137 90.6726 216.78 100.617Z" stroke="url(#paint26_linear)" stroke-miterlimit="10"/>
<path d="M217.684 98.8821C368.96 109.053 337.771 261.157 323.683 310.277C309.595 359.396 197.193 375.97 160.428 332.501C127.28 293.251 50.8137 87.657 217.684 98.8821Z" stroke="url(#paint27_linear)" stroke-miterlimit="10"/>
<path d="M218.513 97.2254C368.96 108.526 340.86 257.014 327.224 307.414C313.588 357.815 201.864 374.841 163.969 331.974C130.068 293.553 50.8139 84.6442 218.513 97.2254Z" stroke="url(#paint28_linear)" stroke-miterlimit="10"/>
<path d="M219.342 95.4926C368.885 107.848 344.024 252.795 330.764 304.476C317.505 356.157 206.384 373.711 167.51 331.522C132.855 293.854 50.8138 81.6307 219.342 95.4926Z" stroke="url(#paint29_linear)" stroke-miterlimit="10"/>
<path d="M220.246 93.8348C368.96 107.245 347.188 248.652 334.305 301.538C321.423 354.424 210.979 372.58 171.126 331.07C135.568 294.08 50.8139 78.6169 220.246 93.8348Z" stroke="url(#paint30_linear)" stroke-miterlimit="10"/>
<path d="M221.075 92.1784C368.96 106.568 350.352 244.584 337.922 298.676C325.491 352.768 215.65 371.526 174.667 330.619C138.355 294.382 50.8139 75.529 221.075 92.1784Z" stroke="url(#paint31_linear)" stroke-miterlimit="10"/>
<path d="M221.903 90.4439C368.96 105.888 353.441 240.364 341.462 295.736C329.484 351.108 220.246 370.319 178.208 330.165C141.142 294.681 50.8139 72.4384 221.903 90.4439Z" stroke="url(#paint32_linear)" stroke-miterlimit="10"/>
<path d="M222.732 88.7875C368.885 105.286 356.605 236.221 345.003 292.799C333.401 349.452 224.841 369.19 181.749 329.714C143.93 294.908 50.8137 69.3507 222.732 88.7875Z" stroke="url(#paint33_linear)" stroke-miterlimit="10"/>
<path d="M223.636 87.0546C368.96 104.533 359.845 232.002 348.619 289.861C337.394 347.719 229.437 367.985 185.365 329.186C146.717 295.21 50.8138 66.2617 223.636 87.0546Z" stroke="url(#paint34_linear)" stroke-miterlimit="10"/>
<path d="M224.465 85.398C369.035 103.629 362.933 227.784 352.16 286.923C341.312 346.063 234.108 366.78 188.906 328.735C149.505 295.436 50.8891 62.8724 224.465 85.398Z" stroke="url(#paint35_linear)" stroke-miterlimit="10"/>
<path d="M225.293 83.6648C369.036 103.177 366.097 223.64 355.701 284.06C345.305 344.48 238.628 365.725 192.447 328.358C152.292 295.737 50.8892 60.0091 225.293 83.6648Z" stroke="url(#paint36_linear)" stroke-miterlimit="10"/>
<defs>
<linearGradient id="paint0_linear" x1="174.441" y1="143.052" x2="174.441" y2="398.05" gradientUnits="userSpaceOnUse">
<stop stop-color="#7386EC"/>
<stop offset="0.5" stop-color="#302CA9"/>
<stop offset="1" stop-color="#FADB5F" stop-opacity="0"/>
</linearGradient>
<linearGradient id="paint1_linear" x1="176.484" y1="141.526" x2="176.484" y2="396.212" gradientUnits="userSpaceOnUse">
<stop stop-color="#7386EC"/>
<stop offset="0.5" stop-color="#302CA9"/>
<stop offset="1" stop-color="#FADB5F" stop-opacity="0"/>
</linearGradient>
<linearGradient id="paint2_linear" x1="178.495" y1="139.972" x2="178.495" y2="394.322" gradientUnits="userSpaceOnUse">
<stop stop-color="#7386EC"/>
<stop offset="0.5" stop-color="#302CA9"/>
<stop offset="1" stop-color="#FADB5F" stop-opacity="0"/>
</linearGradient>
<linearGradient id="paint3_linear" x1="180.453" y1="138.459" x2="180.453" y2="392.625" gradientUnits="userSpaceOnUse">
<stop stop-color="#7386EC"/>
<stop offset="0.5" stop-color="#302CA9"/>
<stop offset="1" stop-color="#FADB5F" stop-opacity="0"/>
</linearGradient>
<linearGradient id="paint4_linear" x1="182.458" y1="136.857" x2="182.458" y2="390.909" gradientUnits="userSpaceOnUse">
<stop stop-color="#7386EC"/>
<stop offset="0.5" stop-color="#302CA9"/>
<stop offset="1" stop-color="#FADB5F" stop-opacity="0"/>
</linearGradient>
<linearGradient id="paint5_linear" x1="184.383" y1="135.334" x2="184.383" y2="389.173" gradientUnits="userSpaceOnUse">
<stop stop-color="#7386EC"/>
<stop offset="0.5" stop-color="#302CA9"/>
<stop offset="1" stop-color="#FADB5F" stop-opacity="0"/>
</linearGradient>
<linearGradient id="paint6_linear" x1="186.292" y1="133.717" x2="186.292" y2="387.489" gradientUnits="userSpaceOnUse">
<stop stop-color="#7386EC"/>
<stop offset="0.5" stop-color="#302CA9"/>
<stop offset="1" stop-color="#FADB5F" stop-opacity="0"/>
</linearGradient>
<linearGradient id="paint7_linear" x1="188.243" y1="132.172" x2="188.243" y2="385.939" gradientUnits="userSpaceOnUse">
<stop stop-color="#7386EC"/>
<stop offset="0.5" stop-color="#302CA9"/>
<stop offset="1" stop-color="#FADB5F" stop-opacity="0"/>
</linearGradient>
<linearGradient id="paint8_linear" x1="190.081" y1="130.613" x2="190.081" y2="384.284" gradientUnits="userSpaceOnUse">
<stop stop-color="#7386EC"/>
<stop offset="0.5" stop-color="#302CA9"/>
<stop offset="1" stop-color="#FADB5F" stop-opacity="0"/>
</linearGradient>
<linearGradient id="paint9_linear" x1="191.948" y1="128.976" x2="191.948" y2="382.704" gradientUnits="userSpaceOnUse">
<stop stop-color="#7386EC"/>
<stop offset="0.5" stop-color="#302CA9"/>
<stop offset="1" stop-color="#FADB5F" stop-opacity="0"/>
</linearGradient>
<linearGradient id="paint10_linear" x1="193.819" y1="127.403" x2="193.819" y2="381.127" gradientUnits="userSpaceOnUse">
<stop stop-color="#7386EC"/>
<stop offset="0.5" stop-color="#302CA9"/>
<stop offset="1" stop-color="#FADB5F" stop-opacity="0"/>
</linearGradient>
<linearGradient id="paint11_linear" x1="195.664" y1="125.744" x2="195.664" y2="379.546" gradientUnits="userSpaceOnUse">
<stop stop-color="#7386EC"/>
<stop offset="0.5" stop-color="#302CA9"/>
<stop offset="1" stop-color="#FADB5F" stop-opacity="0"/>
</linearGradient>
<linearGradient id="paint12_linear" x1="197.495" y1="124.153" x2="197.495" y2="378.086" gradientUnits="userSpaceOnUse">
<stop stop-color="#7386EC"/>
<stop offset="0.5" stop-color="#302CA9"/>
<stop offset="1" stop-color="#FADB5F" stop-opacity="0"/>
</linearGradient>
<linearGradient id="paint13_linear" x1="199.286" y1="122.478" x2="199.286" y2="376.607" gradientUnits="userSpaceOnUse">
<stop stop-color="#7386EC"/>
<stop offset="0.5" stop-color="#302CA9"/>
<stop offset="1" stop-color="#FADB5F" stop-opacity="0"/>
</linearGradient>
<linearGradient id="paint14_linear" x1="201.103" y1="120.867" x2="201.103" y2="375.114" gradientUnits="userSpaceOnUse">
<stop stop-color="#7386EC"/>
<stop offset="0.5" stop-color="#302CA9"/>
<stop offset="1" stop-color="#FADB5F" stop-opacity="0"/>
</linearGradient>
<linearGradient id="paint15_linear" x1="202.915" y1="119.174" x2="202.915" y2="373.65" gradientUnits="userSpaceOnUse">
<stop stop-color="#7386EC"/>
<stop offset="0.5" stop-color="#302CA9"/>
<stop offset="1" stop-color="#FADB5F" stop-opacity="0"/>
</linearGradient>
<linearGradient id="paint16_linear" x1="204.724" y1="117.544" x2="204.724" y2="372.282" gradientUnits="userSpaceOnUse">
<stop stop-color="#7386EC"/>
<stop offset="0.5" stop-color="#302CA9"/>
<stop offset="1" stop-color="#FADB5F" stop-opacity="0"/>
</linearGradient>
<linearGradient id="paint17_linear" x1="206.376" y1="115.815" x2="206.376" y2="370.82" gradientUnits="userSpaceOnUse">
<stop stop-color="#7386EC"/>
<stop offset="0.5" stop-color="#302CA9"/>
<stop offset="1" stop-color="#FADB5F" stop-opacity="0"/>
</linearGradient>
<linearGradient id="paint18_linear" x1="208.051" y1="114.165" x2="208.051" y2="369.469" gradientUnits="userSpaceOnUse">
<stop stop-color="#7386EC"/>
<stop offset="0.5" stop-color="#302CA9"/>
<stop offset="1" stop-color="#FADB5F" stop-opacity="0"/>
</linearGradient>
<linearGradient id="paint19_linear" x1="209.867" y1="112.443" x2="209.867" y2="368.056" gradientUnits="userSpaceOnUse">
<stop stop-color="#7386EC"/>
<stop offset="0.5" stop-color="#302CA9"/>
<stop offset="1" stop-color="#FADB5F" stop-opacity="0"/>
</linearGradient>
<linearGradient id="paint20_linear" x1="211.819" y1="110.782" x2="211.819" y2="366.8" gradientUnits="userSpaceOnUse">
<stop stop-color="#7386EC"/>
<stop offset="0.5" stop-color="#302CA9"/>
<stop offset="1" stop-color="#FADB5F" stop-opacity="0"/>
</linearGradient>
<linearGradient id="paint21_linear" x1="213.753" y1="109.023" x2="213.753" y2="365.452" gradientUnits="userSpaceOnUse">
<stop stop-color="#7386EC"/>
<stop offset="0.5" stop-color="#302CA9"/>
<stop offset="1" stop-color="#FADB5F" stop-opacity="0"/>
</linearGradient>
<linearGradient id="paint22_linear" x1="215.668" y1="107.308" x2="215.668" y2="364.067" gradientUnits="userSpaceOnUse">
<stop stop-color="#7386EC"/>
<stop offset="0.5" stop-color="#302CA9"/>
<stop offset="1" stop-color="#FADB5F" stop-opacity="0"/>
</linearGradient>
<linearGradient id="paint23_linear" x1="217.491" y1="105.51" x2="217.491" y2="362.709" gradientUnits="userSpaceOnUse">
<stop stop-color="#7386EC"/>
<stop offset="0.5" stop-color="#302CA9"/>
<stop offset="1" stop-color="#FADB5F" stop-opacity="0"/>
</linearGradient>
<linearGradient id="paint24_linear" x1="219.366" y1="103.802" x2="219.366" y2="361.407" gradientUnits="userSpaceOnUse">
<stop stop-color="#7386EC"/>
<stop offset="0.5" stop-color="#302CA9"/>
<stop offset="1" stop-color="#FADB5F" stop-opacity="0"/>
</linearGradient>
<linearGradient id="paint25_linear" x1="221.246" y1="102.003" x2="221.246" y2="360.152" gradientUnits="userSpaceOnUse">
<stop stop-color="#7386EC"/>
<stop offset="0.5" stop-color="#302CA9"/>
<stop offset="1" stop-color="#FADB5F" stop-opacity="0"/>
</linearGradient>
<linearGradient id="paint26_linear" x1="223.111" y1="100.263" x2="223.111" y2="358.942" gradientUnits="userSpaceOnUse">
<stop stop-color="#7386EC"/>
<stop offset="0.5" stop-color="#302CA9"/>
<stop offset="1" stop-color="#FADB5F" stop-opacity="0"/>
</linearGradient>
<linearGradient id="paint27_linear" x1="225.06" y1="98.4394" x2="225.06" y2="357.603" gradientUnits="userSpaceOnUse">
<stop stop-color="#7386EC"/>
<stop offset="0.5" stop-color="#302CA9"/>
<stop offset="1" stop-color="#FADB5F" stop-opacity="0"/>
</linearGradient>
<linearGradient id="paint28_linear" x1="226.974" y1="96.6801" x2="226.974" y2="356.373" gradientUnits="userSpaceOnUse">
<stop stop-color="#7386EC"/>
<stop offset="0.5" stop-color="#302CA9"/>
<stop offset="1" stop-color="#FADB5F" stop-opacity="0"/>
</linearGradient>
<linearGradient id="paint29_linear" x1="228.914" y1="94.8431" x2="228.914" y2="355.146" gradientUnits="userSpaceOnUse">
<stop stop-color="#7386EC"/>
<stop offset="0.5" stop-color="#302CA9"/>
<stop offset="1" stop-color="#FADB5F" stop-opacity="0"/>
</linearGradient>
<linearGradient id="paint30_linear" x1="230.892" y1="93.0665" x2="230.892" y2="353.913" gradientUnits="userSpaceOnUse">
<stop stop-color="#7386EC"/>
<stop offset="0.5" stop-color="#302CA9"/>
<stop offset="1" stop-color="#FADB5F" stop-opacity="0"/>
</linearGradient>
<linearGradient id="paint31_linear" x1="232.897" y1="91.2762" x2="232.897" y2="352.754" gradientUnits="userSpaceOnUse">
<stop stop-color="#7386EC"/>
<stop offset="0.5" stop-color="#302CA9"/>
<stop offset="1" stop-color="#FADB5F" stop-opacity="0"/>
</linearGradient>
<linearGradient id="paint32_linear" x1="234.897" y1="89.4081" x2="234.897" y2="351.536" gradientUnits="userSpaceOnUse">
<stop stop-color="#7386EC"/>
<stop offset="0.5" stop-color="#302CA9"/>
<stop offset="1" stop-color="#FADB5F" stop-opacity="0"/>
</linearGradient>
<linearGradient id="paint33_linear" x1="236.931" y1="87.6022" x2="236.931" y2="350.367" gradientUnits="userSpaceOnUse">
<stop stop-color="#7386EC"/>
<stop offset="0.5" stop-color="#302CA9"/>
<stop offset="1" stop-color="#FADB5F" stop-opacity="0"/>
</linearGradient>
<linearGradient id="paint34_linear" x1="239.043" y1="85.7222" x2="239.043" y2="349.139" gradientUnits="userSpaceOnUse">
<stop stop-color="#7386EC"/>
<stop offset="0.5" stop-color="#302CA9"/>
<stop offset="1" stop-color="#FADB5F" stop-opacity="0"/>
</linearGradient>
<linearGradient id="paint35_linear" x1="241.138" y1="83.8646" x2="241.138" y2="347.964" gradientUnits="userSpaceOnUse">
<stop stop-color="#7386EC"/>
<stop offset="0.5" stop-color="#302CA9"/>
<stop offset="1" stop-color="#FADB5F" stop-opacity="0"/>
</linearGradient>
<linearGradient id="paint36_linear" x1="243.251" y1="82" x2="243.251" y2="346.911" gradientUnits="userSpaceOnUse">
<stop stop-color="#7386EC"/>
<stop offset="0.5" stop-color="#302CA9"/>
<stop offset="1" stop-color="#FADB5F" stop-opacity="0"/>
</linearGradient>
</defs>
</svg>
