<svg width="689" height="689" viewBox="0 0 689 689" fill="none" xmlns="http://www.w3.org/2000/svg">
<g opacity="0.8" filter="url(#filter0_f)">
<circle cx="344.5" cy="344.5" r="244.5" fill="#667EEA"/>
</g>
<path d="M486.667 135.34C444.327 132.274 401.718 130.811 359.108 131.02C316.499 131.229 273.979 132.971 231.639 136.455C211.863 138.058 191.457 140.218 174.557 148.302C143.993 162.937 132.666 192.694 125.565 220.012C115.497 259.037 109.204 298.62 103.001 338.134C96.7089 377.856 90.4164 417.509 84.2137 457.231C81.9664 471.517 79.8089 486.431 86.4611 499.88C94.7313 516.675 115.766 528.104 137.97 533.261C160.174 538.418 183.816 538.139 207.008 537.861C290.25 536.885 373.491 535.84 456.733 534.864C487.656 534.516 520.737 533.61 545.997 519.742C566.403 508.522 578.628 490.124 584.112 471.239C589.685 452.353 589.236 432.771 588.697 413.397C587.618 369.702 586.539 326.078 585.46 282.383C584.741 253.95 583.932 225.029 572.246 198.06C560.74 171.09 536.289 145.933 501.59 136.664L486.667 135.34Z" stroke="url(#paint0_linear)" stroke-miterlimit="10"/>
<path d="M176.085 150.671C145.881 165.166 134.554 194.575 127.453 221.614C117.384 260.221 111.002 299.386 104.709 338.481C98.8664 377.646 93.1132 416.881 87.2701 456.185C85.2025 470.262 83.135 485.106 89.7871 498.346C98.0573 514.932 118.913 526.291 140.937 531.379C162.96 536.536 186.333 536.327 209.256 536.187C247.55 535.839 285.755 535.56 324.05 535.212C368.098 534.515 412.056 533.818 456.103 533.121C486.667 532.633 519.389 531.658 544.379 517.859C564.515 506.779 576.651 488.59 582.134 469.914C587.708 451.237 587.348 431.933 586.899 412.769C586 369.632 585.191 326.495 584.292 283.358C583.393 255.204 582.314 226.562 570.538 199.871C558.762 173.18 534.491 148.232 500.061 138.963L496.645 138.615C496.645 138.615 485.229 137.569 485.229 137.5C442.979 134.155 400.639 132.482 358.749 132.691C316.589 133.04 274.429 135.061 232.538 138.684C213.031 140.357 192.805 142.587 176.085 150.671Z" stroke="url(#paint1_linear)" stroke-miterlimit="10"/>
<path d="M177.523 152.971C147.679 167.396 136.352 196.526 129.34 223.286C119.272 261.476 112.8 300.222 106.417 338.9C101.114 377.577 95.7201 416.323 90.3265 455.14C88.3488 469.078 86.5509 483.712 93.2031 496.883C101.473 513.26 122.149 524.55 143.903 529.637C165.657 534.794 188.76 534.654 211.503 534.585C249.348 534.376 287.193 534.236 325.039 534.097C368.547 533.191 412.056 532.285 455.564 531.449C485.768 530.821 518.13 529.776 542.851 516.048C562.717 505.037 574.763 487.057 580.336 468.659C585.91 450.192 585.55 431.097 585.281 412.212C584.561 369.562 583.932 326.983 583.303 284.403C582.224 256.598 580.876 228.165 568.92 201.683C557.054 175.201 532.873 150.532 498.713 141.193C498.713 141.193 495.387 140.845 495.297 140.845C495.207 140.845 484.06 139.73 483.971 139.73C441.81 136.106 399.74 134.225 358.479 134.434C316.768 134.991 275.058 137.152 233.527 140.915C214.11 142.657 194.154 144.957 177.523 152.971Z" stroke="url(#paint2_linear)" stroke-miterlimit="10"/>
<path d="M178.962 155.34C149.387 169.696 138.24 198.408 131.138 224.889C120.98 262.73 114.508 300.989 108.035 339.318C103.181 377.507 98.327 415.766 93.2929 454.164C91.4951 467.963 89.7871 482.388 96.4392 495.42C104.709 511.657 125.115 522.807 146.69 527.895C168.264 532.982 191.097 533.052 213.571 532.982C251.056 532.912 288.452 532.912 325.848 532.912C368.817 531.867 411.786 530.752 454.845 529.776C484.69 529.079 516.692 527.825 541.143 514.236C560.83 503.364 572.695 485.594 578.269 467.335C583.752 449.147 583.573 430.261 583.393 411.585C582.943 369.493 582.494 327.401 582.044 285.379C580.786 257.852 579.168 229.698 567.122 203.425C555.256 177.222 531.075 152.762 497.185 143.424L493.859 143.075C493.769 143.005 482.712 141.96 482.622 141.96C440.642 138.127 398.751 135.967 358.119 136.176C316.768 136.943 275.507 139.242 234.426 143.145C215.189 144.957 195.412 147.326 178.962 155.34Z" stroke="url(#paint3_linear)" stroke-miterlimit="10"/>
<path d="M180.4 157.641C151.184 171.927 140.038 200.36 132.936 226.493C122.778 263.916 116.216 301.757 109.743 339.667C105.339 377.369 100.844 415.21 96.3494 453.12C94.7313 466.779 93.2031 481.065 99.8552 493.888C108.125 509.916 128.351 520.927 149.656 526.084C170.961 531.171 193.614 531.311 215.818 531.311C252.854 531.38 289.8 531.52 326.747 531.729C369.176 530.474 411.606 529.22 454.126 528.035C483.611 527.199 515.164 525.875 539.435 512.355C558.852 501.554 570.628 483.992 576.201 466.013C581.685 448.033 581.595 429.356 581.505 410.959C581.235 369.355 580.966 327.82 580.786 286.356C579.258 259.108 577.46 231.302 565.324 205.238C553.368 179.314 529.277 154.993 495.747 145.655L492.42 145.306C492.331 145.237 481.364 144.191 481.274 144.122C439.383 140.01 397.852 137.71 357.85 137.85C316.948 138.825 276.047 141.334 235.505 145.376C216.267 147.258 196.671 149.697 180.4 157.641Z" stroke="url(#paint4_linear)" stroke-miterlimit="10"/>
<path d="M181.928 160.009C153.072 174.156 141.925 202.241 134.824 228.165C124.666 265.169 118.014 302.662 111.452 340.084C107.496 377.298 103.541 414.651 99.4058 452.074C97.9675 465.524 96.5292 479.67 103.271 492.423C111.541 508.243 131.498 519.184 152.623 524.271C173.748 529.358 196.041 529.567 218.065 529.707C254.652 529.916 291.239 530.194 327.735 530.543C369.626 529.079 411.516 527.686 453.587 526.362C482.802 525.386 513.905 523.992 537.907 510.612C557.054 499.95 568.74 482.597 574.314 464.827C579.797 447.056 579.797 428.658 579.797 410.47C579.707 369.423 579.707 328.446 579.617 287.47C577.909 260.57 575.842 232.973 563.526 207.119C551.481 181.404 527.479 157.361 494.218 148.023C494.218 148.023 490.982 147.675 490.892 147.675C490.713 147.605 480.015 146.56 479.835 146.49C438.125 142.1 396.774 139.591 357.4 139.73C316.948 140.845 276.496 143.563 236.314 147.744C217.346 149.556 198.019 152.065 181.928 160.009Z" stroke="url(#paint5_linear)" stroke-miterlimit="10"/>
<path d="M183.366 162.309C154.87 176.387 143.723 204.123 136.622 229.698C126.464 266.354 119.722 303.359 113.07 340.433C109.564 377.089 106.058 414.024 102.372 451.029C101.024 464.339 99.8552 478.277 106.507 490.89C114.778 506.501 134.554 517.372 155.409 522.459C176.265 527.547 198.379 527.825 220.133 528.034C256.36 528.383 292.497 528.871 328.544 529.289C369.896 527.686 411.336 526.083 452.777 524.55C481.633 523.505 512.377 521.971 536.109 508.661C555.076 498.068 566.673 480.995 572.156 463.433C577.64 445.872 577.729 427.753 577.729 409.773C577.819 369.284 577.999 328.795 578.179 288.376C576.291 261.755 573.864 234.437 561.549 208.861C549.323 183.425 525.501 159.592 492.51 150.184C492.42 150.184 489.274 149.835 489.274 149.835C489.094 149.766 478.487 148.651 478.307 148.581C436.686 143.912 395.605 141.194 356.861 141.333C316.768 142.657 276.766 145.515 237.033 149.835C218.425 151.926 199.367 154.435 183.366 162.309Z" stroke="url(#paint6_linear)" stroke-miterlimit="10"/>
<path d="M184.805 164.678C156.668 178.686 145.611 206.073 138.42 231.37C128.172 267.539 121.43 304.195 114.688 340.781C111.721 376.949 108.575 413.396 105.339 449.983C104.17 463.154 103.091 476.883 109.833 489.357C118.104 504.828 137.7 515.56 158.286 520.647C178.962 525.734 200.806 526.083 222.29 526.361C258.068 526.849 293.756 527.476 329.443 528.104C370.255 526.292 411.157 524.549 452.148 522.877C480.644 521.692 511.028 520.089 534.491 506.849C553.189 496.395 564.695 479.461 570.178 462.178C575.662 444.896 575.842 426.916 575.932 409.215C576.201 369.214 576.561 329.282 577.01 289.421C574.943 263.078 572.156 236.039 559.751 210.673C547.435 185.515 523.793 161.821 490.982 152.483C490.892 152.483 487.836 152.134 487.746 152.065C487.566 151.925 477.049 150.88 476.869 150.81C435.428 145.932 394.526 142.936 356.501 143.075C316.858 144.608 277.305 147.605 237.932 152.065C219.504 154.225 200.626 156.804 184.805 164.678Z" stroke="url(#paint7_linear)" stroke-miterlimit="10"/>
<path d="M186.243 167.049C158.466 180.986 147.409 208.026 140.217 233.044C129.97 268.794 123.138 305.032 116.306 341.27C113.789 376.95 111.092 412.91 108.305 449.078C107.316 462.04 106.417 475.699 113.07 488.034C121.34 503.295 140.667 513.958 161.163 519.045C181.568 524.132 203.233 524.55 224.448 524.969C259.866 525.596 295.104 526.362 330.342 527.129C370.615 525.178 410.977 523.226 451.429 521.345C479.566 520.021 509.59 518.348 532.783 505.177C551.301 494.793 562.627 478.138 568.111 460.995C573.594 443.921 573.864 426.22 574.044 408.728C574.583 369.285 575.123 329.841 575.752 290.537C573.505 264.543 570.448 237.783 557.953 212.625C545.548 187.746 521.995 164.261 489.544 154.923C489.454 154.853 486.398 154.575 486.308 154.505C486.128 154.365 475.7 153.32 475.521 153.181C434.169 148.024 393.538 144.818 356.142 145.027C316.948 146.7 277.755 149.905 238.831 154.575C220.582 156.526 201.884 159.174 186.243 167.049Z" stroke="url(#paint8_linear)" stroke-miterlimit="10"/>
<path d="M187.681 169.349C160.174 183.147 149.207 209.907 142.015 234.647C131.857 269.979 124.936 305.799 118.014 341.549C115.946 376.741 113.789 412.213 111.362 447.893C110.463 460.716 109.743 474.166 116.486 486.361C124.756 501.414 143.903 511.937 164.129 517.024C184.355 522.111 205.66 522.599 226.605 523.087C261.574 523.854 296.452 524.76 331.151 525.735C370.884 523.575 410.707 521.484 450.71 519.463C478.487 518.07 508.062 516.188 531.075 503.226C549.323 492.912 560.56 476.466 566.043 459.601C571.527 442.736 571.886 425.245 572.156 408.031C572.875 369.076 573.594 330.19 574.493 291.443C572.066 265.728 568.74 239.246 556.065 214.298C543.57 189.628 520.108 166.422 487.926 157.014C487.836 156.944 484.78 156.665 484.69 156.596C484.42 156.456 474.262 155.411 473.992 155.272C432.821 149.836 392.369 146.421 355.602 146.63C316.768 148.512 278.024 151.857 239.55 156.665C221.661 158.826 203.233 161.544 187.681 169.349Z" stroke="url(#paint9_linear)" stroke-miterlimit="10"/>
<path d="M189.209 171.717C162.062 185.446 151.184 211.858 143.993 236.249C133.745 271.163 126.733 306.564 119.812 341.966C118.193 376.671 116.485 411.655 114.508 446.917C113.789 459.6 113.249 472.841 119.901 484.897C128.172 499.81 147.139 510.194 167.096 515.281C187.052 520.369 208.177 520.926 228.852 521.484C263.372 522.39 297.801 523.435 332.14 524.55C371.334 522.18 410.617 519.95 450.081 517.72C477.498 516.187 506.714 514.236 529.457 501.344C547.435 491.169 558.582 474.932 564.066 458.276C569.549 441.621 569.909 424.408 570.358 407.404C571.257 369.005 572.246 330.677 573.325 292.418C570.628 266.981 567.122 240.779 554.357 216.109C541.772 191.718 518.4 168.721 486.488 159.313C486.398 159.243 483.431 158.964 483.341 158.895C483.072 158.755 473.003 157.64 472.734 157.501C431.652 151.856 391.56 148.163 355.423 148.372C317.038 150.462 278.743 153.947 240.629 158.895C222.74 161.125 204.491 163.912 189.209 171.717Z" stroke="url(#paint10_linear)" stroke-miterlimit="10"/>
<path d="M190.648 174.018C163.859 187.676 152.982 213.74 145.791 237.852C135.453 272.418 128.351 307.401 121.34 342.315C120.171 376.462 118.913 411.028 117.384 445.872C116.845 458.416 116.396 471.517 123.138 483.434C131.408 498.138 150.106 508.452 169.882 513.54C189.659 518.627 210.514 519.254 230.92 519.881C265.08 520.927 299.059 522.111 332.949 523.366C371.604 520.857 410.438 518.418 449.362 516.048C476.419 514.376 505.275 512.355 527.749 499.532C545.458 489.427 556.515 473.399 561.998 457.022C567.482 440.576 567.931 423.572 568.47 406.777C569.549 368.866 570.718 331.095 572.066 293.394C569.19 268.306 565.324 242.312 552.559 217.852C539.884 193.67 516.602 170.882 484.959 161.474C484.869 161.404 481.903 161.125 481.813 161.055C481.543 160.846 471.565 159.801 471.296 159.662C430.394 153.738 390.481 149.905 354.973 150.045C317.038 152.344 279.103 155.968 241.438 161.055C223.908 163.425 205.84 166.282 190.648 174.018Z" stroke="url(#paint11_linear)" stroke-miterlimit="10"/>
<path d="M192.086 176.386C165.657 189.906 154.78 215.621 147.589 239.524C137.251 273.601 130.149 308.167 123.048 342.732C122.418 376.392 121.52 410.47 120.441 444.826C120.081 457.161 119.722 470.123 126.464 481.9C134.734 496.395 153.252 506.64 172.759 511.727C192.266 516.814 212.851 517.511 233.077 518.278C266.788 519.462 300.408 520.786 333.848 522.25C371.963 519.532 410.258 516.884 448.732 514.375C475.431 512.633 503.927 510.403 526.131 497.719C543.66 487.754 554.537 471.935 560.02 455.767C565.504 439.599 566.043 422.804 566.583 406.219C567.841 368.866 569.28 331.582 570.808 294.438C567.751 269.629 563.616 243.984 550.672 219.732C537.907 195.759 514.804 173.111 483.431 163.703C483.341 163.633 480.465 163.354 480.285 163.285C479.925 163.076 470.217 162.03 469.857 161.821C429.046 155.619 389.402 151.577 354.524 151.716C316.948 154.155 279.463 158.058 242.247 163.285C224.987 165.724 207.098 168.651 192.086 176.386Z" stroke="url(#paint12_linear)" stroke-miterlimit="10"/>
<path d="M193.524 178.687C167.455 192.137 156.578 217.573 149.387 241.128C139.049 274.787 131.857 308.935 124.666 343.082C124.486 376.254 124.037 409.843 123.407 443.782C123.138 455.977 123.048 468.73 129.79 480.368C138.06 494.654 156.398 504.829 175.636 509.846C194.963 514.934 215.279 515.7 235.235 516.536C268.585 517.86 301.756 519.394 334.747 520.927C372.323 518.07 410.078 515.212 448.013 512.564C474.352 510.683 502.399 508.383 524.423 495.769C541.682 485.874 552.559 470.333 557.953 454.305C563.436 438.346 564.066 421.83 564.695 405.453C566.223 368.588 567.751 331.862 569.549 295.276C566.313 270.745 561.908 245.379 548.874 221.336C536.019 197.712 513.006 175.342 481.903 165.864C481.813 165.795 478.936 165.516 478.847 165.446C478.487 165.237 468.868 164.192 468.509 163.983C427.877 157.502 388.414 153.251 354.254 153.39C317.128 156.038 280.092 160.08 243.236 165.446C226.066 168.025 208.447 171.021 193.524 178.687Z" stroke="url(#paint13_linear)" stroke-miterlimit="10"/>
<path d="M194.963 181.055C169.163 194.435 158.466 219.453 151.184 242.729C140.847 276.04 133.565 309.769 126.284 343.499C126.554 376.182 126.643 409.284 126.374 442.805C126.284 454.861 126.284 467.474 133.116 478.973C141.386 493.12 159.455 503.085 178.512 508.172C197.569 513.26 217.706 514.096 237.392 515.002C270.293 516.465 303.015 518.138 335.556 519.81C372.592 516.744 409.808 513.747 447.294 510.89C473.273 508.869 500.96 506.5 522.715 494.026C539.705 484.199 550.492 468.868 555.885 453.118C561.369 437.369 562.088 421.062 562.807 404.964C564.515 368.656 566.313 332.418 568.201 296.389C564.785 272.207 560.11 247.05 546.896 223.286C533.951 199.871 511.028 177.779 480.195 168.302C480.105 168.232 477.228 167.884 477.139 167.814C476.779 167.605 467.25 166.49 466.891 166.281C426.349 159.591 387.155 155.061 353.625 155.2C316.948 158.058 280.272 162.239 243.955 167.744C227.144 170.323 209.705 173.389 194.963 181.055Z" stroke="url(#paint14_linear)" stroke-miterlimit="10"/>
<path d="M196.401 183.356C170.961 196.597 160.264 221.337 152.982 244.334C142.555 277.227 135.273 310.538 127.902 343.849C128.621 376.045 129.161 408.659 129.34 441.691C129.43 453.538 129.61 466.013 136.352 477.372C144.622 491.309 162.511 501.205 181.389 506.292C200.266 511.38 220.133 512.286 239.55 513.331C272.001 514.934 304.363 516.746 336.455 518.627C372.952 515.352 409.718 512.216 446.575 509.219C472.194 507.129 499.522 504.62 521.007 492.215C537.817 482.529 548.424 467.406 553.818 451.866C559.211 436.325 560.11 420.297 560.919 404.408C562.807 368.658 564.785 332.977 566.942 297.436C563.257 273.533 558.402 248.654 545.098 225.1C532.064 201.963 509.231 180.011 478.667 170.534C478.577 170.464 475.79 170.116 475.61 170.046C475.161 169.767 465.902 168.722 465.452 168.513C425.09 161.544 386.076 156.805 353.175 156.944C316.858 159.941 280.631 164.331 244.764 169.976C228.223 172.624 211.054 175.76 196.401 183.356Z" stroke="url(#paint15_linear)" stroke-miterlimit="10"/>
<path d="M197.929 185.725C172.849 198.896 162.151 223.287 154.87 246.005C144.442 278.48 136.981 311.373 129.7 344.266C130.869 375.905 131.857 408.101 132.487 440.715C132.666 452.423 133.026 464.688 139.858 475.908C148.128 489.636 165.837 499.462 184.445 504.55C203.053 509.637 222.65 510.682 241.887 511.727C273.979 513.47 305.891 515.421 337.534 517.442C373.491 514.027 409.718 510.682 446.125 507.476C471.385 505.246 498.353 502.598 519.568 490.333C536.109 480.716 546.626 465.803 552.02 450.541C557.414 435.21 558.402 419.39 559.301 403.78C561.369 368.518 563.616 333.395 565.953 298.411C562.088 274.787 556.874 250.187 543.48 226.841C530.356 203.983 507.613 182.241 477.318 172.763C477.229 172.693 474.442 172.345 474.352 172.275C473.902 171.996 464.733 170.951 464.284 170.672C424.012 163.425 385.267 158.477 353.085 158.616C317.218 161.822 281.44 166.352 245.932 172.205C229.302 174.923 212.312 178.129 197.929 185.725Z" stroke="url(#paint16_linear)" stroke-miterlimit="10"/>
<path d="M199.367 188.023C174.647 201.125 164.039 225.167 156.668 247.607C146.24 279.663 138.689 312.138 131.318 344.613C133.026 375.764 134.374 407.472 135.453 439.668C135.813 451.236 136.352 463.292 143.094 474.443C151.364 487.962 168.804 497.719 187.232 502.736C205.66 507.823 224.987 508.938 243.955 510.053C275.597 511.935 307.06 514.026 338.343 516.256C373.761 512.632 409.449 509.147 445.316 505.802C470.217 503.433 496.825 500.715 517.771 488.52C534.041 479.042 544.469 464.338 549.952 449.215C555.346 434.163 556.335 418.553 557.414 403.151C559.661 368.447 562.088 333.811 564.695 299.385C560.65 276.109 555.166 251.788 541.682 228.652C528.468 206.003 505.905 184.539 475.88 175.061C475.7 174.991 473.004 174.643 472.914 174.573C472.464 174.295 463.385 173.249 462.935 172.97C422.843 165.514 384.368 160.287 352.726 160.427C317.218 163.841 281.89 168.51 246.831 174.504C230.381 177.221 213.661 180.497 199.367 188.023Z" stroke="url(#paint17_linear)" stroke-miterlimit="10"/>
<path d="M200.806 190.394C176.445 203.356 165.837 227.12 158.556 249.281C148.128 280.919 140.487 312.976 133.026 345.032C135.183 375.695 137.071 406.916 138.509 438.624C139.049 450.053 139.678 461.97 146.51 472.911C154.78 486.291 172.04 495.908 190.198 500.925C208.357 505.943 227.504 507.197 246.202 508.382C277.485 510.403 308.498 512.633 339.332 515.003C374.21 511.239 409.359 507.546 444.777 503.992C469.318 501.553 495.477 498.695 516.242 486.639C532.333 477.231 542.581 462.736 548.065 447.893C553.458 433.049 554.537 417.648 555.706 402.525C558.223 368.308 560.83 334.231 563.616 300.362C559.391 277.365 553.638 253.322 540.064 230.395C526.76 208.025 504.286 186.7 474.532 177.223C474.352 177.153 471.745 176.805 471.565 176.735C471.026 176.456 462.216 175.341 461.677 175.062C421.674 167.327 383.469 161.961 352.456 162.1C317.398 165.724 282.519 170.533 247.82 176.665C231.459 179.522 214.919 182.867 200.806 190.394Z" stroke="url(#paint18_linear)" stroke-miterlimit="10"/>
<path d="M202.244 192.694C178.242 205.586 167.635 229.002 160.354 250.814C149.836 282.104 142.195 313.743 134.644 345.381C137.251 375.556 139.588 406.289 141.476 437.579C142.195 448.799 143.004 460.576 149.746 471.378C158.016 484.549 175.096 494.027 192.985 499.114C210.964 504.132 229.751 505.456 248.27 506.78C279.103 508.94 309.757 511.31 340.051 513.818C374.39 509.846 408.999 506.013 443.878 502.32C468.059 499.741 493.859 496.814 514.355 484.828C530.176 475.559 540.334 461.273 545.817 446.639C551.211 432.004 552.38 416.882 553.548 401.968C556.245 368.309 559.032 334.789 562.088 301.338C557.683 278.62 551.66 254.856 537.907 232.207C524.513 210.116 502.129 189.001 472.644 179.523C472.464 179.453 469.857 179.105 469.767 179.035C469.228 178.687 460.508 177.641 459.969 177.363C420.146 169.348 382.121 163.773 351.827 163.913C317.218 167.676 282.699 172.693 248.449 178.965C232.538 181.823 216.267 185.237 202.244 192.694Z" stroke="url(#paint19_linear)" stroke-miterlimit="10"/>
<path d="M203.682 195.063C179.95 207.885 169.433 230.952 162.151 252.486C151.634 283.288 143.903 314.509 136.262 345.799C139.318 375.416 142.105 405.731 144.442 436.603C145.251 447.683 146.24 459.252 153.072 469.984C161.342 482.946 178.153 492.354 195.862 497.371C213.571 502.389 232.179 503.782 250.427 505.176C280.811 507.476 311.015 510.054 340.95 512.703C374.75 508.521 408.909 504.549 443.249 500.646C467.071 497.929 492.51 494.932 512.736 483.015C528.288 473.816 538.446 459.809 543.84 445.384C549.233 430.958 550.492 416.114 551.75 401.41C554.627 368.238 557.683 335.276 560.919 302.383C556.335 279.943 550.042 256.458 536.199 234.019C522.715 212.136 500.421 191.3 471.206 181.752C471.026 181.683 468.509 181.334 468.329 181.264C467.79 180.916 459.16 179.871 458.621 179.522C418.888 171.229 381.132 165.445 351.467 165.584C317.218 169.557 283.148 174.783 249.348 181.195C233.617 184.122 217.526 187.606 203.682 195.063Z" stroke="url(#paint20_linear)" stroke-miterlimit="10"/>
<path d="M205.211 197.432C181.838 210.115 171.411 232.903 164.039 254.158C153.522 284.543 145.701 315.345 137.97 346.217C141.476 375.347 144.712 405.173 147.499 435.557C148.488 446.498 149.656 457.927 156.398 468.45C164.668 481.203 181.299 490.542 198.828 495.559C216.357 500.577 234.696 502.04 252.674 503.504C282.699 505.943 312.454 508.661 341.939 511.448C375.199 507.127 408.819 502.946 442.709 498.904C466.261 496.117 491.252 492.911 511.208 481.134C526.58 472.074 536.558 458.206 541.952 444.059C547.345 429.843 548.694 415.208 550.042 400.783C553.099 368.169 556.335 335.694 559.841 303.358C554.986 281.267 548.424 258.061 534.491 235.83C520.917 214.227 498.713 193.599 469.767 184.052C469.588 183.982 467.071 183.634 466.891 183.494C466.261 183.146 457.901 182.101 457.272 181.752C417.719 173.25 380.143 167.187 351.108 167.327C317.308 171.508 283.688 176.874 250.247 183.425C234.696 186.421 218.784 189.975 205.211 197.432Z" stroke="url(#paint21_linear)" stroke-miterlimit="10"/>
<path d="M206.649 199.731C183.636 212.345 173.208 234.784 165.837 255.76C155.32 285.727 147.409 316.111 139.678 346.564C143.723 375.206 147.409 404.545 150.555 434.511C151.724 445.313 152.982 456.533 159.814 466.916C168.084 479.53 184.535 488.729 201.795 493.746C219.054 498.764 237.213 500.297 254.922 501.9C284.497 504.478 313.892 507.336 342.927 510.332C375.649 505.803 408.73 501.412 442.08 497.231C465.273 494.304 489.903 491.029 509.59 479.321C524.692 470.331 534.581 456.742 539.974 442.735C545.368 428.797 546.806 414.371 548.244 400.155C551.481 368.029 554.986 336.111 558.672 304.333C553.638 282.521 546.806 259.593 532.783 237.572C519.119 216.247 497.005 195.759 468.419 186.211C468.239 186.072 465.722 185.793 465.542 185.654C464.913 185.305 456.643 184.19 456.014 183.842C416.37 175.131 379.155 168.859 350.748 168.998C317.398 173.319 284.137 178.894 251.146 185.584C235.774 188.72 220.133 192.344 206.649 199.731Z" stroke="url(#paint22_linear)" stroke-miterlimit="10"/>
<path d="M208.087 202.102C185.434 214.646 175.006 236.737 167.635 257.365C157.117 286.913 149.117 316.949 141.296 346.915C145.791 375.069 149.926 403.92 153.522 433.468C154.87 444.06 156.218 455.141 163.14 465.455C171.41 477.859 187.591 486.989 204.671 492.006C221.751 497.024 239.55 498.627 257.079 500.299C286.294 503.017 315.15 506.014 343.826 509.149C376.008 504.48 408.55 499.881 441.451 495.56C464.284 492.494 488.465 489.149 507.972 477.581C522.894 468.73 532.603 455.28 537.997 441.552C543.39 427.823 544.918 413.607 546.447 399.669C549.952 368.1 553.548 336.671 557.414 305.45C552.2 283.916 545.098 261.268 530.895 239.525C517.141 218.409 495.207 198.2 466.801 188.652C466.621 188.513 464.194 188.234 464.014 188.095C463.385 187.677 455.205 186.631 454.575 186.283C415.112 177.084 378.076 170.603 350.389 170.742C317.398 175.272 284.587 180.987 252.135 187.816C236.943 191.022 221.391 194.715 208.087 202.102Z" stroke="url(#paint23_linear)" stroke-miterlimit="10"/>
<path d="M209.525 204.401C187.232 216.806 176.894 238.549 169.433 258.967C158.915 288.167 150.825 317.715 142.914 347.332C147.858 374.999 152.443 403.362 156.488 432.422C157.926 442.875 159.545 453.816 166.376 463.921C174.647 476.116 190.648 485.106 207.458 490.124C224.268 495.141 241.887 496.814 259.147 498.556C287.913 501.483 316.409 504.549 344.545 507.825C376.188 502.946 408.28 498.208 440.552 493.678C463.025 490.542 486.847 487.058 506.084 475.559C520.737 466.778 530.356 453.607 535.749 440.088C541.143 426.568 542.761 412.63 544.379 398.902C548.065 367.89 551.93 337.018 555.975 306.286C550.582 285.1 543.21 262.661 528.917 241.127C515.074 220.29 493.23 200.29 465.093 190.742C464.913 190.603 462.486 190.324 462.306 190.185C461.677 189.767 453.676 188.721 452.957 188.303C413.764 179.035 376.997 172.275 349.939 172.414C317.398 177.153 285.036 183.007 252.944 190.045C238.022 193.321 222.74 197.084 209.525 204.401Z" stroke="url(#paint24_linear)" stroke-miterlimit="10"/>
<path d="M210.964 206.772C188.94 219.106 178.692 240.501 171.231 260.641C160.623 289.422 152.533 318.552 144.532 347.751C149.926 374.86 154.96 402.805 159.455 431.447C161.073 441.761 162.781 452.493 169.703 462.458C177.973 474.445 193.794 483.365 210.334 488.383C226.965 493.4 244.314 495.142 261.304 496.954C289.621 500.021 317.757 503.226 345.445 506.711C376.548 501.623 408.1 496.745 439.923 492.076C462.037 488.801 485.499 485.247 504.466 473.818C518.849 465.176 528.378 452.214 533.772 438.904C539.165 425.593 540.783 411.934 542.491 398.345C546.357 367.822 550.402 337.507 554.717 307.332C549.143 286.425 541.502 264.334 527.03 243.01C513.096 222.451 491.342 202.59 463.475 193.043C463.295 192.904 460.958 192.625 460.688 192.485C459.969 192.067 452.148 191.022 451.429 190.604C412.415 181.057 375.829 174.157 349.4 174.227C317.308 179.175 285.306 185.168 253.663 192.346C239.1 195.621 223.998 199.454 210.964 206.772Z" stroke="url(#paint25_linear)" stroke-miterlimit="10"/>
<path d="M212.402 209.071C190.738 221.336 180.49 242.382 173.029 262.243C162.511 290.606 154.331 319.318 146.24 348.099C152.083 374.72 157.657 402.177 162.601 430.401C164.399 440.506 166.287 451.099 173.118 460.994C181.389 472.841 196.94 481.622 213.301 486.64C229.662 491.657 246.741 493.469 263.551 495.42C291.508 498.626 319.106 501.971 346.433 505.595C376.997 500.368 408.01 495.281 439.293 490.403C461.048 486.988 484.15 483.295 502.848 472.005C517.051 463.433 526.49 450.68 531.794 437.649C537.188 424.547 538.896 411.097 540.693 397.787C544.739 367.821 549.053 337.994 553.548 308.377C547.705 287.749 539.884 265.936 525.322 244.821C511.298 224.472 489.634 204.889 462.126 195.342C461.947 195.203 459.609 194.924 459.43 194.785C458.71 194.366 450.98 193.251 450.26 192.833C411.337 182.937 375.02 175.829 349.22 175.899C317.488 180.986 285.935 187.188 254.742 194.506C240.179 197.99 225.347 201.823 212.402 209.071Z" stroke="url(#paint26_linear)" stroke-miterlimit="10"/>
<path d="M213.93 211.44C192.625 223.566 182.378 244.333 175.006 263.846C164.399 291.791 156.129 320.084 147.948 348.448C154.331 374.581 160.264 401.55 165.657 429.286C167.545 439.252 169.613 449.635 176.534 459.392C184.805 471.03 200.176 479.741 216.267 484.758C232.448 489.776 249.258 491.657 265.799 493.678C293.306 497.023 320.544 500.508 347.422 504.341C377.447 498.905 407.921 493.678 438.754 488.661C460.149 485.176 482.892 481.343 501.32 470.124C515.253 461.691 524.602 449.147 529.906 436.255C535.3 423.432 537.098 410.192 538.985 397.09C543.21 367.612 547.705 338.343 552.469 309.283C546.447 289.003 538.266 267.4 523.704 246.563C509.59 226.493 488.016 207.119 460.778 197.502C460.598 197.363 458.261 197.015 458.081 196.945C457.362 196.527 449.811 195.412 449.002 194.994C410.258 184.889 374.121 177.572 349.04 177.711C317.757 183.007 286.654 189.349 255.821 196.806C241.258 200.29 226.605 204.193 213.93 211.44Z" stroke="url(#paint27_linear)" stroke-miterlimit="10"/>
<path d="M215.368 213.739C194.423 225.795 184.265 246.214 176.804 265.448C166.107 292.975 157.747 320.92 149.566 348.865C156.398 374.51 162.781 400.992 168.624 428.31C170.691 438.136 172.939 448.38 179.771 457.927C188.041 469.356 203.233 477.998 219.144 482.946C235.055 487.963 251.685 489.984 267.956 492.005C295.104 495.489 321.892 499.183 348.321 503.085C377.806 497.51 407.741 492.075 438.035 486.848C459.07 483.224 481.364 479.322 499.612 468.241C513.276 459.879 522.535 447.544 527.839 434.93C533.142 422.317 535.12 409.285 537.098 396.462C541.592 367.542 546.267 338.76 551.211 310.258C545.008 290.257 536.558 268.932 521.816 248.305C507.613 228.513 486.218 209.349 459.16 199.732C458.89 199.592 456.733 199.244 456.463 199.105C455.654 198.617 448.283 197.571 447.474 197.084C408.819 186.839 372.952 179.243 348.501 179.383C317.667 184.888 286.924 191.439 256.54 199.035C242.337 202.589 227.954 206.561 215.368 213.739Z" stroke="url(#paint28_linear)" stroke-miterlimit="10"/>
<path d="M216.807 216.108C196.221 228.025 186.063 248.165 178.602 267.12C167.905 294.229 159.455 321.686 151.184 349.213C158.466 374.371 165.298 400.365 171.59 427.264C173.838 436.951 176.175 446.986 183.097 456.464C191.367 467.684 206.289 476.186 222.021 481.203C237.752 486.221 254.113 488.311 270.114 490.402C296.812 494.026 323.151 497.859 349.13 501.901C378.166 496.117 407.561 490.542 437.316 485.176C457.991 481.412 479.925 477.44 497.904 466.429C511.388 458.206 520.467 446.08 525.771 433.676C531.075 421.271 533.142 408.518 535.21 395.905C539.884 367.472 544.739 339.318 549.952 311.303C543.57 291.581 534.85 270.535 520.018 250.186C505.815 230.604 484.42 211.648 457.632 202.031C457.362 201.892 455.205 201.544 455.025 201.404C454.216 200.916 446.934 199.871 446.125 199.383C407.651 188.791 372.053 180.986 348.141 181.125C317.667 186.77 287.373 193.529 257.439 201.265C243.415 204.889 229.212 208.931 216.807 216.108Z" stroke="url(#paint29_linear)" stroke-miterlimit="10"/>
<path d="M218.245 218.408C197.929 230.255 187.861 250.047 180.4 268.723C169.703 295.414 161.253 322.523 152.892 349.631C160.623 374.231 167.995 399.807 174.647 426.219C177.074 435.697 179.501 445.592 186.513 454.931C194.783 466.011 209.525 474.374 224.987 479.391C240.449 484.409 256.54 486.569 272.361 488.799C298.61 492.562 324.589 496.535 350.119 500.786C378.615 494.792 407.471 489.078 436.687 483.503C457.002 479.67 478.577 475.558 496.286 464.617C509.5 456.464 518.49 444.547 523.793 432.421C529.097 420.226 531.255 407.682 533.412 395.347C538.266 367.472 543.39 339.805 548.784 312.348C542.222 292.975 533.232 272.208 518.22 251.998C503.927 232.694 482.622 213.948 456.104 204.331C455.834 204.192 453.766 203.843 453.497 203.704C452.688 203.216 445.586 202.101 444.777 201.613C406.303 190.742 370.974 182.728 347.692 182.867C317.667 188.721 287.823 195.62 258.248 203.495C244.494 207.188 230.471 211.3 218.245 218.408Z" stroke="url(#paint30_linear)" stroke-miterlimit="10"/>
<path d="M219.683 220.777C199.727 232.554 189.659 251.997 182.198 270.395C171.5 296.668 162.871 323.358 154.51 350.049C162.691 374.161 170.512 399.249 177.613 425.243C180.13 434.581 182.827 444.337 189.749 453.466C198.019 464.338 212.492 472.631 227.774 477.648C243.056 482.666 258.877 484.896 274.339 487.196C300.228 491.098 325.758 495.21 350.838 499.6C378.795 493.468 407.111 487.544 435.877 481.83C455.834 477.857 477.049 473.606 494.488 462.805C507.433 454.721 516.332 443.083 521.636 431.097C526.94 419.11 529.187 406.845 531.434 394.719C536.468 367.332 541.772 340.223 547.435 313.323C540.693 294.228 531.434 273.74 516.332 253.739C501.949 234.715 480.734 216.177 454.575 206.491C454.306 206.351 452.238 206.003 451.968 205.863C451.069 205.376 444.148 204.261 443.339 203.773C405.134 192.692 369.985 184.399 347.422 184.539C317.847 190.602 288.362 197.64 259.237 205.654C245.573 209.487 231.819 213.669 219.683 220.777Z" stroke="url(#paint31_linear)" stroke-miterlimit="10"/>
<path d="M221.212 223.078C201.615 234.716 191.637 253.881 184.086 271.93C173.298 297.785 164.669 324.057 156.219 350.33C164.938 373.954 173.118 398.554 180.67 424.13C183.366 433.329 186.153 442.876 193.165 451.935C201.435 462.598 215.728 470.821 230.74 475.769C245.753 480.717 261.394 483.086 276.586 485.455C302.026 489.497 327.106 493.748 351.827 498.278C379.245 491.936 407.022 485.874 435.338 479.95C454.935 475.838 475.79 471.518 492.96 460.855C505.725 452.911 514.444 441.482 519.838 429.705C525.142 417.997 527.389 405.941 529.726 394.024C534.94 367.194 540.514 340.573 546.267 314.231C539.255 295.415 529.816 275.205 514.534 255.484C500.061 236.668 478.937 218.34 453.047 208.723C452.777 208.583 450.71 208.235 450.44 208.095C449.541 207.538 442.709 206.493 441.9 205.935C403.785 194.576 368.907 186.144 346.973 186.213C317.757 192.485 288.812 199.663 260.046 207.886C246.651 211.789 233.078 216.04 221.212 223.078Z" stroke="url(#paint32_linear)" stroke-miterlimit="10"/>
<path d="M222.65 225.447C203.413 237.015 193.434 255.831 185.883 273.602C175.096 299.038 166.376 324.893 157.837 350.747C167.006 373.884 175.635 397.996 183.636 423.084C186.513 432.073 189.479 441.481 196.401 450.401C204.581 460.924 218.784 469.008 233.527 473.956C248.359 478.904 263.641 481.343 278.654 483.852C303.734 488.033 328.365 492.424 352.636 497.162C379.514 490.681 406.752 484.34 434.529 478.347C453.766 474.165 474.262 469.705 491.162 459.112C503.657 451.238 512.377 440.018 517.681 428.519C522.984 417.021 525.322 405.174 527.749 393.536C533.232 367.263 538.895 341.13 544.918 315.345C537.727 296.878 528.018 276.877 512.647 257.364C498.084 238.827 477.139 220.708 451.429 211.091C451.159 210.952 449.182 210.604 448.912 210.464C448.013 209.907 441.361 208.861 440.462 208.304C402.527 196.666 367.828 188.024 346.613 188.094C317.847 194.506 289.261 201.892 261.034 210.255C247.73 214.088 234.426 218.409 222.65 225.447Z" stroke="url(#paint33_linear)" stroke-miterlimit="10"/>
<path d="M224.088 227.816C205.121 239.245 195.232 257.712 187.681 275.274C176.894 300.292 168.084 325.728 159.545 351.164C169.163 373.743 178.332 397.438 186.692 422.107C189.749 430.958 192.805 440.226 199.817 448.937C207.997 459.251 221.931 467.196 236.493 472.213C251.056 477.161 266.158 479.67 280.901 482.248C305.532 486.569 329.803 491.099 353.535 495.977C379.874 489.287 406.662 482.806 433.9 476.604C452.777 472.283 472.824 467.753 489.544 457.23C501.769 449.495 510.399 438.484 515.703 427.195C521.007 415.905 523.434 404.337 525.951 392.908C531.614 367.123 537.547 341.617 543.75 316.32C536.378 298.132 526.31 278.479 510.939 259.176C496.286 240.917 475.431 223.007 449.991 213.321C449.721 213.181 447.743 212.833 447.474 212.694C446.485 212.136 440.013 211.021 439.114 210.463C401.268 198.547 366.929 189.696 346.254 189.766C317.847 196.386 289.71 203.913 261.933 212.415C248.809 216.387 235.684 220.777 224.088 227.816Z" stroke="url(#paint34_linear)" stroke-miterlimit="10"/>
<path d="M225.526 230.116C206.918 241.475 197.12 259.594 189.569 276.877C178.782 301.547 169.882 326.495 161.253 351.513C171.321 373.605 180.939 396.881 189.749 421.063C192.895 429.774 196.221 438.833 203.143 447.474C211.323 457.579 225.077 465.454 239.46 470.472C253.843 475.42 268.675 477.998 283.148 480.646C307.33 485.106 331.151 489.845 354.524 494.863C380.323 488.033 406.572 481.343 433.27 475.001C451.789 470.541 471.475 465.942 487.926 455.489C499.972 447.823 508.422 437.021 513.725 426.01C519.029 414.93 521.546 403.571 524.153 392.421C529.996 367.193 536.109 342.175 542.581 317.436C535.03 299.526 524.692 280.153 509.141 261.058C494.398 243.009 473.633 225.377 448.463 215.691C448.193 215.551 446.305 215.203 445.945 214.994C444.957 214.436 438.574 213.321 437.675 212.764C399.92 200.638 365.85 191.509 345.804 191.579C317.847 198.408 290.16 206.074 262.742 214.715C249.888 218.687 237.033 223.078 225.526 230.116Z" stroke="url(#paint35_linear)" stroke-miterlimit="10"/>
<path d="M226.965 232.487C208.716 243.777 198.918 261.547 191.367 278.481C180.49 302.733 171.59 327.263 162.871 351.933C173.388 373.536 183.456 396.324 192.715 420.019C196.041 428.59 199.457 437.441 206.469 445.943C214.649 455.838 228.223 463.644 242.337 468.591C256.45 473.539 271.102 476.187 285.306 478.905C309.127 483.505 332.5 488.383 355.423 493.54C380.683 486.501 406.392 479.672 432.641 473.121C450.89 468.591 470.127 463.783 486.308 453.469C498.084 445.943 506.444 435.35 511.748 424.479C517.051 413.607 519.658 402.527 522.355 391.586C528.378 366.846 534.76 342.386 541.412 318.204C533.682 300.642 523.074 281.478 507.433 262.662C492.6 244.892 471.925 227.4 447.114 217.713C446.844 217.504 444.957 217.225 444.687 217.016C443.698 216.389 437.496 215.344 436.507 214.716C398.931 202.312 365.041 192.974 345.714 193.043C318.207 200.012 290.879 207.957 263.911 216.737C251.056 220.988 238.291 225.448 226.965 232.487Z" stroke="url(#paint36_linear)" stroke-miterlimit="10"/>
<path d="M228.403 234.786C210.514 245.936 200.716 263.428 193.165 280.083C182.288 303.917 173.298 328.029 164.489 352.28C175.546 373.396 185.973 395.696 195.682 418.972C199.188 427.335 202.693 436.116 209.705 444.409C217.885 454.165 231.19 461.831 245.123 466.779C258.967 471.726 273.35 474.444 287.373 477.302C310.746 482.04 333.758 487.058 356.232 492.354C380.952 485.107 406.123 478.138 431.832 471.448C449.721 466.779 468.599 461.9 484.51 451.726C496.106 444.269 504.286 433.886 509.59 423.293C514.894 412.7 517.591 401.829 520.377 391.097C526.58 366.915 533.142 342.942 540.064 319.318C532.064 302.035 521.276 283.15 505.455 264.543C490.533 246.981 469.947 229.768 445.406 220.082C445.136 219.872 443.249 219.594 442.979 219.385C441.99 218.757 435.877 217.712 434.889 217.085C397.403 204.402 363.783 194.854 345.085 194.994C317.937 202.172 291.059 210.255 264.54 219.176C252.135 223.287 239.64 227.817 228.403 234.786Z" stroke="url(#paint37_linear)" stroke-miterlimit="10"/>
<path d="M229.931 237.155C212.402 248.235 202.604 265.378 195.052 281.755C184.175 305.17 175.096 328.864 166.197 352.698C177.703 373.326 188.58 395.138 198.738 417.996C202.334 426.219 206.109 434.791 213.121 443.014C221.301 452.561 234.426 460.157 248.09 465.105C261.754 470.053 275.867 472.841 289.621 475.768C312.633 480.646 335.107 485.803 357.221 491.308C381.402 483.921 406.123 476.743 431.293 469.844C448.822 465.036 467.34 460.088 482.982 449.983C494.308 442.666 502.399 432.491 507.702 422.108C513.006 411.724 515.793 401.062 518.58 390.608C525.052 366.914 531.794 343.569 538.895 320.432C530.715 303.428 519.658 284.821 503.747 266.493C488.645 249.071 468.149 232.067 443.878 222.311C443.608 222.102 441.81 221.823 441.451 221.614C440.372 220.987 434.439 219.872 433.45 219.245C396.144 206.352 362.704 196.526 344.635 196.666C317.937 204.053 291.508 212.276 265.349 221.335C253.214 225.586 240.898 230.186 229.931 237.155Z" stroke="url(#paint38_linear)" stroke-miterlimit="10"/>
<path d="M231.37 239.454C214.11 250.396 204.491 267.26 196.85 283.358C185.973 306.355 176.804 329.631 167.815 353.047C179.771 373.117 191.187 394.511 201.705 416.881C205.48 424.965 209.346 433.328 216.447 441.412C224.628 450.75 237.572 458.276 250.966 463.154C264.36 468.102 278.294 470.959 291.778 473.956C314.341 478.974 336.455 484.27 358.03 489.915C381.672 482.319 405.853 475.001 430.484 467.963C447.654 463.085 465.722 457.997 481.184 447.962C492.241 440.715 500.241 430.819 505.545 420.644C510.849 410.47 513.725 400.086 516.602 389.772C523.254 366.636 530.176 343.778 537.547 321.199C529.187 304.474 517.86 286.215 501.769 268.027C486.757 251.023 466.351 234.158 442.26 224.471C441.9 224.262 440.192 223.984 439.923 223.775C438.844 223.147 433.091 222.032 432.012 221.405C394.796 208.234 361.625 198.269 344.276 198.338C318.027 205.934 291.958 214.297 266.248 223.496C254.292 227.886 242.157 232.555 231.37 239.454Z" stroke="url(#paint39_linear)" stroke-miterlimit="10"/>
<path d="M232.808 241.824C215.908 252.695 206.289 269.211 198.648 284.961C187.771 307.54 178.512 330.467 169.523 353.395C181.928 372.977 193.794 393.884 204.761 415.836C208.716 423.711 212.762 432.004 219.773 439.878C227.954 449.007 240.629 456.394 253.843 461.342C267.057 466.29 280.631 469.217 293.935 472.353C316.049 477.51 337.804 482.946 358.929 488.8C382.031 481.064 405.673 473.538 429.855 466.29C446.665 461.273 464.374 456.116 479.566 446.15C490.443 439.042 498.354 429.286 503.567 419.32C508.781 409.355 511.748 399.18 514.804 389.145C521.636 366.496 528.827 344.196 536.378 322.175C527.839 305.798 516.242 287.748 500.062 269.839C484.959 253.044 464.643 236.458 440.912 226.701C440.552 226.492 438.934 226.214 438.574 226.005C437.496 225.308 431.832 224.262 430.754 223.635C393.717 210.185 360.816 200.011 344.006 200.08C318.117 207.816 292.497 216.388 267.237 225.795C255.371 230.186 243.505 234.925 232.808 241.824Z" stroke="url(#paint40_linear)" stroke-miterlimit="10"/>
<path d="M234.246 244.124C217.706 254.926 208.087 271.094 200.446 286.564C189.479 308.725 180.22 331.235 171.141 353.814C183.996 372.908 196.311 393.327 207.728 414.861C211.863 422.596 215.998 430.68 223.099 438.485C231.28 447.475 243.775 454.723 256.72 459.67C269.664 464.618 283.058 467.685 296.093 470.821C317.847 476.117 339.062 481.692 359.827 487.685C382.391 479.741 405.493 472.075 429.225 464.688C445.676 459.531 463.025 454.304 477.948 444.409C488.555 437.37 496.376 427.893 501.59 418.136C506.803 408.38 509.86 398.484 513.006 388.658C520.018 366.567 527.389 344.754 535.12 323.29C526.4 307.192 514.534 289.422 498.174 271.721C482.982 255.205 462.756 238.828 439.293 229.071C438.934 228.862 437.316 228.514 436.956 228.375C435.788 227.678 430.304 226.632 429.225 225.935C392.279 212.207 359.648 201.823 343.467 201.893C318.027 209.837 292.857 218.548 267.956 228.096C256.45 232.486 244.764 237.295 234.246 244.124Z" stroke="url(#paint41_linear)" stroke-miterlimit="10"/>
<path d="M235.684 246.493C219.504 257.156 209.975 273.045 202.244 288.237C191.277 309.98 181.928 332.071 172.759 354.232C186.153 372.839 198.828 392.769 210.694 413.815C214.919 421.411 219.234 429.286 226.335 436.952C234.516 445.733 246.831 452.911 259.596 457.859C272.361 462.806 285.485 465.942 298.25 469.148C319.555 474.584 340.41 480.368 360.726 486.431C382.75 478.277 405.314 470.472 428.506 462.876C444.597 457.649 461.587 452.214 476.24 442.527C486.577 435.628 494.308 426.29 499.522 416.812C504.736 407.334 507.882 397.578 511.118 388.031C518.31 366.497 525.951 345.172 533.861 324.266C524.962 308.447 512.826 290.955 496.376 273.533C481.094 257.295 460.958 241.127 437.765 231.371C437.406 231.162 435.788 230.814 435.518 230.605C434.349 229.908 429.046 228.793 427.877 228.165C391.11 214.228 358.659 203.565 343.197 203.635C318.207 211.789 293.396 220.639 268.945 230.326C257.529 234.786 246.112 239.664 235.684 246.493Z" stroke="url(#paint42_linear)" stroke-miterlimit="10"/>
<path d="M237.123 248.794C221.212 259.387 211.773 274.927 204.042 289.84C193.075 311.165 183.636 332.838 174.377 354.581C188.221 372.7 201.435 392.143 213.66 412.771C218.065 420.227 222.56 427.893 229.662 435.419C237.842 443.991 249.888 451.099 262.473 455.978C274.968 460.925 287.823 464.131 300.408 467.406C321.353 472.982 341.759 478.905 361.625 485.177C383.11 476.884 405.224 468.8 427.877 461.135C443.608 455.769 460.239 450.263 474.622 440.646C484.78 433.817 492.331 424.757 497.544 415.489C502.758 406.22 505.994 396.742 509.32 387.404C516.782 366.358 524.512 345.661 532.693 325.242C523.524 309.771 511.208 292.489 494.668 275.275C479.296 259.247 459.25 243.288 436.327 233.532C435.967 233.323 434.439 232.975 434.08 232.766C432.911 232.069 427.697 230.954 426.528 230.257C389.852 216.04 357.67 205.169 342.838 205.239C318.207 213.532 293.935 222.661 269.934 232.417C258.607 237.086 247.371 242.034 237.123 248.794Z" stroke="url(#paint43_linear)" stroke-miterlimit="10"/>
<path d="M238.651 251.162C223.099 261.615 213.66 276.807 206.019 291.442C195.052 312.348 185.524 333.603 176.175 354.928C190.468 372.489 204.132 391.514 216.807 411.724C221.391 418.972 225.976 426.568 233.077 433.955C241.168 442.387 253.124 449.356 265.439 454.234C277.755 459.182 290.34 462.457 302.655 465.872C323.151 471.586 343.107 477.649 362.524 484.061C383.469 475.559 405.044 467.335 427.158 459.461C442.53 453.955 458.8 448.38 472.914 438.833C482.802 432.143 490.263 423.292 495.477 414.233C500.691 405.173 504.017 395.975 507.343 386.845C514.984 366.357 522.984 346.147 531.344 326.286C521.995 311.094 509.32 294.09 492.69 277.086C477.228 261.336 457.362 245.587 434.619 235.83C434.259 235.621 432.731 235.273 432.372 235.064C431.113 234.297 426.079 233.252 424.91 232.555C388.414 218.06 356.411 206.979 342.208 207.049C318.027 215.551 294.115 224.82 270.563 234.785C259.686 239.385 248.719 244.402 238.651 251.162Z" stroke="url(#paint44_linear)" stroke-miterlimit="10"/>
<path d="M240.089 253.462C224.897 263.846 215.458 278.69 207.817 293.045C196.761 313.534 187.232 334.371 177.793 355.277C192.536 372.351 206.649 390.888 219.773 410.61C224.538 417.718 229.212 425.105 236.404 432.353C244.494 440.576 256.27 447.405 268.316 452.353C280.362 457.301 292.767 460.646 304.813 464.13C324.859 469.984 344.456 476.187 363.423 482.807C383.829 474.166 404.864 465.733 426.529 457.719C441.541 452.144 457.362 446.43 471.296 436.952C481.004 430.332 488.285 421.69 493.499 412.84C498.713 403.989 502.129 395 505.545 386.149C513.366 366.149 521.546 346.496 530.176 327.193C520.647 312.279 507.702 295.624 490.982 278.829C475.431 263.288 455.654 247.818 433.271 237.991C432.911 237.782 431.473 237.434 431.023 237.225C429.765 236.458 424.821 235.413 423.652 234.646C387.245 219.942 355.513 208.583 342.029 208.653C318.297 217.364 294.745 226.772 271.642 236.876C260.765 241.685 249.978 246.772 240.089 253.462Z" stroke="url(#paint45_linear)" stroke-miterlimit="10"/>
<path d="M241.527 255.83C226.695 266.074 217.346 280.639 209.615 294.716C198.558 314.856 188.85 335.205 179.411 355.694C194.603 372.279 209.166 390.329 222.74 409.632C227.594 416.601 232.538 423.779 239.64 430.887C247.73 438.902 259.237 445.661 271.102 450.609C282.968 455.557 295.104 458.972 306.88 462.526C326.567 468.519 345.714 474.861 364.232 481.621C384.099 472.77 404.594 464.198 425.719 455.975C440.372 450.261 455.834 444.477 469.498 435.138C478.936 428.657 486.218 420.225 491.342 411.584C496.556 402.942 500.061 394.231 503.567 385.59C511.568 366.147 520.018 346.983 528.827 328.236C519.119 313.671 505.905 297.225 489.005 280.639C473.453 265.377 453.676 250.116 431.563 240.29C431.203 240.08 429.765 239.732 429.405 239.523C428.147 238.756 423.382 237.641 422.124 236.945C385.897 221.961 354.434 210.463 341.489 210.463C318.117 219.313 295.104 228.93 272.361 239.175C261.843 243.983 251.236 249.14 241.527 255.83Z" stroke="url(#paint46_linear)" stroke-miterlimit="10"/>
<path d="M242.966 258.202C228.403 268.376 219.144 282.593 211.413 296.391C200.356 316.113 190.558 336.044 181.119 356.184C196.85 372.282 211.863 389.843 225.796 408.729C230.83 415.488 235.864 422.597 243.056 429.565C251.146 437.44 262.473 444.061 274.069 448.939C285.665 453.817 297.531 457.371 309.127 461.065C328.365 467.197 347.152 473.678 365.221 480.577C384.548 471.518 404.594 462.807 425.18 454.444C439.473 448.59 454.575 442.737 467.969 433.468C477.139 427.057 484.33 418.833 489.544 410.471C494.758 402.108 498.353 393.537 501.949 385.174C510.13 366.219 518.759 347.612 527.839 329.423C517.95 315.137 504.466 298.969 487.476 282.662C471.835 267.679 452.148 252.557 430.304 242.731C429.944 242.522 428.506 242.173 428.147 241.964C426.798 241.198 422.214 240.083 420.955 239.316C384.818 224.054 353.625 212.347 341.309 212.416C318.386 221.476 295.733 231.232 273.44 241.616C262.922 246.355 252.584 251.512 242.966 258.202Z" stroke="url(#paint47_linear)" stroke-miterlimit="10"/>
<path d="M244.404 260.501C230.201 270.536 220.942 284.474 213.211 297.994C202.154 317.297 192.266 336.81 182.737 356.532C198.918 372.072 214.38 389.216 228.763 407.683C233.976 414.304 239.19 421.203 246.382 428.032C254.472 435.698 265.619 442.249 276.946 447.127C288.362 452.005 299.958 455.629 311.285 459.392C330.163 465.664 348.411 472.284 366.12 479.393C384.908 470.194 404.415 461.274 424.461 452.702C438.394 446.778 453.137 440.716 466.262 431.586C475.251 425.314 482.263 417.3 487.476 409.147C492.69 400.993 496.286 392.7 500.061 384.547C508.511 366.149 517.321 348.1 526.58 330.399C516.422 316.391 502.758 300.502 485.589 284.404C469.857 269.63 450.26 254.787 428.686 244.961C428.326 244.752 426.978 244.403 426.529 244.194C425.18 243.358 420.685 242.313 419.427 241.546C383.47 226.006 352.456 214.089 340.86 214.159C318.387 223.427 296.093 233.323 274.249 243.915C264.091 248.654 253.843 253.811 244.404 260.501Z" stroke="url(#paint48_linear)" stroke-miterlimit="10"/>
<path d="M245.932 262.869C232.089 272.834 222.92 286.424 215.099 299.595C203.952 318.48 194.064 337.645 184.445 356.879C201.075 371.931 216.987 388.587 231.819 406.566C237.123 413.047 242.516 419.807 249.708 426.428C257.798 433.884 268.675 440.365 279.912 445.243C291.059 450.122 302.475 453.815 313.532 457.648C331.96 464.059 349.849 470.889 367.109 478.067C385.357 468.659 404.325 459.599 423.922 450.888C437.496 444.825 451.879 438.693 464.733 429.633C473.453 423.501 480.375 415.626 485.589 407.751C490.802 399.807 494.488 391.723 498.354 383.848C506.983 365.938 515.973 348.446 525.411 331.303C515.074 317.644 501.14 301.964 483.881 286.145C468.059 271.65 448.642 257.015 427.338 247.119C426.888 246.91 425.63 246.562 425.27 246.283C423.922 245.447 419.607 244.401 418.258 243.565C382.391 227.816 351.647 215.62 340.68 215.69C318.566 225.167 296.812 235.203 275.327 245.935C265.17 250.952 255.191 256.179 245.932 262.869Z" stroke="url(#paint49_linear)" stroke-miterlimit="10"/>
<path d="M247.371 265.17C233.797 274.996 224.717 288.306 216.897 301.199C205.75 319.666 195.772 338.412 186.063 357.228C203.143 371.793 219.504 387.961 234.785 405.522C240.269 411.864 245.752 418.415 253.034 424.965C261.124 432.213 271.822 438.555 282.789 443.503C293.756 448.381 304.813 452.144 315.69 456.046C333.668 462.597 351.198 469.566 367.918 476.883C385.627 467.336 404.055 458.067 423.202 449.147C436.417 442.945 450.44 436.743 463.025 427.753C471.565 421.69 478.307 414.094 483.521 406.359C488.735 398.623 492.51 390.818 496.466 383.152C505.275 365.8 514.534 348.796 524.153 332.21C513.635 318.83 499.432 303.429 482.083 287.819C466.172 273.532 446.844 259.107 425.809 249.281C425.36 249.002 424.191 248.723 423.742 248.445C422.393 247.608 418.168 246.493 416.82 245.727C381.132 229.698 350.568 217.294 340.231 217.364C318.566 226.981 297.172 237.225 276.136 248.096C266.248 253.253 256.45 258.549 247.371 265.17Z" stroke="url(#paint50_linear)" stroke-miterlimit="10"/>
<path d="M248.809 267.539C235.595 277.296 226.515 290.258 218.695 302.871C207.548 320.92 197.48 339.249 187.681 357.646C205.211 371.723 222.111 387.403 237.752 404.547C243.415 410.679 249.079 417.091 256.27 423.502C264.361 430.61 274.878 436.812 285.575 441.691C296.273 446.569 307.15 450.402 317.757 454.444C335.376 461.134 352.366 468.242 368.727 475.768C385.897 466.012 403.785 456.604 422.393 447.544C435.248 441.272 448.912 434.931 461.227 426.08C469.498 420.157 476.15 412.77 481.364 405.243C486.577 397.717 490.443 390.191 494.398 382.734C503.388 365.87 512.826 349.423 522.715 333.395C512.017 320.293 497.544 305.241 480.015 289.839C464.014 275.832 444.777 261.616 424.012 251.79C423.562 251.511 422.393 251.232 421.944 250.953C420.506 250.117 416.46 249.002 415.112 248.166C379.514 231.859 349.22 219.245 339.601 219.315C318.297 229.141 297.351 239.594 276.766 250.535C267.327 255.553 257.708 260.919 248.809 267.539Z" stroke="url(#paint51_linear)" stroke-miterlimit="10"/>
<path d="M250.247 269.839C237.392 279.456 228.313 292.14 220.582 304.474C209.435 322.106 199.278 340.015 189.389 358.065C207.458 371.654 224.717 386.846 240.808 403.502C246.651 409.495 252.405 415.767 259.686 421.969C267.687 428.868 278.024 435.001 288.542 439.879C299.059 444.757 309.667 448.66 320.005 452.771C337.174 459.601 353.805 466.848 369.716 474.514C386.346 464.549 403.785 455.001 421.854 445.733C434.439 439.322 447.564 432.91 459.699 424.129C467.7 418.276 474.262 411.098 479.476 403.85C484.6 396.603 488.645 389.216 492.69 382.038C501.859 365.731 511.568 349.842 521.636 334.301C510.759 321.548 496.016 306.704 478.397 291.512C462.396 277.714 443.159 263.776 422.663 253.881C422.214 253.602 421.045 253.323 420.685 253.044C419.247 252.208 415.382 251.093 413.943 250.257C378.525 233.671 348.501 220.918 339.422 220.918C318.566 230.953 298.071 241.546 277.934 252.696C268.406 257.853 259.057 263.289 250.247 269.839Z" stroke="url(#paint52_linear)" stroke-miterlimit="10"/>
<path d="M251.686 272.209C239.1 281.757 230.201 294.091 222.38 306.078C211.144 323.291 200.986 340.783 191.097 358.414C209.615 371.446 227.324 386.22 243.865 402.457C249.798 408.311 255.731 414.374 263.012 420.506C271.013 427.196 281.171 433.259 291.418 438.137C301.666 443.016 312.094 446.988 322.072 451.169C338.882 458.138 355.063 465.525 370.525 473.4C386.616 463.295 403.516 453.469 421.045 444.131C433.271 437.58 446.035 431.099 457.901 422.388C465.722 416.673 472.195 409.705 477.318 402.666C482.442 395.627 486.577 388.519 490.713 381.481C500.151 365.731 509.95 350.33 520.288 335.347C509.231 322.873 494.218 308.308 476.42 293.395C460.329 279.875 441.181 266.146 420.955 256.251C420.506 255.972 419.427 255.693 418.977 255.414C417.539 254.508 413.764 253.463 412.325 252.557C376.997 235.762 347.242 222.73 338.792 222.73C318.387 232.905 298.25 243.707 278.564 254.996C269.484 260.153 260.315 265.659 251.686 272.209Z" stroke="url(#paint53_linear)" stroke-miterlimit="10"/>
<path d="M253.124 274.508C240.898 283.916 231.999 295.902 224.178 307.679C212.941 324.474 202.693 341.548 192.715 358.761C211.683 371.305 229.841 385.591 246.921 401.41C253.034 407.055 259.147 412.979 266.428 418.972C274.429 425.523 284.317 431.446 294.385 436.324C304.453 441.202 314.521 445.314 324.319 449.565C340.68 456.673 356.411 464.2 371.514 472.214C387.065 461.9 403.426 451.934 420.506 442.387C432.372 435.767 444.777 429.146 456.373 420.505C463.924 414.86 470.307 408.1 475.431 401.271C480.555 394.441 484.78 387.542 489.005 380.783C498.623 365.521 508.691 350.677 519.209 336.252C507.882 324.056 492.69 309.77 474.801 295.066C458.621 281.825 439.563 268.236 419.697 258.34C419.247 258.061 418.168 257.713 417.719 257.504C416.191 256.598 412.595 255.483 411.157 254.646C376.008 237.573 346.433 224.332 338.702 224.332C318.656 234.716 298.969 245.657 279.732 257.086C270.563 262.452 261.664 268.027 253.124 274.508Z" stroke="url(#paint54_linear)" stroke-miterlimit="10"/>
<path d="M254.652 276.876C242.786 286.215 233.887 297.853 226.066 309.351C214.829 325.728 204.491 342.384 194.423 359.179C213.84 371.235 232.538 385.033 249.978 400.364C256.27 405.87 262.473 411.654 269.844 417.438C277.845 423.78 287.553 429.564 297.351 434.442C307.15 439.32 317.038 443.502 326.567 447.822C342.478 455.07 357.85 462.736 372.413 470.889C387.425 460.436 403.246 450.261 419.787 440.575C431.293 433.815 443.339 427.125 454.665 418.553C462.036 413.048 468.239 406.497 473.363 399.877C478.487 393.256 482.712 386.636 487.117 380.085C496.915 365.381 507.163 351.025 517.95 337.157C506.444 325.31 490.982 311.233 472.914 296.807C456.643 283.776 437.765 270.465 418.079 260.569C417.629 260.291 416.64 259.942 416.101 259.733C414.573 258.827 411.157 257.712 409.629 256.806C374.57 239.454 345.265 226.004 338.163 226.004C318.566 236.597 299.329 247.677 280.451 259.245C271.642 264.751 262.922 270.395 254.652 276.876Z" stroke="url(#paint55_linear)" stroke-miterlimit="10"/>
<path d="M256.09 279.178C244.494 288.377 235.774 299.736 227.864 310.956C216.627 326.915 206.199 343.152 196.041 359.529C215.908 371.097 235.055 384.408 252.944 399.321C259.326 404.687 265.709 410.262 273.08 415.976C281.081 422.109 290.609 427.824 300.228 432.702C309.847 437.58 319.465 441.831 328.724 446.221C344.276 453.608 359.198 461.483 373.312 469.776C387.784 459.114 403.156 448.8 419.157 438.904C430.304 432.005 441.99 425.245 453.047 416.813C460.149 411.377 466.262 405.035 471.385 398.694C476.509 392.282 480.824 385.941 485.319 379.599C495.297 365.383 505.815 351.584 516.782 338.274C505.096 326.706 489.364 312.907 471.206 298.691C454.845 285.938 436.057 272.836 416.64 262.871C416.191 262.592 415.202 262.244 414.752 261.965C413.224 261.059 409.898 259.944 408.37 259.038C373.491 241.477 344.366 227.748 337.893 227.748C318.746 238.55 299.868 249.77 281.44 261.547C272.721 267.052 264.181 272.697 256.09 279.178Z" stroke="url(#paint56_linear)" stroke-miterlimit="10"/>
<path d="M257.529 281.546C246.292 290.675 237.572 301.686 229.662 312.557C218.335 328.167 207.907 343.917 197.659 359.876C218.065 370.956 237.572 383.779 255.91 398.274C262.473 403.501 269.035 408.867 276.406 414.442C284.407 420.435 293.666 426.01 303.105 430.888C312.454 435.766 321.802 440.087 330.882 444.547C345.984 452.073 360.457 460.088 374.21 468.52C388.144 457.648 402.976 447.195 418.438 437.16C429.225 430.191 440.552 423.222 451.339 414.929C458.171 409.633 464.194 403.501 469.318 397.368C474.442 391.235 478.847 385.033 483.341 378.97C493.499 365.311 504.197 352.07 515.433 339.248C503.567 327.958 487.566 314.439 469.228 300.431C452.867 287.887 434.08 274.995 414.932 265.099C414.483 264.821 413.494 264.472 413.044 264.193C411.426 263.218 408.28 262.172 406.752 261.197C371.963 243.357 343.107 229.419 337.354 229.489C318.566 240.43 300.228 251.859 282.159 263.775C273.799 269.35 265.529 275.065 257.529 281.546Z" stroke="url(#paint57_linear)" stroke-miterlimit="10"/>
<path d="M258.967 283.916C248.09 292.906 239.37 303.638 231.459 314.23C220.133 329.422 209.615 344.823 199.277 360.364C220.133 370.887 240.089 383.292 258.877 397.299C265.619 402.316 272.271 407.613 279.642 412.979C287.553 418.763 296.722 424.268 305.891 429.077C315.06 433.955 324.14 438.345 332.949 442.945C347.692 450.611 361.715 458.764 375.019 467.405C388.414 456.395 402.707 445.732 417.719 435.488C428.147 428.38 439.114 421.341 449.631 413.118C456.283 407.892 462.126 402.038 467.25 396.114C472.374 390.191 476.869 384.267 481.453 378.413C491.881 365.242 502.758 352.559 514.085 340.294C502.039 329.353 485.768 316.042 467.34 302.314C450.89 290.048 432.192 277.365 413.404 267.4C412.955 267.121 412.056 266.772 411.516 266.494C409.898 265.518 406.932 264.403 405.314 263.497C370.705 245.378 342.118 231.231 336.905 231.301C318.566 242.451 300.588 254.019 282.968 266.076C274.878 271.651 266.788 277.435 258.967 283.916Z" stroke="url(#paint58_linear)" stroke-miterlimit="10"/>
<path d="M260.405 286.217C249.798 295.137 241.168 305.52 233.257 315.834C221.931 330.608 211.323 345.591 200.985 360.714C222.29 370.749 242.696 382.665 261.933 396.255C268.855 401.133 275.597 406.22 283.058 411.516C290.969 417.161 299.958 422.527 308.858 427.336C317.757 432.214 326.657 436.674 335.197 441.343C349.49 449.148 363.154 457.441 376.008 466.222C388.863 455.002 402.617 444.2 417.09 433.817C427.158 426.569 437.765 419.461 448.013 411.307C454.395 406.22 460.149 400.506 465.273 394.791C470.397 389.077 474.981 383.362 479.656 377.787C490.263 365.174 501.32 352.978 512.916 341.27C500.601 330.608 484.15 317.576 465.632 304.057C449.092 292.001 430.484 279.596 411.966 269.631C411.516 269.352 410.617 269.004 410.168 268.725C408.55 267.749 405.673 266.634 404.055 265.658C369.536 247.261 341.219 232.975 336.635 232.975C318.746 244.334 301.127 256.111 283.957 268.237C275.957 273.951 268.046 279.805 260.405 286.217Z" stroke="url(#paint59_linear)" stroke-miterlimit="10"/>
<path d="M261.933 288.585C251.685 297.366 243.146 307.471 235.145 317.506C223.818 331.862 213.121 346.427 202.693 361.131C224.448 370.678 245.393 382.107 264.99 395.278C272.001 400.017 279.013 404.965 286.384 410.052C294.295 415.488 303.015 420.715 311.734 425.593C320.454 430.471 329.084 435.001 337.354 439.739C351.198 447.684 364.412 456.116 376.817 465.036C389.133 453.677 402.347 442.666 416.37 432.074C426.079 424.756 436.327 417.509 446.305 409.495C452.508 404.547 458.171 399.041 463.205 393.536C468.329 388.031 473.003 382.595 477.768 377.229C488.555 365.103 499.882 353.465 511.658 342.315C499.162 331.931 482.442 319.178 463.744 305.938C447.114 294.16 428.686 281.965 410.348 271.999C409.808 271.721 408.999 271.372 408.55 271.093C406.842 270.118 404.145 269.003 402.527 268.027C368.188 249.42 340.051 234.855 336.185 234.855C318.656 246.354 301.576 258.34 284.766 270.675C277.035 276.25 269.394 282.174 261.933 288.585Z" stroke="url(#paint60_linear)" stroke-miterlimit="10"/>
<path d="M263.372 290.886C253.483 299.527 244.943 309.353 237.033 319.109C225.706 333.047 214.919 347.194 204.401 361.48C226.605 370.54 248 381.481 268.046 394.164C275.238 398.694 282.339 403.502 289.8 408.45C297.711 413.677 306.251 418.834 314.701 423.712C323.151 428.52 331.511 433.189 339.601 437.998C353.085 446.082 365.85 454.653 377.806 463.783C389.582 452.214 402.347 441.064 415.831 430.332C425.18 422.876 435.068 415.558 444.777 407.614C450.71 402.736 456.283 397.439 461.317 392.213C466.441 386.986 471.206 381.69 476.06 376.602C487.027 365.034 498.533 353.884 510.579 343.291C497.904 333.187 480.914 320.712 462.126 307.681C445.406 296.112 427.068 284.126 408.999 274.16C408.46 273.882 407.741 273.533 407.201 273.254C405.493 272.209 402.976 271.164 401.268 270.118C367.019 251.233 339.152 236.459 335.916 236.459C318.836 248.167 302.116 260.292 285.755 272.767C278.204 278.551 270.653 284.544 263.372 290.886Z" stroke="url(#paint61_linear)" stroke-miterlimit="10"/>
<path d="M264.81 293.253C255.191 301.825 246.741 311.302 238.831 320.71C227.414 334.23 216.537 347.958 206.02 361.826C228.763 370.398 250.517 380.851 271.013 393.117C278.384 397.507 285.575 402.176 293.037 406.985C300.947 412.072 309.307 417.089 317.488 421.898C325.758 426.706 333.848 431.445 341.669 436.393C354.704 444.616 367.109 453.327 378.615 462.596C389.852 450.819 402.077 439.529 415.022 428.588C424.011 420.992 433.54 413.605 442.979 405.73C448.732 400.991 454.126 395.904 459.25 390.887C464.374 385.869 469.228 380.851 474.172 375.973C485.319 364.962 497.095 354.37 509.321 344.265C496.466 334.509 479.206 322.313 460.239 309.49C443.518 298.201 425.18 286.424 407.381 276.458C406.842 276.179 406.123 275.831 405.673 275.483C403.965 274.437 401.538 273.322 399.83 272.347C365.76 253.182 338.073 238.199 335.466 238.199C318.836 250.116 302.475 262.381 286.654 274.995C279.283 280.849 271.912 286.911 264.81 293.253Z" stroke="url(#paint62_linear)" stroke-miterlimit="10"/>
<path d="M266.248 295.554C256.989 303.986 248.629 313.185 240.629 322.314C229.212 335.416 218.245 348.726 207.638 362.246C230.83 370.26 253.034 380.295 273.979 392.142C281.53 396.393 288.811 400.853 296.363 405.522C304.183 410.401 312.364 415.349 320.454 420.157C328.455 424.966 336.365 429.774 343.916 434.792C356.591 443.154 368.457 452.074 379.604 461.482C390.391 449.566 401.987 437.997 414.483 426.986C423.112 419.321 432.282 411.794 441.451 403.989C446.934 399.32 452.238 394.512 457.362 389.633C462.486 384.825 467.34 380.086 472.374 375.417C483.701 364.894 495.657 354.859 508.152 345.312C495.117 335.834 477.588 323.917 458.531 311.304C441.72 300.223 423.472 288.725 406.033 278.689C405.493 278.411 404.864 278.062 404.325 277.714C402.527 276.669 400.28 275.554 398.572 274.508C364.592 255.135 337.174 239.873 335.286 239.873C319.016 251.999 303.194 264.403 287.733 277.156C280.361 283.15 273.26 289.212 266.248 295.554Z" stroke="url(#paint63_linear)" stroke-miterlimit="10"/>
<path d="M267.687 297.923C258.697 306.286 250.427 315.067 242.426 323.987C231.01 336.67 219.953 349.563 209.256 362.664C232.898 370.19 255.641 379.738 276.946 391.097C284.587 395.209 292.138 399.46 299.689 403.989C307.509 408.728 315.51 413.537 323.331 418.345C331.151 423.154 338.703 428.032 346.074 433.119C358.299 441.621 369.806 450.681 380.503 460.228C390.751 448.102 401.808 436.394 413.764 425.175C422.034 417.369 430.754 409.773 439.743 402.038C445.047 397.508 450.171 392.839 455.294 388.24C460.329 383.64 465.363 379.11 470.487 374.72C482.083 364.755 494.218 355.207 506.893 346.218C493.589 337.019 475.88 325.311 456.643 313.046C439.743 302.174 421.584 290.885 404.415 280.92C403.875 280.571 403.246 280.292 402.707 279.944C400.909 278.899 398.841 277.784 397.043 276.738C363.243 257.086 336.096 241.615 334.747 241.615C318.926 253.88 303.464 266.494 288.452 279.456C281.44 285.449 274.518 291.582 267.687 297.923Z" stroke="url(#paint64_linear)" stroke-miterlimit="10"/>
<path d="M269.125 300.224C260.495 308.447 252.225 316.949 244.224 325.59C232.808 337.856 221.661 350.33 210.964 363.013C235.055 370.052 258.248 379.111 280.002 390.052C287.823 393.955 295.464 398.136 303.015 402.526C310.835 407.056 318.656 411.725 326.207 416.603C333.758 421.412 341.13 426.36 348.231 431.586C360.007 440.228 371.154 449.427 381.312 459.113C391.021 446.848 401.538 434.932 413.044 423.572C420.955 415.628 429.405 407.962 438.035 400.366C443.069 395.976 448.103 391.516 453.227 387.125C458.261 382.735 463.385 378.484 468.599 374.303C480.375 364.825 492.69 355.835 505.635 347.403C492.151 338.552 474.172 327.054 454.845 314.998C437.945 304.405 419.876 293.325 402.887 283.29C402.347 282.941 401.718 282.662 401.268 282.314C399.471 281.199 397.493 280.154 395.695 279.039C361.985 259.108 335.107 243.428 334.477 243.428C319.106 255.902 304.004 268.655 289.441 281.756C282.519 287.75 275.777 293.952 269.125 300.224Z" stroke="url(#paint65_linear)" stroke-miterlimit="10"/>
<path d="M334.028 245.1C312.004 263.706 290.879 282.871 270.653 302.593C250.427 322.314 231.1 342.594 212.672 363.361C246.112 372.211 277.755 384.964 306.431 400.993C335.107 417.021 360.816 436.116 382.301 457.858C397.763 436.743 415.921 416.812 436.417 398.414C456.913 380.016 479.656 363.222 504.376 348.238C478.397 331.931 435.788 306.147 399.74 284.474C363.693 262.8 334.028 245.1 334.028 245.1Z" stroke="url(#paint66_linear)" stroke-miterlimit="10"/>
<g filter="url(#filter1_f)">
<path d="M425 282.905L362 314.373V372.175L425 340.708V282.905Z" fill="#7F9CF5" fill-opacity="0.3"/>
</g>
<path d="M383.026 332.042C384.123 331.481 385.042 330.818 385.732 330.103C386.421 329.389 386.906 328.624 387.136 327.858C387.365 327.093 387.493 325.894 387.493 324.312C387.519 322.705 387.544 321.634 387.621 321.098C387.748 320.23 388.004 319.465 388.336 318.802C388.693 318.138 389.127 317.526 389.638 316.99C390.148 316.429 390.812 315.893 391.629 315.332C392.165 314.975 393.058 314.465 394.309 313.853L395.509 313.24V315.485L394.845 315.817C393.339 316.557 392.344 317.246 391.859 317.832C391.373 318.445 391.118 319.363 391.118 320.588C391.118 323.088 391.042 324.695 390.888 325.435C390.633 326.583 390.174 327.603 389.561 328.445C388.923 329.313 387.953 330.282 386.6 331.379C388.182 331.022 389.331 331.124 390.046 331.66C390.761 332.195 391.118 333.497 391.118 335.537C391.118 337.4 391.144 338.497 391.195 338.803C391.322 339.39 391.603 339.696 392.063 339.721C392.522 339.747 393.441 339.415 394.82 338.726L395.484 338.395V340.64L394.284 341.252C392.88 341.966 391.859 342.4 391.22 342.553C390.301 342.783 389.535 342.834 388.923 342.63C388.31 342.451 387.927 342.017 387.748 341.354C387.57 340.691 387.468 339.517 387.468 337.808C387.442 336.099 387.34 334.976 387.11 334.44C386.88 333.905 386.421 333.624 385.706 333.573C385.017 333.548 384.098 333.803 383 334.338V332.042H383.026Z" fill="#FCE588"/>
<path d="M410.112 318.496V320.817C409.014 321.378 408.095 322.042 407.406 322.782C406.716 323.521 406.231 324.261 406.002 325.027C405.772 325.792 405.644 326.965 405.644 328.573C405.619 330.18 405.593 331.251 405.516 331.787C405.389 332.655 405.134 333.42 404.802 334.083C404.444 334.747 404.01 335.333 403.5 335.895C402.989 336.456 402.325 336.992 401.508 337.553C400.972 337.935 400.079 338.42 398.828 339.058L397.628 339.67V337.425L398.292 337.094C399.798 336.354 400.794 335.665 401.279 335.078C401.764 334.466 402.019 333.547 402.019 332.297C402.019 329.925 402.096 328.369 402.223 327.68C402.453 326.506 402.913 325.435 403.602 324.465C404.291 323.496 405.261 322.501 406.538 321.506C404.878 321.812 403.704 321.71 403.04 321.174C402.351 320.639 402.019 319.363 402.019 317.322C402.019 315.46 401.993 314.363 401.917 314.057C401.815 313.47 401.534 313.164 401.074 313.138C400.615 313.113 399.696 313.444 398.317 314.133L397.654 314.465V312.194L398.802 311.607C400.206 310.893 401.228 310.459 401.866 310.306C402.785 310.051 403.551 310.026 404.163 310.23C404.776 310.434 405.159 310.842 405.338 311.505C405.516 312.169 405.619 313.342 405.619 315.052C405.644 316.761 405.746 317.883 405.976 318.419C406.206 318.955 406.665 319.235 407.38 319.261C408.095 319.286 409.014 319.031 410.112 318.496Z" fill="#FCE588"/>
<g opacity="0.3" filter="url(#filter2_f)">
<path fill-rule="evenodd" clip-rule="evenodd" d="M356.341 313.592L292 281V339.228L356.341 371.82V313.592Z" fill="#7F9CF5"/>
</g>
<path d="M311.459 324.545C311.372 324.829 311.112 324.916 310.743 324.741L308.918 323.825C308.571 323.651 308.289 323.28 308.202 322.909L305.726 313.092L307.789 314.139L309.44 321.556C309.526 321.927 309.592 322.32 309.657 322.691L309.983 322.865C310.026 322.56 310.135 322.254 310.2 321.949L311.828 316.168L313.892 317.215L311.459 324.545Z" fill="#FCE588"/>
<path d="M319.777 324.961V329.281L318.235 328.495L318.04 327.405C317.584 327.71 316.78 327.928 315.651 327.361C314.435 326.75 313.522 325.638 313.522 324.416V323.761C313.522 322.714 314.283 322.474 315.52 323.107L317.844 324.263V323.98C317.822 323.303 317.605 323.02 316.78 322.605C316.15 322.3 315.086 321.798 314.044 321.34L313.87 319.922C314.825 320.227 316.346 320.86 317.258 321.296C318.908 322.125 319.777 323.129 319.777 324.961ZM316.215 326.183C316.671 326.401 317.279 326.51 317.844 326.357V325.441L316.085 324.569C315.607 324.35 315.455 324.503 315.455 324.874V325.136C315.455 325.594 315.694 325.921 316.215 326.183Z" fill="#FCE588"/>
<path d="M325.988 325.679L325.793 327.402L325.271 327.141C324.707 326.857 324.164 326.726 323.273 326.595V331.046L321.319 330.064V323.541L322.839 324.305L323.013 325.352C323.881 325.046 324.815 325.09 325.641 325.526L325.988 325.679Z" fill="#FCE588"/>
<path d="M330.701 325.157C329.137 325.091 328.529 326.684 328.529 329.542C328.529 332.356 329.137 334.559 330.701 336.108L330.483 336.85C327.856 334.668 326.661 332.094 326.661 328.603C326.661 325.091 327.856 323.695 330.483 324.197L330.701 325.157Z" fill="#FCE588"/>
<path d="M338.584 334.167C338.584 337.657 337.672 338.443 335.066 337.155C332.46 335.847 331.569 334.145 331.569 330.654C331.569 327.164 332.46 326.357 335.066 327.666C337.672 328.953 338.584 330.676 338.584 334.167ZM333.567 331.636C333.567 334.123 333.915 334.952 335.066 335.541C336.26 336.13 336.607 335.672 336.607 333.185C336.607 330.698 336.26 329.869 335.066 329.28C333.915 328.669 333.567 329.149 333.567 331.636Z" fill="#FCE588"/>
<path d="M343.535 337.091C343.535 340.581 342.341 341.956 339.713 341.497L339.496 340.538C341.06 340.559 341.668 338.945 341.668 336.131C341.668 333.273 341.06 331.069 339.496 329.564L339.713 328.822C342.341 330.982 343.535 333.578 343.535 337.091Z" fill="#FCE588"/>
<defs>
<filter id="filter0_f" x="0" y="0" width="689" height="689" filterUnits="userSpaceOnUse" color-interpolation-filters="sRGB">
<feFlood flood-opacity="0" result="BackgroundImageFix"/>
<feBlend mode="normal" in="SourceGraphic" in2="BackgroundImageFix" result="shape"/>
<feGaussianBlur stdDeviation="50" result="effect1_foregroundBlur"/>
</filter>
<filter id="filter1_f" x="360" y="280.906" width="67" height="93.27" filterUnits="userSpaceOnUse" color-interpolation-filters="sRGB">
<feFlood flood-opacity="0" result="BackgroundImageFix"/>
<feBlend mode="normal" in="SourceGraphic" in2="BackgroundImageFix" result="shape"/>
<feGaussianBlur stdDeviation="1" result="effect1_foregroundBlur"/>
</filter>
<filter id="filter2_f" x="290" y="279" width="68.3406" height="94.82" filterUnits="userSpaceOnUse" color-interpolation-filters="sRGB">
<feFlood flood-opacity="0" result="BackgroundImageFix"/>
<feBlend mode="normal" in="SourceGraphic" in2="BackgroundImageFix" result="shape"/>
<feGaussianBlur stdDeviation="1" result="effect1_foregroundBlur"/>
</filter>
<linearGradient id="paint0_linear" x1="335.499" y1="131" x2="335.499" y2="537.987" gradientUnits="userSpaceOnUse">
<stop stop-color="#353C7A" stop-opacity="0.08"/>
<stop offset="0.515625" stop-color="#291FA4"/>
<stop offset="1" stop-color="#A4ADFF"/>
</linearGradient>
<linearGradient id="paint1_linear" x1="336.192" y1="132.674" x2="336.192" y2="536.238" gradientUnits="userSpaceOnUse">
<stop stop-color="#353C7A" stop-opacity="0.08"/>
<stop offset="0.515625" stop-color="#291FA4"/>
<stop offset="1" stop-color="#A4ADFF"/>
</linearGradient>
<linearGradient id="paint2_linear" x1="336.962" y1="134.418" x2="336.962" y2="534.604" gradientUnits="userSpaceOnUse">
<stop stop-color="#353C7A" stop-opacity="0.08"/>
<stop offset="0.515625" stop-color="#291FA4"/>
<stop offset="1" stop-color="#A4ADFF"/>
</linearGradient>
<linearGradient id="paint3_linear" x1="337.565" y1="136.162" x2="337.565" y2="532.994" gradientUnits="userSpaceOnUse">
<stop stop-color="#353C7A" stop-opacity="0.08"/>
<stop offset="0.515625" stop-color="#291FA4"/>
<stop offset="1" stop-color="#A4ADFF"/>
</linearGradient>
<linearGradient id="paint4_linear" x1="338.241" y1="137.844" x2="338.241" y2="531.729" gradientUnits="userSpaceOnUse">
<stop stop-color="#353C7A" stop-opacity="0.08"/>
<stop offset="0.515625" stop-color="#291FA4"/>
<stop offset="1" stop-color="#A4ADFF"/>
</linearGradient>
<linearGradient id="paint5_linear" x1="338.998" y1="139.725" x2="338.998" y2="530.543" gradientUnits="userSpaceOnUse">
<stop stop-color="#353C7A" stop-opacity="0.08"/>
<stop offset="0.515625" stop-color="#291FA4"/>
<stop offset="1" stop-color="#A4ADFF"/>
</linearGradient>
<linearGradient id="paint6_linear" x1="339.754" y1="141.328" x2="339.754" y2="529.289" gradientUnits="userSpaceOnUse">
<stop stop-color="#353C7A" stop-opacity="0.08"/>
<stop offset="0.515625" stop-color="#291FA4"/>
<stop offset="1" stop-color="#A4ADFF"/>
</linearGradient>
<linearGradient id="paint7_linear" x1="340.74" y1="143.07" x2="340.74" y2="528.104" gradientUnits="userSpaceOnUse">
<stop stop-color="#353C7A" stop-opacity="0.08"/>
<stop offset="0.515625" stop-color="#291FA4"/>
<stop offset="1" stop-color="#A4ADFF"/>
</linearGradient>
<linearGradient id="paint8_linear" x1="341.686" y1="145.018" x2="341.686" y2="527.129" gradientUnits="userSpaceOnUse">
<stop stop-color="#353C7A" stop-opacity="0.08"/>
<stop offset="0.515625" stop-color="#291FA4"/>
<stop offset="1" stop-color="#A4ADFF"/>
</linearGradient>
<linearGradient id="paint9_linear" x1="342.643" y1="146.621" x2="342.643" y2="525.735" gradientUnits="userSpaceOnUse">
<stop stop-color="#353C7A" stop-opacity="0.08"/>
<stop offset="0.515625" stop-color="#291FA4"/>
<stop offset="1" stop-color="#A4ADFF"/>
</linearGradient>
<linearGradient id="paint10_linear" x1="343.712" y1="148.363" x2="343.712" y2="524.55" gradientUnits="userSpaceOnUse">
<stop stop-color="#353C7A" stop-opacity="0.08"/>
<stop offset="0.515625" stop-color="#291FA4"/>
<stop offset="1" stop-color="#A4ADFF"/>
</linearGradient>
<linearGradient id="paint11_linear" x1="344.586" y1="150.041" x2="344.586" y2="523.366" gradientUnits="userSpaceOnUse">
<stop stop-color="#353C7A" stop-opacity="0.08"/>
<stop offset="0.515625" stop-color="#291FA4"/>
<stop offset="1" stop-color="#A4ADFF"/>
</linearGradient>
<linearGradient id="paint12_linear" x1="345.543" y1="151.713" x2="345.543" y2="522.25" gradientUnits="userSpaceOnUse">
<stop stop-color="#353C7A" stop-opacity="0.08"/>
<stop offset="0.515625" stop-color="#291FA4"/>
<stop offset="1" stop-color="#A4ADFF"/>
</linearGradient>
<linearGradient id="paint13_linear" x1="346.434" y1="153.387" x2="346.434" y2="520.927" gradientUnits="userSpaceOnUse">
<stop stop-color="#353C7A" stop-opacity="0.08"/>
<stop offset="0.515625" stop-color="#291FA4"/>
<stop offset="1" stop-color="#A4ADFF"/>
</linearGradient>
<linearGradient id="paint14_linear" x1="347.242" y1="155.197" x2="347.242" y2="519.81" gradientUnits="userSpaceOnUse">
<stop stop-color="#353C7A" stop-opacity="0.08"/>
<stop offset="0.515625" stop-color="#291FA4"/>
<stop offset="1" stop-color="#A4ADFF"/>
</linearGradient>
<linearGradient id="paint15_linear" x1="347.422" y1="156.941" x2="347.422" y2="518.627" gradientUnits="userSpaceOnUse">
<stop stop-color="#353C7A" stop-opacity="0.08"/>
<stop offset="0.515625" stop-color="#291FA4"/>
<stop offset="1" stop-color="#A4ADFF"/>
</linearGradient>
<linearGradient id="paint16_linear" x1="347.827" y1="158.613" x2="347.827" y2="517.442" gradientUnits="userSpaceOnUse">
<stop stop-color="#353C7A" stop-opacity="0.08"/>
<stop offset="0.515625" stop-color="#291FA4"/>
<stop offset="1" stop-color="#A4ADFF"/>
</linearGradient>
<linearGradient id="paint17_linear" x1="348.007" y1="160.424" x2="348.007" y2="516.256" gradientUnits="userSpaceOnUse">
<stop stop-color="#353C7A" stop-opacity="0.08"/>
<stop offset="0.515625" stop-color="#291FA4"/>
<stop offset="1" stop-color="#A4ADFF"/>
</linearGradient>
<linearGradient id="paint18_linear" x1="348.321" y1="162.098" x2="348.321" y2="515.003" gradientUnits="userSpaceOnUse">
<stop stop-color="#353C7A" stop-opacity="0.08"/>
<stop offset="0.515625" stop-color="#291FA4"/>
<stop offset="1" stop-color="#A4ADFF"/>
</linearGradient>
<linearGradient id="paint19_linear" x1="348.366" y1="163.91" x2="348.366" y2="513.818" gradientUnits="userSpaceOnUse">
<stop stop-color="#353C7A" stop-opacity="0.08"/>
<stop offset="0.515625" stop-color="#291FA4"/>
<stop offset="1" stop-color="#A4ADFF"/>
</linearGradient>
<linearGradient id="paint20_linear" x1="348.591" y1="165.582" x2="348.591" y2="512.703" gradientUnits="userSpaceOnUse">
<stop stop-color="#353C7A" stop-opacity="0.08"/>
<stop offset="0.515625" stop-color="#291FA4"/>
<stop offset="1" stop-color="#A4ADFF"/>
</linearGradient>
<linearGradient id="paint21_linear" x1="348.905" y1="167.324" x2="348.905" y2="511.448" gradientUnits="userSpaceOnUse">
<stop stop-color="#353C7A" stop-opacity="0.08"/>
<stop offset="0.515625" stop-color="#291FA4"/>
<stop offset="1" stop-color="#A4ADFF"/>
</linearGradient>
<linearGradient id="paint22_linear" x1="349.175" y1="168.996" x2="349.175" y2="510.332" gradientUnits="userSpaceOnUse">
<stop stop-color="#353C7A" stop-opacity="0.08"/>
<stop offset="0.515625" stop-color="#291FA4"/>
<stop offset="1" stop-color="#A4ADFF"/>
</linearGradient>
<linearGradient id="paint23_linear" x1="349.355" y1="170.74" x2="349.355" y2="509.149" gradientUnits="userSpaceOnUse">
<stop stop-color="#353C7A" stop-opacity="0.08"/>
<stop offset="0.515625" stop-color="#291FA4"/>
<stop offset="1" stop-color="#A4ADFF"/>
</linearGradient>
<linearGradient id="paint24_linear" x1="349.445" y1="172.412" x2="349.445" y2="507.825" gradientUnits="userSpaceOnUse">
<stop stop-color="#353C7A" stop-opacity="0.08"/>
<stop offset="0.515625" stop-color="#291FA4"/>
<stop offset="1" stop-color="#A4ADFF"/>
</linearGradient>
<linearGradient id="paint25_linear" x1="349.625" y1="174.227" x2="349.625" y2="506.711" gradientUnits="userSpaceOnUse">
<stop stop-color="#353C7A" stop-opacity="0.08"/>
<stop offset="0.515625" stop-color="#291FA4"/>
<stop offset="1" stop-color="#A4ADFF"/>
</linearGradient>
<linearGradient id="paint26_linear" x1="349.894" y1="175.898" x2="349.894" y2="505.595" gradientUnits="userSpaceOnUse">
<stop stop-color="#353C7A" stop-opacity="0.08"/>
<stop offset="0.515625" stop-color="#291FA4"/>
<stop offset="1" stop-color="#A4ADFF"/>
</linearGradient>
<linearGradient id="paint27_linear" x1="350.209" y1="177.709" x2="350.209" y2="504.341" gradientUnits="userSpaceOnUse">
<stop stop-color="#353C7A" stop-opacity="0.08"/>
<stop offset="0.515625" stop-color="#291FA4"/>
<stop offset="1" stop-color="#A4ADFF"/>
</linearGradient>
<linearGradient id="paint28_linear" x1="350.389" y1="179.381" x2="350.389" y2="503.086" gradientUnits="userSpaceOnUse">
<stop stop-color="#353C7A" stop-opacity="0.08"/>
<stop offset="0.515625" stop-color="#291FA4"/>
<stop offset="1" stop-color="#A4ADFF"/>
</linearGradient>
<linearGradient id="paint29_linear" x1="350.568" y1="181.123" x2="350.568" y2="501.901" gradientUnits="userSpaceOnUse">
<stop stop-color="#353C7A" stop-opacity="0.08"/>
<stop offset="0.515625" stop-color="#291FA4"/>
<stop offset="1" stop-color="#A4ADFF"/>
</linearGradient>
<linearGradient id="paint30_linear" x1="350.838" y1="182.865" x2="350.838" y2="500.786" gradientUnits="userSpaceOnUse">
<stop stop-color="#353C7A" stop-opacity="0.08"/>
<stop offset="0.515625" stop-color="#291FA4"/>
<stop offset="1" stop-color="#A4ADFF"/>
</linearGradient>
<linearGradient id="paint31_linear" x1="350.973" y1="184.537" x2="350.973" y2="499.6" gradientUnits="userSpaceOnUse">
<stop stop-color="#353C7A" stop-opacity="0.08"/>
<stop offset="0.515625" stop-color="#291FA4"/>
<stop offset="1" stop-color="#A4ADFF"/>
</linearGradient>
<linearGradient id="paint32_linear" x1="351.243" y1="186.213" x2="351.243" y2="498.278" gradientUnits="userSpaceOnUse">
<stop stop-color="#353C7A" stop-opacity="0.08"/>
<stop offset="0.515625" stop-color="#291FA4"/>
<stop offset="1" stop-color="#A4ADFF"/>
</linearGradient>
<linearGradient id="paint33_linear" x1="351.377" y1="188.094" x2="351.377" y2="497.162" gradientUnits="userSpaceOnUse">
<stop stop-color="#353C7A" stop-opacity="0.08"/>
<stop offset="0.515625" stop-color="#291FA4"/>
<stop offset="1" stop-color="#A4ADFF"/>
</linearGradient>
<linearGradient id="paint34_linear" x1="351.647" y1="189.766" x2="351.647" y2="495.977" gradientUnits="userSpaceOnUse">
<stop stop-color="#353C7A" stop-opacity="0.08"/>
<stop offset="0.515625" stop-color="#291FA4"/>
<stop offset="1" stop-color="#A4ADFF"/>
</linearGradient>
<linearGradient id="paint35_linear" x1="351.917" y1="191.578" x2="351.917" y2="494.863" gradientUnits="userSpaceOnUse">
<stop stop-color="#353C7A" stop-opacity="0.08"/>
<stop offset="0.515625" stop-color="#291FA4"/>
<stop offset="1" stop-color="#A4ADFF"/>
</linearGradient>
<linearGradient id="paint36_linear" x1="352.142" y1="193.043" x2="352.142" y2="493.54" gradientUnits="userSpaceOnUse">
<stop stop-color="#353C7A" stop-opacity="0.08"/>
<stop offset="0.515625" stop-color="#291FA4"/>
<stop offset="1" stop-color="#A4ADFF"/>
</linearGradient>
<linearGradient id="paint37_linear" x1="352.276" y1="194.992" x2="352.276" y2="492.354" gradientUnits="userSpaceOnUse">
<stop stop-color="#353C7A" stop-opacity="0.08"/>
<stop offset="0.515625" stop-color="#291FA4"/>
<stop offset="1" stop-color="#A4ADFF"/>
</linearGradient>
<linearGradient id="paint38_linear" x1="352.546" y1="196.664" x2="352.546" y2="491.308" gradientUnits="userSpaceOnUse">
<stop stop-color="#353C7A" stop-opacity="0.08"/>
<stop offset="0.515625" stop-color="#291FA4"/>
<stop offset="1" stop-color="#A4ADFF"/>
</linearGradient>
<linearGradient id="paint39_linear" x1="352.681" y1="198.338" x2="352.681" y2="489.915" gradientUnits="userSpaceOnUse">
<stop stop-color="#353C7A" stop-opacity="0.08"/>
<stop offset="0.515625" stop-color="#291FA4"/>
<stop offset="1" stop-color="#A4ADFF"/>
</linearGradient>
<linearGradient id="paint40_linear" x1="352.951" y1="200.08" x2="352.951" y2="488.8" gradientUnits="userSpaceOnUse">
<stop stop-color="#353C7A" stop-opacity="0.08"/>
<stop offset="0.515625" stop-color="#291FA4"/>
<stop offset="1" stop-color="#A4ADFF"/>
</linearGradient>
<linearGradient id="paint41_linear" x1="353.13" y1="201.893" x2="353.13" y2="487.685" gradientUnits="userSpaceOnUse">
<stop stop-color="#353C7A" stop-opacity="0.08"/>
<stop offset="0.515625" stop-color="#291FA4"/>
<stop offset="1" stop-color="#A4ADFF"/>
</linearGradient>
<linearGradient id="paint42_linear" x1="353.31" y1="203.635" x2="353.31" y2="486.431" gradientUnits="userSpaceOnUse">
<stop stop-color="#353C7A" stop-opacity="0.08"/>
<stop offset="0.515625" stop-color="#291FA4"/>
<stop offset="1" stop-color="#A4ADFF"/>
</linearGradient>
<linearGradient id="paint43_linear" x1="353.535" y1="205.238" x2="353.535" y2="485.177" gradientUnits="userSpaceOnUse">
<stop stop-color="#353C7A" stop-opacity="0.08"/>
<stop offset="0.515625" stop-color="#291FA4"/>
<stop offset="1" stop-color="#A4ADFF"/>
</linearGradient>
<linearGradient id="paint44_linear" x1="353.76" y1="207.049" x2="353.76" y2="484.061" gradientUnits="userSpaceOnUse">
<stop stop-color="#353C7A" stop-opacity="0.08"/>
<stop offset="0.515625" stop-color="#291FA4"/>
<stop offset="1" stop-color="#A4ADFF"/>
</linearGradient>
<linearGradient id="paint45_linear" x1="353.984" y1="208.652" x2="353.984" y2="482.807" gradientUnits="userSpaceOnUse">
<stop stop-color="#353C7A" stop-opacity="0.08"/>
<stop offset="0.515625" stop-color="#291FA4"/>
<stop offset="1" stop-color="#A4ADFF"/>
</linearGradient>
<linearGradient id="paint46_linear" x1="354.119" y1="210.463" x2="354.119" y2="481.621" gradientUnits="userSpaceOnUse">
<stop stop-color="#353C7A" stop-opacity="0.08"/>
<stop offset="0.515625" stop-color="#291FA4"/>
<stop offset="1" stop-color="#A4ADFF"/>
</linearGradient>
<linearGradient id="paint47_linear" x1="354.479" y1="212.416" x2="354.479" y2="480.577" gradientUnits="userSpaceOnUse">
<stop stop-color="#353C7A" stop-opacity="0.08"/>
<stop offset="0.515625" stop-color="#291FA4"/>
<stop offset="1" stop-color="#A4ADFF"/>
</linearGradient>
<linearGradient id="paint48_linear" x1="354.659" y1="214.158" x2="354.659" y2="479.393" gradientUnits="userSpaceOnUse">
<stop stop-color="#353C7A" stop-opacity="0.08"/>
<stop offset="0.515625" stop-color="#291FA4"/>
<stop offset="1" stop-color="#A4ADFF"/>
</linearGradient>
<linearGradient id="paint49_linear" x1="354.928" y1="215.689" x2="354.928" y2="478.067" gradientUnits="userSpaceOnUse">
<stop stop-color="#353C7A" stop-opacity="0.08"/>
<stop offset="0.515625" stop-color="#291FA4"/>
<stop offset="1" stop-color="#A4ADFF"/>
</linearGradient>
<linearGradient id="paint50_linear" x1="355.108" y1="217.363" x2="355.108" y2="476.883" gradientUnits="userSpaceOnUse">
<stop stop-color="#353C7A" stop-opacity="0.08"/>
<stop offset="0.515625" stop-color="#291FA4"/>
<stop offset="1" stop-color="#A4ADFF"/>
</linearGradient>
<linearGradient id="paint51_linear" x1="355.198" y1="219.314" x2="355.198" y2="475.768" gradientUnits="userSpaceOnUse">
<stop stop-color="#353C7A" stop-opacity="0.08"/>
<stop offset="0.515625" stop-color="#291FA4"/>
<stop offset="1" stop-color="#A4ADFF"/>
</linearGradient>
<linearGradient id="paint52_linear" x1="355.513" y1="220.918" x2="355.513" y2="474.514" gradientUnits="userSpaceOnUse">
<stop stop-color="#353C7A" stop-opacity="0.08"/>
<stop offset="0.515625" stop-color="#291FA4"/>
<stop offset="1" stop-color="#A4ADFF"/>
</linearGradient>
<linearGradient id="paint53_linear" x1="355.692" y1="222.73" x2="355.692" y2="473.4" gradientUnits="userSpaceOnUse">
<stop stop-color="#353C7A" stop-opacity="0.08"/>
<stop offset="0.515625" stop-color="#291FA4"/>
<stop offset="1" stop-color="#A4ADFF"/>
</linearGradient>
<linearGradient id="paint54_linear" x1="355.962" y1="224.332" x2="355.962" y2="472.214" gradientUnits="userSpaceOnUse">
<stop stop-color="#353C7A" stop-opacity="0.08"/>
<stop offset="0.515625" stop-color="#291FA4"/>
<stop offset="1" stop-color="#A4ADFF"/>
</linearGradient>
<linearGradient id="paint55_linear" x1="356.187" y1="226.004" x2="356.187" y2="470.889" gradientUnits="userSpaceOnUse">
<stop stop-color="#353C7A" stop-opacity="0.08"/>
<stop offset="0.515625" stop-color="#291FA4"/>
<stop offset="1" stop-color="#A4ADFF"/>
</linearGradient>
<linearGradient id="paint56_linear" x1="356.412" y1="227.748" x2="356.412" y2="469.776" gradientUnits="userSpaceOnUse">
<stop stop-color="#353C7A" stop-opacity="0.08"/>
<stop offset="0.515625" stop-color="#291FA4"/>
<stop offset="1" stop-color="#A4ADFF"/>
</linearGradient>
<linearGradient id="paint57_linear" x1="356.546" y1="229.488" x2="356.546" y2="468.52" gradientUnits="userSpaceOnUse">
<stop stop-color="#353C7A" stop-opacity="0.08"/>
<stop offset="0.515625" stop-color="#291FA4"/>
<stop offset="1" stop-color="#A4ADFF"/>
</linearGradient>
<linearGradient id="paint58_linear" x1="356.681" y1="231.301" x2="356.681" y2="467.405" gradientUnits="userSpaceOnUse">
<stop stop-color="#353C7A" stop-opacity="0.08"/>
<stop offset="0.515625" stop-color="#291FA4"/>
<stop offset="1" stop-color="#A4ADFF"/>
</linearGradient>
<linearGradient id="paint59_linear" x1="356.951" y1="232.975" x2="356.951" y2="466.222" gradientUnits="userSpaceOnUse">
<stop stop-color="#353C7A" stop-opacity="0.08"/>
<stop offset="0.515625" stop-color="#291FA4"/>
<stop offset="1" stop-color="#A4ADFF"/>
</linearGradient>
<linearGradient id="paint60_linear" x1="357.176" y1="234.855" x2="357.176" y2="465.036" gradientUnits="userSpaceOnUse">
<stop stop-color="#353C7A" stop-opacity="0.08"/>
<stop offset="0.515625" stop-color="#291FA4"/>
<stop offset="1" stop-color="#A4ADFF"/>
</linearGradient>
<linearGradient id="paint61_linear" x1="357.49" y1="236.459" x2="357.49" y2="463.783" gradientUnits="userSpaceOnUse">
<stop stop-color="#353C7A" stop-opacity="0.08"/>
<stop offset="0.515625" stop-color="#291FA4"/>
<stop offset="1" stop-color="#A4ADFF"/>
</linearGradient>
<linearGradient id="paint62_linear" x1="357.67" y1="238.199" x2="357.67" y2="462.596" gradientUnits="userSpaceOnUse">
<stop stop-color="#353C7A" stop-opacity="0.08"/>
<stop offset="0.515625" stop-color="#291FA4"/>
<stop offset="1" stop-color="#A4ADFF"/>
</linearGradient>
<linearGradient id="paint63_linear" x1="357.895" y1="239.873" x2="357.895" y2="461.482" gradientUnits="userSpaceOnUse">
<stop stop-color="#353C7A" stop-opacity="0.08"/>
<stop offset="0.515625" stop-color="#291FA4"/>
<stop offset="1" stop-color="#A4ADFF"/>
</linearGradient>
<linearGradient id="paint64_linear" x1="358.075" y1="241.615" x2="358.075" y2="460.228" gradientUnits="userSpaceOnUse">
<stop stop-color="#353C7A" stop-opacity="0.08"/>
<stop offset="0.515625" stop-color="#291FA4"/>
<stop offset="1" stop-color="#A4ADFF"/>
</linearGradient>
<linearGradient id="paint65_linear" x1="358.299" y1="243.428" x2="358.299" y2="459.113" gradientUnits="userSpaceOnUse">
<stop stop-color="#353C7A" stop-opacity="0.08"/>
<stop offset="0.515625" stop-color="#291FA4"/>
<stop offset="1" stop-color="#A4ADFF"/>
</linearGradient>
<linearGradient id="paint66_linear" x1="358.524" y1="245.1" x2="358.524" y2="457.858" gradientUnits="userSpaceOnUse">
<stop stop-color="#353C7A" stop-opacity="0.08"/>
<stop offset="0.515625" stop-color="#291FA4"/>
<stop offset="1" stop-color="#A4ADFF"/>
</linearGradient>
</defs>
</svg>
