<svg width="270" height="378" viewBox="0 0 270 378" fill="none" xmlns="http://www.w3.org/2000/svg">
<path d="M47.5 337L65.2535 347.25V367.75L47.5 378L29.7465 367.75V347.25L47.5 337Z" fill="#FADB5F"/>
<path d="M121.26 57.4935C-7.45443 74.9658 -4.82347 182.835 4.48607 236.938C13.7956 291.042 128.141 290.3 150.673 276.605C173.137 262.843 277.431 36.3109 121.26 57.4935Z" stroke="url(#paint0_linear)" stroke-miterlimit="10"/>
<path d="M122.002 56.0095C277.431 35.9062 175.97 259.133 153.843 273.974C131.716 288.816 17.9105 290.03 7.65655 236.534C-2.39506 183.105 -7.4546 72.4024 122.002 56.0095Z" stroke="url(#paint1_linear)" stroke-miterlimit="10"/>
<path d="M122.744 54.4581C277.499 35.8391 178.737 255.355 157.014 271.276C135.292 287.197 21.8234 289.018 10.8274 236.062C-0.0337517 183.443 -7.38694 70.1764 122.744 54.4581Z" stroke="url(#paint2_linear)" stroke-miterlimit="10"/>
<path d="M123.486 52.9734C277.431 35.636 181.57 251.645 160.185 268.712C138.8 285.78 25.8712 288.073 13.9981 235.656C2.32745 183.712 -7.38686 67.7472 123.486 52.9734Z" stroke="url(#paint3_linear)" stroke-miterlimit="10"/>
<path d="M124.296 51.4209C277.499 35.2978 184.403 247.866 163.423 266.08C142.443 284.294 29.9187 287.128 17.2361 235.251C4.75593 183.981 -7.38695 65.3177 124.296 51.4209Z" stroke="url(#paint4_linear)" stroke-miterlimit="10"/>
<path d="M125.038 49.9387C277.499 35.0974 187.236 244.157 166.594 263.451C145.951 282.745 33.8988 286.118 20.4067 234.848C7.11696 184.32 -7.38705 62.8236 125.038 49.9387Z" stroke="url(#paint5_linear)" stroke-miterlimit="10"/>
<path d="M125.78 48.3857C277.499 34.7587 190.002 240.378 169.764 260.819C149.526 281.259 37.9465 285.105 23.5774 234.374C9.54565 184.588 -7.38693 60.3937 125.78 48.3857Z" stroke="url(#paint6_linear)" stroke-miterlimit="10"/>
<path d="M126.589 46.9025C277.566 34.4897 192.903 236.669 173.002 258.256C153.101 279.844 41.994 284.228 26.8154 234.038C11.9741 184.859 -7.38708 57.966 126.589 46.9025Z" stroke="url(#paint7_linear)" stroke-miterlimit="10"/>
<path d="M127.331 45.4189C277.499 34.153 195.669 232.959 176.173 255.626C156.609 278.292 46.0416 283.217 29.986 233.634C14.3351 185.197 -7.38713 55.4705 127.331 45.4189Z" stroke="url(#paint8_linear)" stroke-miterlimit="10"/>
<path d="M128.074 43.8668C277.499 33.8152 198.503 229.181 179.344 252.994C160.185 276.808 50.0895 282.272 33.1569 233.161C16.764 185.466 -7.38685 52.974 128.074 43.8668Z" stroke="url(#paint9_linear)" stroke-miterlimit="10"/>
<path d="M128.883 42.3837C277.499 33.4789 201.336 225.471 182.514 250.364C163.693 275.257 54.137 281.329 36.3949 232.757C19.1924 185.805 -7.387 50.4789 128.883 42.3837Z" stroke="url(#paint10_linear)" stroke-miterlimit="10"/>
<path d="M129.625 40.8303C277.499 33.0723 204.169 221.759 185.752 247.732C167.336 273.704 58.1846 280.315 39.5655 232.351C21.621 186.073 -7.38702 47.9811 129.625 40.8303Z" stroke="url(#paint11_linear)" stroke-miterlimit="10"/>
<path d="M130.367 39.3465C277.499 32.7353 207.002 218.049 188.923 245.168C170.843 272.288 62.2321 279.371 42.736 231.946C24.0494 186.343 -7.38716 45.4854 130.367 39.3465Z" stroke="url(#paint12_linear)" stroke-miterlimit="10"/>
<path d="M131.109 37.7944C277.431 32.3301 209.768 214.271 192.026 242.537C174.284 270.803 66.2798 278.426 45.9067 231.541C26.4781 186.68 -7.38706 42.9889 131.109 37.7944Z" stroke="url(#paint13_linear)" stroke-miterlimit="10"/>
<path d="M131.919 36.3104C277.431 31.9254 212.602 210.493 195.264 239.906C177.927 269.319 70.3274 277.414 49.0773 231.069C28.9066 186.95 -7.45459 40.4254 131.919 36.3104Z" stroke="url(#paint14_linear)" stroke-miterlimit="10"/>
<path d="M132.661 34.7591C277.431 31.521 215.435 206.783 198.435 237.276C181.435 267.768 74.3752 276.47 52.2481 230.664C31.3354 187.22 -7.4544 37.9298 132.661 34.7591Z" stroke="url(#paint15_linear)" stroke-miterlimit="10"/>
<path d="M133.403 33.275C277.431 31.1163 218.269 203.073 201.606 234.712C185.011 266.351 78.4229 275.526 55.4189 230.327C33.7641 187.557 -7.45427 35.3663 133.403 33.275Z" stroke="url(#paint16_linear)" stroke-miterlimit="10"/>
<path d="M134.212 31.7243C276.622 29.7679 220.967 199.971 204.844 232.082C188.451 264.8 82.5377 274.515 58.6567 229.856C36.2598 187.828 -7.45457 33.6806 134.212 31.7243Z" stroke="url(#paint17_linear)" stroke-miterlimit="10"/>
<path d="M134.955 30.2388C276.149 28.7547 223.598 196.124 208.014 229.45C192.161 263.382 86.5854 273.569 61.8274 229.45C38.6885 188.096 -7.45451 31.7229 134.955 30.2388Z" stroke="url(#paint18_linear)" stroke-miterlimit="10"/>
<path d="M135.697 28.688C276.217 28.688 226.431 192.482 211.185 226.819C195.669 261.831 90.7004 272.558 64.998 229.046C41.117 188.434 -7.52205 28.688 135.697 28.688Z" stroke="url(#paint19_linear)" stroke-miterlimit="10"/>
<path d="M136.506 27.2037C276.689 28.0133 229.13 188.299 214.423 224.256C199.582 260.55 94.8832 271.613 68.2363 228.641C43.6132 188.907 -7.31944 26.3267 136.506 27.2037Z" stroke="url(#paint20_linear)" stroke-miterlimit="10"/>
<path d="M137.248 25.6529C276.757 28.0814 231.963 184.657 217.594 221.626C203.09 258.999 98.9307 270.669 71.4068 228.237C46.1091 189.11 -6.91484 23.1568 137.248 25.6529Z" stroke="url(#paint21_linear)" stroke-miterlimit="10"/>
<path d="M137.991 24.1684C277.094 28.2161 235.066 180.947 220.765 218.994C206.395 257.379 102.979 269.657 74.5777 227.832C48.5379 189.312 -7.11699 19.9184 137.991 24.1684Z" stroke="url(#paint22_linear)" stroke-miterlimit="10"/>
<path d="M138.732 22.6149C277.364 28.0118 238.034 177.032 223.935 216.361C209.768 255.826 107.026 268.643 77.7482 227.358C50.9663 189.512 -7.58935 16.9482 138.732 22.6149Z" stroke="url(#paint23_linear)" stroke-miterlimit="10"/>
<path d="M139.542 21.1319C277.296 27.2708 240.868 173.12 227.173 213.732C213.479 254.343 111.209 267.633 80.9863 226.954C53.4624 189.783 -7.5893 14.5208 139.542 21.1319Z" stroke="url(#paint24_linear)" stroke-miterlimit="10"/>
<path d="M140.284 19.5805C277.296 26.7313 243.701 169.343 230.344 211.101C216.987 252.859 115.256 266.688 84.157 226.549C55.9585 190.053 -7.58929 11.89 140.284 19.5805Z" stroke="url(#paint25_linear)" stroke-miterlimit="10"/>
<path d="M141.026 18.0982C277.296 26.2609 246.467 165.634 233.514 208.539C220.562 251.444 119.371 265.746 87.3275 226.146C58.3869 190.325 -7.58944 9.19338 141.026 18.0982Z" stroke="url(#paint26_linear)" stroke-miterlimit="10"/>
<path d="M141.836 16.5444C277.296 25.6516 249.368 161.854 236.753 205.839C224.137 249.823 123.486 264.664 90.5657 225.739C60.883 190.592 -7.58935 6.4928 141.836 16.5444Z" stroke="url(#paint27_linear)" stroke-miterlimit="10"/>
<path d="M142.578 15.0611C277.296 25.1801 252.134 158.145 239.923 203.276C227.713 248.407 127.669 263.653 93.7365 225.268C63.3793 190.863 -7.58918 3.79516 142.578 15.0611Z" stroke="url(#paint28_linear)" stroke-miterlimit="10"/>
<path d="M143.32 13.5093C277.229 24.5728 254.967 154.367 243.094 200.645C231.221 246.923 131.716 262.641 96.9068 224.863C65.875 191.133 -7.58947 1.09658 143.32 13.5093Z" stroke="url(#paint29_linear)" stroke-miterlimit="10"/>
<path d="M144.129 12.0249C277.296 24.0329 257.8 150.656 246.264 198.013C234.729 245.371 135.832 261.629 100.145 224.458C68.3036 191.335 -7.58941 -1.60211 144.129 12.0249Z" stroke="url(#paint30_linear)" stroke-miterlimit="10"/>
<path d="M144.871 10.5418C277.296 23.4267 260.634 147.014 249.503 195.451C238.372 243.888 140.014 260.685 103.316 224.054C70.7998 191.606 -7.58927 -4.36701 144.871 10.5418Z" stroke="url(#paint31_linear)" stroke-miterlimit="10"/>
<path d="M145.614 8.98849C277.296 22.8179 263.4 143.235 252.673 192.818C241.947 242.402 144.129 259.604 106.486 223.648C73.2959 191.874 -7.58923 -7.13457 145.614 8.98849Z" stroke="url(#paint32_linear)" stroke-miterlimit="10"/>
<path d="M146.355 7.50521C277.229 22.2791 266.233 139.525 255.844 190.188C245.455 240.918 148.244 258.593 109.657 223.244C75.7917 192.077 -7.5895 -9.8996 146.355 7.50521Z" stroke="url(#paint33_linear)" stroke-miterlimit="10"/>
<path d="M147.165 5.95335C277.296 21.6042 269.134 135.747 259.082 187.557C249.03 239.367 152.36 257.513 112.895 222.771C78.288 192.347 -7.58922 -12.6657 147.165 5.95335Z" stroke="url(#paint34_linear)" stroke-miterlimit="10"/>
<path d="M147.907 4.47031C277.364 20.7957 271.899 131.971 262.253 184.927C252.538 237.884 156.542 256.435 116.066 222.368C80.7838 192.55 -7.52194 -15.7004 147.907 4.47031Z" stroke="url(#paint35_linear)" stroke-miterlimit="10"/>
<path d="M148.649 2.91801C277.364 20.3903 274.733 128.26 265.423 182.363C256.114 236.466 160.59 255.49 119.236 222.03C83.2799 192.819 -7.52193 -18.2646 148.649 2.91801Z" stroke="url(#paint36_linear)" stroke-miterlimit="10"/>
<defs>
<linearGradient id="paint0_linear" x1="103.113" y1="56.0967" x2="103.113" y2="284.435" gradientUnits="userSpaceOnUse">
<stop stop-color="#7386EC"/>
<stop offset="0.5" stop-color="#302CA9"/>
<stop offset="1" stop-color="#FADB5F" stop-opacity="0"/>
</linearGradient>
<linearGradient id="paint1_linear" x1="104.943" y1="54.73" x2="104.943" y2="282.79" gradientUnits="userSpaceOnUse">
<stop stop-color="#7386EC"/>
<stop offset="0.5" stop-color="#302CA9"/>
<stop offset="1" stop-color="#FADB5F" stop-opacity="0"/>
</linearGradient>
<linearGradient id="paint2_linear" x1="106.743" y1="53.3384" x2="106.743" y2="281.097" gradientUnits="userSpaceOnUse">
<stop stop-color="#7386EC"/>
<stop offset="0.5" stop-color="#302CA9"/>
<stop offset="1" stop-color="#FADB5F" stop-opacity="0"/>
</linearGradient>
<linearGradient id="paint3_linear" x1="108.496" y1="51.9839" x2="108.496" y2="279.578" gradientUnits="userSpaceOnUse">
<stop stop-color="#7386EC"/>
<stop offset="0.5" stop-color="#302CA9"/>
<stop offset="1" stop-color="#FADB5F" stop-opacity="0"/>
</linearGradient>
<linearGradient id="paint4_linear" x1="110.292" y1="50.5488" x2="110.292" y2="278.041" gradientUnits="userSpaceOnUse">
<stop stop-color="#7386EC"/>
<stop offset="0.5" stop-color="#302CA9"/>
<stop offset="1" stop-color="#FADB5F" stop-opacity="0"/>
</linearGradient>
<linearGradient id="paint5_linear" x1="112.016" y1="49.1851" x2="112.016" y2="276.487" gradientUnits="userSpaceOnUse">
<stop stop-color="#7386EC"/>
<stop offset="0.5" stop-color="#302CA9"/>
<stop offset="1" stop-color="#FADB5F" stop-opacity="0"/>
</linearGradient>
<linearGradient id="paint6_linear" x1="113.725" y1="47.7378" x2="113.725" y2="274.979" gradientUnits="userSpaceOnUse">
<stop stop-color="#7386EC"/>
<stop offset="0.5" stop-color="#302CA9"/>
<stop offset="1" stop-color="#FADB5F" stop-opacity="0"/>
</linearGradient>
<linearGradient id="paint7_linear" x1="115.472" y1="46.354" x2="115.472" y2="273.591" gradientUnits="userSpaceOnUse">
<stop stop-color="#7386EC"/>
<stop offset="0.5" stop-color="#302CA9"/>
<stop offset="1" stop-color="#FADB5F" stop-opacity="0"/>
</linearGradient>
<linearGradient id="paint8_linear" x1="117.118" y1="44.958" x2="117.118" y2="272.109" gradientUnits="userSpaceOnUse">
<stop stop-color="#7386EC"/>
<stop offset="0.5" stop-color="#302CA9"/>
<stop offset="1" stop-color="#FADB5F" stop-opacity="0"/>
</linearGradient>
<linearGradient id="paint9_linear" x1="118.79" y1="43.4922" x2="118.79" y2="270.694" gradientUnits="userSpaceOnUse">
<stop stop-color="#7386EC"/>
<stop offset="0.5" stop-color="#302CA9"/>
<stop offset="1" stop-color="#FADB5F" stop-opacity="0"/>
</linearGradient>
<linearGradient id="paint10_linear" x1="120.465" y1="42.0835" x2="120.465" y2="269.282" gradientUnits="userSpaceOnUse">
<stop stop-color="#7386EC"/>
<stop offset="0.5" stop-color="#302CA9"/>
<stop offset="1" stop-color="#FADB5F" stop-opacity="0"/>
</linearGradient>
<linearGradient id="paint11_linear" x1="122.117" y1="40.5977" x2="122.117" y2="267.866" gradientUnits="userSpaceOnUse">
<stop stop-color="#7386EC"/>
<stop offset="0.5" stop-color="#302CA9"/>
<stop offset="1" stop-color="#FADB5F" stop-opacity="0"/>
</linearGradient>
<linearGradient id="paint12_linear" x1="123.757" y1="39.1738" x2="123.757" y2="266.559" gradientUnits="userSpaceOnUse">
<stop stop-color="#7386EC"/>
<stop offset="0.5" stop-color="#302CA9"/>
<stop offset="1" stop-color="#FADB5F" stop-opacity="0"/>
</linearGradient>
<linearGradient id="paint13_linear" x1="125.36" y1="37.6738" x2="125.36" y2="265.235" gradientUnits="userSpaceOnUse">
<stop stop-color="#7386EC"/>
<stop offset="0.5" stop-color="#302CA9"/>
<stop offset="1" stop-color="#FADB5F" stop-opacity="0"/>
</linearGradient>
<linearGradient id="paint14_linear" x1="126.987" y1="36.231" x2="126.987" y2="263.897" gradientUnits="userSpaceOnUse">
<stop stop-color="#7386EC"/>
<stop offset="0.5" stop-color="#302CA9"/>
<stop offset="1" stop-color="#FADB5F" stop-opacity="0"/>
</linearGradient>
<linearGradient id="paint15_linear" x1="128.61" y1="34.7148" x2="128.61" y2="262.587" gradientUnits="userSpaceOnUse">
<stop stop-color="#7386EC"/>
<stop offset="0.5" stop-color="#302CA9"/>
<stop offset="1" stop-color="#FADB5F" stop-opacity="0"/>
</linearGradient>
<linearGradient id="paint16_linear" x1="130.23" y1="33.2549" x2="130.23" y2="261.362" gradientUnits="userSpaceOnUse">
<stop stop-color="#7386EC"/>
<stop offset="0.5" stop-color="#302CA9"/>
<stop offset="1" stop-color="#FADB5F" stop-opacity="0"/>
</linearGradient>
<linearGradient id="paint17_linear" x1="131.709" y1="31.7075" x2="131.709" y2="260.053" gradientUnits="userSpaceOnUse">
<stop stop-color="#7386EC"/>
<stop offset="0.5" stop-color="#302CA9"/>
<stop offset="1" stop-color="#FADB5F" stop-opacity="0"/>
</linearGradient>
<linearGradient id="paint18_linear" x1="133.21" y1="30.229" x2="133.21" y2="258.843" gradientUnits="userSpaceOnUse">
<stop stop-color="#7386EC"/>
<stop offset="0.5" stop-color="#302CA9"/>
<stop offset="1" stop-color="#FADB5F" stop-opacity="0"/>
</linearGradient>
<linearGradient id="paint19_linear" x1="134.836" y1="28.688" x2="134.836" y2="257.577" gradientUnits="userSpaceOnUse">
<stop stop-color="#7386EC"/>
<stop offset="0.5" stop-color="#302CA9"/>
<stop offset="1" stop-color="#FADB5F" stop-opacity="0"/>
</linearGradient>
<linearGradient id="paint20_linear" x1="136.583" y1="27.2002" x2="136.583" y2="256.452" gradientUnits="userSpaceOnUse">
<stop stop-color="#7386EC"/>
<stop offset="0.5" stop-color="#302CA9"/>
<stop offset="1" stop-color="#FADB5F" stop-opacity="0"/>
</linearGradient>
<linearGradient id="paint21_linear" x1="138.315" y1="25.625" x2="138.315" y2="255.246" gradientUnits="userSpaceOnUse">
<stop stop-color="#7386EC"/>
<stop offset="0.5" stop-color="#302CA9"/>
<stop offset="1" stop-color="#FADB5F" stop-opacity="0"/>
</linearGradient>
<linearGradient id="paint22_linear" x1="140.03" y1="24.0898" x2="140.03" y2="254.005" gradientUnits="userSpaceOnUse">
<stop stop-color="#7386EC"/>
<stop offset="0.5" stop-color="#302CA9"/>
<stop offset="1" stop-color="#FADB5F" stop-opacity="0"/>
</linearGradient>
<linearGradient id="paint23_linear" x1="141.662" y1="22.4785" x2="141.662" y2="252.789" gradientUnits="userSpaceOnUse">
<stop stop-color="#7386EC"/>
<stop offset="0.5" stop-color="#302CA9"/>
<stop offset="1" stop-color="#FADB5F" stop-opacity="0"/>
</linearGradient>
<linearGradient id="paint24_linear" x1="143.342" y1="20.9497" x2="143.342" y2="251.623" gradientUnits="userSpaceOnUse">
<stop stop-color="#7386EC"/>
<stop offset="0.5" stop-color="#302CA9"/>
<stop offset="1" stop-color="#FADB5F" stop-opacity="0"/>
</linearGradient>
<linearGradient id="paint25_linear" x1="145.025" y1="19.3389" x2="145.025" y2="250.5" gradientUnits="userSpaceOnUse">
<stop stop-color="#7386EC"/>
<stop offset="0.5" stop-color="#302CA9"/>
<stop offset="1" stop-color="#FADB5F" stop-opacity="0"/>
</linearGradient>
<linearGradient id="paint26_linear" x1="146.695" y1="17.7808" x2="146.695" y2="249.417" gradientUnits="userSpaceOnUse">
<stop stop-color="#7386EC"/>
<stop offset="0.5" stop-color="#302CA9"/>
<stop offset="1" stop-color="#FADB5F" stop-opacity="0"/>
</linearGradient>
<linearGradient id="paint27_linear" x1="148.44" y1="16.1479" x2="148.44" y2="248.218" gradientUnits="userSpaceOnUse">
<stop stop-color="#7386EC"/>
<stop offset="0.5" stop-color="#302CA9"/>
<stop offset="1" stop-color="#FADB5F" stop-opacity="0"/>
</linearGradient>
<linearGradient id="paint28_linear" x1="150.154" y1="14.5728" x2="150.154" y2="247.116" gradientUnits="userSpaceOnUse">
<stop stop-color="#7386EC"/>
<stop offset="0.5" stop-color="#302CA9"/>
<stop offset="1" stop-color="#FADB5F" stop-opacity="0"/>
</linearGradient>
<linearGradient id="paint29_linear" x1="151.892" y1="12.9277" x2="151.892" y2="246.017" gradientUnits="userSpaceOnUse">
<stop stop-color="#7386EC"/>
<stop offset="0.5" stop-color="#302CA9"/>
<stop offset="1" stop-color="#FADB5F" stop-opacity="0"/>
</linearGradient>
<linearGradient id="paint30_linear" x1="153.662" y1="11.3369" x2="153.662" y2="244.913" gradientUnits="userSpaceOnUse">
<stop stop-color="#7386EC"/>
<stop offset="0.5" stop-color="#302CA9"/>
<stop offset="1" stop-color="#FADB5F" stop-opacity="0"/>
</linearGradient>
<linearGradient id="paint31_linear" x1="155.458" y1="9.73389" x2="155.458" y2="243.875" gradientUnits="userSpaceOnUse">
<stop stop-color="#7386EC"/>
<stop offset="0.5" stop-color="#302CA9"/>
<stop offset="1" stop-color="#FADB5F" stop-opacity="0"/>
</linearGradient>
<linearGradient id="paint32_linear" x1="157.248" y1="8.06104" x2="157.248" y2="242.784" gradientUnits="userSpaceOnUse">
<stop stop-color="#7386EC"/>
<stop offset="0.5" stop-color="#302CA9"/>
<stop offset="1" stop-color="#FADB5F" stop-opacity="0"/>
</linearGradient>
<linearGradient id="paint33_linear" x1="159.07" y1="6.44385" x2="159.07" y2="241.738" gradientUnits="userSpaceOnUse">
<stop stop-color="#7386EC"/>
<stop offset="0.5" stop-color="#302CA9"/>
<stop offset="1" stop-color="#FADB5F" stop-opacity="0"/>
</linearGradient>
<linearGradient id="paint34_linear" x1="160.962" y1="4.76025" x2="160.962" y2="240.638" gradientUnits="userSpaceOnUse">
<stop stop-color="#7386EC"/>
<stop offset="0.5" stop-color="#302CA9"/>
<stop offset="1" stop-color="#FADB5F" stop-opacity="0"/>
</linearGradient>
<linearGradient id="paint35_linear" x1="162.837" y1="3.09717" x2="162.837" y2="239.587" gradientUnits="userSpaceOnUse">
<stop stop-color="#7386EC"/>
<stop offset="0.5" stop-color="#302CA9"/>
<stop offset="1" stop-color="#FADB5F" stop-opacity="0"/>
</linearGradient>
<linearGradient id="paint36_linear" x1="164.73" y1="1.42725" x2="164.73" y2="238.643" gradientUnits="userSpaceOnUse">
<stop stop-color="#7386EC"/>
<stop offset="0.5" stop-color="#302CA9"/>
<stop offset="1" stop-color="#FADB5F" stop-opacity="0"/>
</linearGradient>
</defs>
</svg>
