<?xml version="1.0" standalone="no"?>
<!DOCTYPE svg PUBLIC "-//W3C//DTD SVG 20010904//EN"
 "http://www.w3.org/TR/2001/REC-SVG-20010904/DTD/svg10.dtd">
<svg version="1.0" xmlns="http://www.w3.org/2000/svg"
 width="912.000000pt" height="912.000000pt" viewBox="0 0 912.000000 912.000000"
 preserveAspectRatio="xMidYMid meet">
<metadata>
Created by potrace 1.11, written by Peter Selinger 2001-2013
</metadata>
<g transform="translate(0.000000,912.000000) scale(0.100000,-0.100000)"
fill="#000000" stroke="none">
<path d="M1547 8963 c-1 0 -20 -4 -42 -7 -136 -22 -266 -88 -364 -187 -66 -68
-133 -184 -156 -274 -5 -16 -11 -37 -14 -45 -9 -26 -11 -3550 -2 -3568 5 -10
11 -31 14 -48 3 -17 24 -70 47 -118 67 -141 193 -254 347 -315 58 -23 82 -28
160 -37 28 -3 786 -7 1685 -8 l1633 -1 2 -97 c0 -53 4 -102 8 -107 3 -6 3 -11
-2 -11 -9 0 -8 -204 1 -227 3 -7 2 -13 -2 -13 -8 0 -6 -216 3 -230 3 -6 3 -10
-2 -10 -9 0 -7 -215 2 -230 3 -6 3 -10 -2 -10 -9 0 -8 -443 1 -466 3 -8 2 -14
-2 -14 -4 0 -7 -42 -7 -92 l0 -93 -670 -1 c-369 -1 -689 -4 -710 -7 -222 -33
-438 -205 -511 -408 -40 -114 -41 -139 -40 -950 1 -431 4 -789 8 -795 4 -6 10
-25 13 -43 12 -70 83 -194 155 -274 46 -50 167 -136 202 -142 11 -2 25 -8 32
-13 17 -13 84 -30 146 -38 73 -10 1540 -9 1605 1 137 20 249 78 356 184 62 62
85 93 122 171 70 145 68 121 70 915 2 554 4 630 17 626 8 -2 20 -3 25 -3 6 0
73 1 150 1 77 0 148 0 158 0 32 1 157 0 170 0 6 0 84 0 173 1 88 1 164 0 170
-1 5 -1 14 -1 19 0 13 3 289 3 301 0 5 -1 14 -1 19 0 8 2 177 1 280 0 6 0 73
0 150 1 77 1 145 1 150 0 6 -1 12 -1 15 0 3 1 27 3 55 6 27 2 79 13 115 25
231 76 391 255 440 493 9 45 12 307 11 1060 0 551 -2 1008 -4 1016 -2 8 -7 33
-11 55 -8 46 -12 55 -55 145 -32 67 -53 96 -119 164 -43 45 -163 126 -186 126
-9 0 -16 4 -16 9 0 5 -21 14 -47 21 -51 14 -58 15 -113 24 -19 3 -448 6 -952
6 l-918 1 1 1631 0 1630 -22 86 c-51 204 -185 358 -384 439 -60 25 -67 27
-140 39 -32 6 -3532 13 -3538 7z m3286 -772 l28 -1 -2 -94 c-1 -51 1 -99 5
-105 4 -6 4 -11 -1 -11 -9 0 -7 -296 2 -310 4 -6 3 -10 -2 -10 -9 0 -7 -296 2
-310 4 -6 3 -10 -2 -10 -9 0 -7 -296 2 -310 4 -6 3 -10 -2 -10 -9 0 -7 -296 2
-310 4 -6 3 -10 -2 -10 -9 0 -7 -296 2 -310 4 -6 3 -10 -2 -10 -9 0 -7 -296 2
-310 4 -6 3 -10 -2 -10 -9 0 -7 -296 2 -310 4 -6 3 -10 -2 -10 -9 0 -7 -296 2
-310 4 -6 3 -10 -2 -10 -4 0 -7 -65 -6 -145 l2 -145 -1563 0 -1563 0 0 1530 0
1529 36 3 c29 2 2962 1 3064 -1z m2452 -4635 l0 -801 -823 -1 c-452 -1 -822 2
-823 5 -3 18 -4 1578 -1 1588 2 8 213 11 825 11 l822 0 0 -802z m-3370 -1577
c12 0 282 0 308 0 31 1 157 0 170 0 9 0 182 0 307 0 8 0 47 1 87 3 l72 3 0
-112 c-1 -62 2 -117 6 -122 3 -6 3 -11 -2 -11 -9 0 -7 -215 2 -230 3 -6 3 -10
-2 -10 -9 0 -8 -443 1 -466 3 -8 2 -14 -2 -14 -4 0 -7 -39 -7 -86 l0 -86 -577
-2 c-505 -1 -577 1 -580 14 -2 8 -4 262 -3 565 l0 549 23 6 c13 3 60 4 105 2
45 -2 87 -3 92 -3z"/>
</g>
</svg>
