<svg width="150" height="56" viewBox="0 0 150 56" fill="none" xmlns="http://www.w3.org/2000/svg">
<path d="M40.3326 24.238H29.1953V4.29434C29.1953 2.0748 27.3927 0.273438 25.1717 0.273438H4.02361C1.80258 0.273438 0 2.0748 0 4.29434V25.0422C0 27.2617 1.80258 29.0631 4.02361 29.0631H24.367V39.0992H16.2876C14.0665 39.0992 12.264 40.9006 12.264 43.1201V51.8053C12.264 54.0248 14.0665 55.8262 16.2876 55.8262H25.1717C27.3927 55.8262 29.1953 54.0248 29.1953 51.8053V43.9243H40.3004C42.5215 43.9243 44.324 42.123 44.324 39.9034V28.2589C44.3562 26.0394 42.5215 24.238 40.3326 24.238ZM4.82833 5.09852H24.367V24.238H4.82833V5.09852ZM24.367 51.0011H17.0923V43.9243H24.367V51.0011ZM39.5279 39.0992H29.2275V29.0631H39.5279V39.0992Z" fill="#FAF9F7"/>
<path d="M59.7101 24.3008C61.3839 24.3008 62.7358 24.4616 63.7659 24.8155C64.7959 25.1693 65.5684 25.7483 66.0513 26.5525C66.5341 27.3566 66.7916 28.5146 66.7916 29.9621C66.7916 30.8306 66.6629 31.6348 66.4375 32.2781C66.2122 32.9536 65.826 33.5005 65.2787 33.8865C64.7315 34.3046 64.0234 34.562 63.0899 34.6585V34.7871C63.4118 34.8515 63.7659 34.9801 64.1199 35.1731C64.474 35.3661 64.8281 35.6878 65.1178 36.0738C65.4397 36.4598 65.665 37.0066 65.7938 37.65L67.4354 43.5687H62.9933L61.5448 37.7786C61.3839 37.1675 61.1264 36.7171 60.8045 36.492C60.4826 36.2668 60.032 36.1381 59.4526 36.1381C58.1972 36.1381 57.1672 36.1381 56.2981 36.1381C55.429 36.1381 54.7208 36.106 54.1414 36.106C53.562 36.0738 53.047 36.0738 52.5963 36.0416L52.6929 32.9858H59.5491C60.2895 32.9858 60.8689 32.9215 61.2873 32.7606C61.7058 32.5998 62.0277 32.3103 62.1886 31.9243C62.3496 31.5061 62.4461 30.9593 62.4461 30.2516C62.4461 29.5118 62.3496 28.965 62.1886 28.5468C62.0277 28.1608 61.7058 27.8713 61.2873 27.7105C60.8689 27.5496 60.2573 27.4853 59.5491 27.4853C57.8109 27.4853 56.3624 27.4853 55.1714 27.5175C53.9805 27.5496 53.1436 27.5496 52.7251 27.614L52.3066 24.6224C53.0792 24.5259 53.8195 24.4616 54.4955 24.4294C55.1714 24.3973 55.9118 24.3651 56.7165 24.3651C57.5856 24.3008 58.5513 24.3008 59.7101 24.3008ZM56.5234 24.5903V43.6008H52.371V24.5903H56.5234Z" fill="#FAF9F7"/>
<path d="M73.5512 24.4941C74.5813 24.4941 75.6113 24.4941 76.6736 24.4941C77.7358 24.4941 78.7337 24.5263 79.7637 24.5585C80.7615 24.5906 81.7272 24.655 82.5963 24.7515L82.4032 27.8073H75.0963C74.6457 27.8073 74.2916 27.936 74.0663 28.1611C73.8409 28.3863 73.7122 28.7402 73.7122 29.2227V38.9048C73.7122 39.3552 73.8409 39.709 74.0663 39.9664C74.2916 40.1915 74.6457 40.3202 75.0963 40.3202H82.4032L82.5963 43.376C81.7272 43.4404 80.7615 43.5047 79.7637 43.569C78.7658 43.6012 77.7358 43.6334 76.6736 43.6655C75.6113 43.6655 74.5813 43.6655 73.5512 43.6655C72.3281 43.6655 71.3624 43.3117 70.6221 42.604C69.8817 41.8964 69.4955 40.9635 69.4955 39.8377V28.322C69.4955 27.164 69.8817 26.2311 70.6221 25.5556C71.3624 24.848 72.3603 24.4941 73.5512 24.4941ZM70.0105 32.2142H81.4053V35.1735H70.0105V32.2142Z" fill="#FAF9F7"/>
<path d="M91.3195 24.2363C92.253 24.2363 93.283 24.3007 94.3774 24.3972C95.4719 24.4937 96.5663 24.7188 97.5963 25.0083L97.3066 27.7747C96.5019 27.7426 95.5362 27.7426 94.474 27.7104C93.3796 27.6782 92.3173 27.6782 91.2873 27.6782C90.7723 27.6782 90.3216 27.6782 89.9676 27.7104C89.6135 27.7426 89.3238 27.8069 89.0985 27.9356C88.8731 28.0642 88.7122 28.2251 88.6156 28.4824C88.5191 28.7076 88.4869 29.0614 88.4869 29.4796C88.4869 30.1229 88.6478 30.6054 88.9375 30.8949C89.2272 31.1844 89.7744 31.4418 90.4826 31.6991L94.1521 32.8893C95.665 33.404 96.7272 34.1117 97.3066 34.9802C97.886 35.8487 98.1757 37.0067 98.1757 38.4542C98.1757 39.5479 98.047 40.4486 97.7894 41.1563C97.5319 41.864 97.1135 42.443 96.5663 42.829C96.0191 43.2472 95.2787 43.5367 94.3774 43.6975C93.4761 43.8583 92.3817 43.9548 91.062 43.9548C90.4504 43.9548 89.5491 43.9227 88.3903 43.8262C87.2315 43.7297 85.9118 43.5367 84.4311 43.215L84.7208 40.2556C85.8152 40.2878 86.7487 40.2878 87.5534 40.3199C88.3581 40.3521 89.0341 40.3521 89.6135 40.3843C90.1929 40.3843 90.6757 40.3843 91.0942 40.3843C91.8345 40.3843 92.4139 40.3521 92.8324 40.2556C93.2508 40.1591 93.5405 39.9661 93.7015 39.7088C93.8624 39.4193 93.959 39.0332 93.959 38.5186C93.959 38.0682 93.8946 37.7144 93.7658 37.4571C93.6371 37.1997 93.444 36.9745 93.1864 36.8137C92.9289 36.6529 92.5427 36.5242 92.092 36.3955L88.2294 35.0767C86.7809 34.5298 85.7508 33.8543 85.1392 32.9858C84.5276 32.1173 84.2379 30.9914 84.2379 29.5761C84.2379 28.4824 84.3667 27.5817 84.6242 26.9062C84.8817 26.2307 85.3002 25.6839 85.8796 25.2978C86.4268 24.9118 87.1671 24.6545 88.0684 24.4937C89.0019 24.3007 90.0641 24.2363 91.3195 24.2363Z" fill="#FAF9F7"/>
<path d="M106.706 29.6406C107.189 29.6406 107.736 29.6728 108.347 29.705C108.927 29.7371 109.538 29.8336 110.118 29.9623C110.729 30.091 111.277 30.2518 111.759 30.477L111.309 33.0503C110.568 33.0182 109.86 33.0182 109.184 32.986C108.508 32.9538 107.897 32.9538 107.382 32.9538C106.545 32.9538 105.901 33.0503 105.418 33.2755C104.935 33.5007 104.581 33.8867 104.388 34.4335C104.163 34.9804 104.066 35.7845 104.066 36.7495C104.066 37.7467 104.163 38.5509 104.388 39.1299C104.613 39.7089 104.935 40.0949 105.418 40.3201C105.901 40.5453 106.545 40.6418 107.382 40.6418C107.671 40.6418 108.058 40.6418 108.508 40.6096C108.959 40.5774 109.474 40.5774 109.989 40.5452C110.536 40.5131 111.051 40.4809 111.566 40.3844L111.953 42.9578C111.212 43.2794 110.375 43.5368 109.442 43.6655C108.508 43.8263 107.575 43.8906 106.674 43.8906C104.968 43.8906 103.648 43.6655 102.65 43.1829C101.652 42.7004 100.912 41.9606 100.493 40.8991C100.043 39.8376 99.8174 38.4544 99.8174 36.7174C99.8174 34.9804 100.043 33.565 100.493 32.5357C100.944 31.4741 101.684 30.7343 102.682 30.284C103.712 29.8658 105.032 29.6406 106.706 29.6406Z" fill="#FAF9F7"/>
<path d="M124.699 35.2055L124.667 37.4893L118.616 37.5215C118.133 37.5215 117.779 37.6501 117.553 37.8753C117.328 38.1005 117.232 38.4222 117.232 38.8403V39.5158C117.232 39.9662 117.36 40.32 117.618 40.5773C117.875 40.8347 118.294 40.9633 118.873 40.9633C119.356 40.9633 119.871 40.8668 120.418 40.6738C120.965 40.4808 121.545 40.1913 122.092 39.8053C122.639 39.4515 123.122 39.0012 123.541 38.5187V40.2878C123.38 40.5773 123.122 40.899 122.8 41.3172C122.478 41.7353 122.06 42.1213 121.577 42.5395C121.094 42.9255 120.515 43.2793 119.839 43.5367C119.163 43.8262 118.423 43.9548 117.586 43.9548C116.749 43.9548 116.008 43.794 115.365 43.5045C114.689 43.215 114.174 42.7647 113.787 42.2178C113.401 41.6388 113.208 40.9312 113.208 40.0948V38.6795C113.208 37.5858 113.562 36.7495 114.302 36.1383C115.043 35.5271 116.041 35.2376 117.328 35.2376H124.699V35.2055ZM121.062 29.6406C122.189 29.6406 123.154 29.8015 123.959 30.091C124.764 30.3805 125.343 30.8951 125.762 31.635C126.18 32.3748 126.373 33.372 126.373 34.6265V43.601H123.122L122.543 40.6417L122.253 40.2235V34.5621C122.253 33.9188 122.092 33.4363 121.802 33.1468C121.513 32.8573 120.933 32.6965 120.064 32.6965C119.356 32.6965 118.487 32.7286 117.457 32.7608C116.395 32.793 115.332 32.8573 114.238 32.9538L113.852 30.2518C114.528 30.1231 115.268 30.0266 116.137 29.9301C117.006 29.8336 117.875 29.7693 118.712 29.705C119.581 29.6728 120.354 29.6406 121.062 29.6406Z" fill="#FAF9F7"/>
<path d="M133.133 24.3008L133.101 39.2262C133.101 39.6766 133.229 40.0304 133.519 40.2556C133.809 40.4807 134.195 40.6094 134.742 40.6094H135.837L136.319 43.3758C136.094 43.4723 135.772 43.5688 135.386 43.6653C134.968 43.7618 134.581 43.8261 134.131 43.8583C133.712 43.8904 133.358 43.9226 133.068 43.9226C131.845 43.9226 130.847 43.6009 130.139 42.9576C129.431 42.3143 129.077 41.4136 129.077 40.2556V24.3008H133.133Z" fill="#FAF9F7"/>
<path d="M148.326 35.2055L148.294 37.4893L142.242 37.5215C141.759 37.5215 141.405 37.6501 141.18 37.8753C140.955 38.1005 140.858 38.4222 140.858 38.8403V39.5158C140.858 39.9662 140.987 40.32 141.244 40.5773C141.502 40.8347 141.92 40.9633 142.5 40.9633C142.983 40.9633 143.498 40.8668 144.045 40.6738C144.592 40.4808 145.171 40.1913 145.719 39.8053C146.266 39.4515 146.749 39.0012 147.167 38.5187V40.2878C147.006 40.5773 146.749 40.899 146.427 41.3172C146.105 41.7353 145.686 42.1213 145.204 42.5395C144.721 42.9255 144.141 43.2793 143.465 43.5367C142.789 43.8262 142.049 43.9548 141.212 43.9548C140.375 43.9548 139.635 43.794 138.991 43.5045C138.315 43.215 137.8 42.7647 137.414 42.2178C137.028 41.6388 136.835 40.9312 136.835 40.0948V38.6795C136.835 37.5858 137.189 36.7495 137.929 36.1383C138.669 35.5271 139.667 35.2376 140.955 35.2376H148.326V35.2055ZM144.689 29.6406C145.815 29.6406 146.781 29.8015 147.586 30.091C148.39 30.3805 148.97 30.8951 149.388 31.635C149.807 32.3748 150 33.372 150 34.6265V43.601H146.749L146.169 40.6417L145.88 40.2235V34.5621C145.88 33.9188 145.719 33.4363 145.429 33.1468C145.139 32.8573 144.56 32.6965 143.691 32.6965C142.983 32.6965 142.113 32.7286 141.083 32.7608C140.021 32.793 138.959 32.8573 137.865 32.9538L137.478 30.2518C138.154 30.1231 138.895 30.0266 139.764 29.9301C140.633 29.8336 141.502 29.7693 142.339 29.705C143.24 29.6728 144.013 29.6406 144.689 29.6406Z" fill="#FAF9F7"/>
</svg>
