<svg width="150" height="57" viewBox="0 0 150 57" fill="none" xmlns="http://www.w3.org/2000/svg">
<path d="M40.3326 24.6937H29.1953V4.82104C29.1953 2.6094 27.3927 0.814453 25.1717 0.814453H4.02361C1.80258 0.814453 0 2.6094 0 4.82104V25.495C0 27.7067 1.80258 29.5016 4.02361 29.5016H24.367V39.5021H16.2876C14.0665 39.5021 12.264 41.297 12.264 43.5087V52.1629C12.264 54.3745 14.0665 56.1695 16.2876 56.1695H25.1717C27.3927 56.1695 29.1953 54.3745 29.1953 52.1629V44.31H40.3004C42.5215 44.31 44.324 42.515 44.324 40.3034V28.7003C44.3562 26.4887 42.5215 24.6937 40.3326 24.6937ZM4.82833 5.62236H24.367V24.6937H4.82833V5.62236ZM24.367 51.3616H17.0923V44.31H24.367V51.3616ZM39.5279 39.5021H29.2275V29.5016H39.5279V39.5021Z" fill="white"/>
<path d="M59.7106 24.7578C61.3844 24.7578 62.7363 24.9181 63.7664 25.2707C64.7964 25.6232 65.5689 26.2002 66.0518 27.0015C66.5346 27.8028 66.7921 28.9567 66.7921 30.3991C66.7921 31.2645 66.6633 32.0658 66.438 32.7069C66.2127 33.38 65.8264 33.9249 65.2792 34.3095C64.732 34.7262 64.0239 34.9826 63.0904 35.0788V35.207C63.4123 35.2711 63.7664 35.3993 64.1204 35.5916C64.4745 35.7839 64.8286 36.1045 65.1183 36.4891C65.4402 36.8737 65.6655 37.4186 65.7943 38.0597L67.4359 43.9574H62.9938L61.5453 38.1879C61.3844 37.5789 61.1269 37.1302 60.805 36.9058C60.4831 36.6814 60.0324 36.5532 59.4531 36.5532C58.1977 36.5532 57.1676 36.5532 56.2985 36.5532C55.4294 36.5532 54.7213 36.5212 54.1419 36.5212C53.5625 36.4891 53.0475 36.4891 52.5968 36.457L52.6934 33.412H59.5496C60.29 33.412 60.8694 33.3479 61.2878 33.1877C61.7063 33.0274 62.0282 32.7389 62.1891 32.3543C62.35 31.9376 62.4466 31.3927 62.4466 30.6876C62.4466 29.9504 62.35 29.4055 62.1891 28.9888C62.0282 28.6041 61.7063 28.3157 61.2878 28.1554C60.8694 27.9951 60.2578 27.931 59.5496 27.931C57.8114 27.931 56.3629 27.931 55.1719 27.9631C53.9809 27.9951 53.144 27.9951 52.7256 28.0592L52.3071 25.0783C53.0797 24.9822 53.82 24.9181 54.496 24.886C55.1719 24.854 55.9123 24.8219 56.717 24.8219C57.5861 24.7578 58.5518 24.7578 59.7106 24.7578ZM56.5239 25.0463V43.9894H52.3715V25.0463H56.5239Z" fill="white"/>
<path d="M73.5519 24.9512C74.5819 24.9512 75.612 24.9512 76.6742 24.9512C77.7364 24.9512 78.7343 24.9832 79.7643 25.0153C80.7622 25.0473 81.7279 25.1114 82.597 25.2076L82.4038 28.2526H75.097C74.6463 28.2526 74.2922 28.3808 74.0669 28.6052C73.8416 28.8295 73.7128 29.1821 73.7128 29.6629V39.3108C73.7128 39.7595 73.8416 40.1121 74.0669 40.3685C74.2922 40.5929 74.6463 40.7211 75.097 40.7211H82.4038L82.597 43.7661C81.7279 43.8302 80.7622 43.8943 79.7643 43.9584C78.7665 43.9905 77.7364 44.0225 76.6742 44.0546C75.612 44.0546 74.5819 44.0546 73.5519 44.0546C72.3287 44.0546 71.363 43.702 70.6227 42.9968C69.8824 42.2917 69.4961 41.3621 69.4961 40.2403V28.7654C69.4961 27.6115 69.8824 26.682 70.6227 26.0089C71.363 25.3037 72.3609 24.9512 73.5519 24.9512ZM70.0111 32.6438H81.406V35.5927H70.0111V32.6438Z" fill="white"/>
<path d="M91.3198 24.6934C92.2533 24.6934 93.2834 24.7575 94.3778 24.8536C95.4722 24.9498 96.5666 25.1742 97.5967 25.4626L97.307 28.2192C96.5022 28.1871 95.5366 28.1871 94.4743 28.1551C93.3799 28.123 92.3177 28.123 91.2876 28.123C90.7726 28.123 90.322 28.123 89.9679 28.1551C89.6138 28.1871 89.3241 28.2512 89.0988 28.3794C88.8735 28.5076 88.7125 28.6679 88.616 28.9243C88.5194 29.1487 88.4872 29.5013 88.4872 29.918C88.4872 30.559 88.6481 31.0398 88.9378 31.3283C89.2275 31.6167 89.7748 31.8732 90.4829 32.1296L94.1524 33.3155C95.6653 33.8284 96.7276 34.5335 97.307 35.399C97.8864 36.2644 98.1761 37.4183 98.1761 38.8607C98.1761 39.9504 98.0473 40.8479 97.7898 41.5531C97.5323 42.2582 97.1138 42.8352 96.5666 43.2198C96.0194 43.6365 95.2791 43.925 94.3778 44.0852C93.4765 44.2455 92.3821 44.3417 91.0623 44.3417C90.4507 44.3417 89.5494 44.3096 88.3906 44.2135C87.2318 44.1173 85.9121 43.925 84.4314 43.6045L84.7211 40.6556C85.8155 40.6877 86.749 40.6877 87.5537 40.7197C88.3585 40.7518 89.0344 40.7518 89.6138 40.7838C90.1932 40.7838 90.6761 40.7838 91.0945 40.7838C91.8348 40.7838 92.4142 40.7518 92.8327 40.6556C93.2512 40.5594 93.5409 40.3671 93.7018 40.1107C93.8628 39.8222 93.9593 39.4376 93.9593 38.9248C93.9593 38.476 93.8949 38.1234 93.7662 37.867C93.6374 37.6106 93.4443 37.3862 93.1868 37.226C92.9293 37.0657 92.543 36.9375 92.0924 36.8093L88.2297 35.4951C86.7812 34.9502 85.7512 34.2771 85.1396 33.4117C84.528 32.5463 84.2383 31.4244 84.2383 30.0141C84.2383 28.9243 84.367 28.0268 84.6245 27.3537C84.8821 26.6806 85.3005 26.1357 85.8799 25.7511C86.4271 25.3665 87.1675 25.11 88.0688 24.9498C89.0022 24.7575 90.0645 24.6934 91.3198 24.6934Z" fill="white"/>
<path d="M106.706 30.0781C107.189 30.0781 107.736 30.1102 108.348 30.1422C108.927 30.1743 109.539 30.2704 110.118 30.3987C110.73 30.5269 111.277 30.6871 111.76 30.9115L111.309 33.4757C110.569 33.4437 109.861 33.4437 109.185 33.4116C108.509 33.3795 107.897 33.3796 107.382 33.3796C106.545 33.3796 105.902 33.4757 105.419 33.7001C104.936 33.9244 104.582 34.3091 104.389 34.854C104.163 35.3989 104.067 36.2002 104.067 37.1618C104.067 38.1554 104.163 38.9567 104.389 39.5337C104.614 40.1106 104.936 40.4952 105.419 40.7196C105.902 40.944 106.545 41.0401 107.382 41.0401C107.672 41.0401 108.058 41.0401 108.509 41.0081C108.959 40.976 109.475 40.976 109.99 40.944C110.537 40.9119 111.052 40.8799 111.567 40.7837L111.953 43.3479C111.213 43.6685 110.376 43.9249 109.442 44.0531C108.509 44.2134 107.575 44.2775 106.674 44.2775C104.968 44.2775 103.648 44.0531 102.65 43.5723C101.653 43.0915 100.912 42.3543 100.494 41.2966C100.043 40.2388 99.8179 38.8606 99.8179 37.1297C99.8179 35.3989 100.043 33.9886 100.494 32.9629C100.944 31.9051 101.685 31.1679 102.683 30.7192C103.713 30.3025 105.032 30.0781 106.706 30.0781Z" fill="white"/>
<path d="M124.7 35.6232L124.668 37.899L118.616 37.931C118.133 37.931 117.779 38.0592 117.554 38.2836C117.329 38.508 117.232 38.8285 117.232 39.2452V39.9183C117.232 40.367 117.361 40.7196 117.618 40.976C117.876 41.2325 118.294 41.3607 118.874 41.3607C119.357 41.3607 119.872 41.2645 120.419 41.0722C120.966 40.8799 121.545 40.5914 122.093 40.2068C122.64 39.8542 123.123 39.4055 123.541 38.9247V40.6876C123.38 40.976 123.123 41.2966 122.801 41.7132C122.479 42.1299 122.06 42.5146 121.578 42.9312C121.095 43.3159 120.515 43.6685 119.839 43.9249C119.163 44.2134 118.423 44.3416 117.586 44.3416C116.749 44.3416 116.009 44.1813 115.365 43.8928C114.689 43.6044 114.174 43.1556 113.788 42.6107C113.402 42.0338 113.208 41.3286 113.208 40.4952V39.0849C113.208 37.9951 113.563 37.1618 114.303 36.5528C115.043 35.9438 116.041 35.6553 117.329 35.6553H124.7V35.6232ZM121.063 30.0781C122.189 30.0781 123.155 30.2384 123.96 30.5269C124.764 30.8153 125.344 31.3282 125.762 32.0654C126.181 32.8026 126.374 33.7962 126.374 35.0463V43.989H123.123L122.543 41.0401L122.254 40.6235V34.9822C122.254 34.3411 122.093 33.8603 121.803 33.5719C121.513 33.2834 120.934 33.1231 120.065 33.1231C119.357 33.1231 118.487 33.1552 117.457 33.1872C116.395 33.2193 115.333 33.2834 114.239 33.3795L113.852 30.6871C114.528 30.5589 115.269 30.4628 116.138 30.3666C117.007 30.2704 117.876 30.2063 118.713 30.1422C119.582 30.1102 120.354 30.0781 121.063 30.0781Z" fill="white"/>
<path d="M133.133 24.7578L133.101 39.6303C133.101 40.079 133.23 40.4316 133.52 40.656C133.809 40.8803 134.196 41.0085 134.743 41.0085H135.837L136.32 43.7651C136.095 43.8612 135.773 43.9574 135.387 44.0535C134.968 44.1497 134.582 44.2138 134.131 44.2459C133.713 44.2779 133.359 44.31 133.069 44.31C131.846 44.31 130.848 43.9894 130.14 43.3484C129.432 42.7073 129.078 41.8099 129.078 40.656V24.7578H133.133Z" fill="white"/>
<path d="M148.326 35.6232L148.294 37.899L142.243 37.931C141.76 37.931 141.406 38.0592 141.18 38.2836C140.955 38.508 140.859 38.8285 140.859 39.2452V39.9183C140.859 40.367 140.987 40.7196 141.245 40.976C141.502 41.2325 141.921 41.3607 142.5 41.3607C142.983 41.3607 143.498 41.2645 144.045 41.0722C144.592 40.8799 145.172 40.5914 145.719 40.2068C146.266 39.8542 146.749 39.4055 147.168 38.9247V40.6876C147.007 40.976 146.749 41.2966 146.427 41.7132C146.105 42.1299 145.687 42.5146 145.204 42.9312C144.721 43.3159 144.142 43.6685 143.466 43.9249C142.79 44.2134 142.05 44.3416 141.213 44.3416C140.376 44.3416 139.635 44.1813 138.992 43.8928C138.316 43.6044 137.801 43.1556 137.414 42.6107C137.028 42.0338 136.835 41.3286 136.835 40.4952V39.0849C136.835 37.9951 137.189 37.1618 137.929 36.5528C138.67 35.9438 139.668 35.6553 140.955 35.6553H148.326V35.6232ZM144.689 30.0781C145.816 30.0781 146.781 30.2384 147.586 30.5269C148.391 30.8153 148.97 31.3282 149.389 32.0654C149.807 32.8026 150 33.7962 150 35.0463V43.989H146.749L146.17 41.0401L145.88 40.6235V34.9822C145.88 34.3411 145.719 33.8603 145.429 33.5719C145.14 33.2834 144.56 33.1231 143.691 33.1231C142.983 33.1231 142.114 33.1552 141.084 33.1872C140.022 33.2193 138.959 33.2834 137.865 33.3795L137.479 30.6871C138.155 30.5589 138.895 30.4628 139.764 30.3666C140.633 30.2704 141.502 30.2063 142.339 30.1422C143.241 30.1102 144.013 30.0781 144.689 30.0781Z" fill="white"/>
</svg>
